<svg version="1.1" viewBox="0.0 0.0 960.0 720.0" fill="none" stroke="none" stroke-linecap="square" stroke-miterlimit="10" xmlns:xlink="http://www.w3.org/1999/xlink" xmlns="http://www.w3.org/2000/svg"><clipPath id="p.0"><path d="m0 0l960.0 0l0 720.0l-960.0 0l0 -720.0z" clip-rule="nonzero"/></clipPath><g clip-path="url(#p.0)"><path fill="#000000" fill-opacity="0.0" d="m0 0l960.0 0l0 720.0l-960.0 0z" fill-rule="evenodd"/><path fill="#b6d7a8" d="m0.002624672 353.2047l211.30708 0l0 306.70868l-211.30708 0z" fill-rule="evenodd"/><path fill="#000000" d="m48.423256 513.47906l0 -13.3594055l5.015625 0q1.53125 0 2.453125 0.40625q0.921875 0.40625 1.4375 1.25q0.53125 0.84375 0.53125 1.765625q0 0.859375 -0.46875 1.625q-0.453125 0.75 -1.390625 1.203125q1.203125 0.359375 1.859375 1.21875q0.65625 0.859375 0.65625 2.015625q0 0.9375 -0.40625 1.75q-0.390625 0.7969055 -0.984375 1.2344055q-0.578125 0.4375 -1.453125 0.671875q-0.875 0.21875 -2.15625 0.21875l-5.09375 0zm1.78125 -7.7500305l2.875 0q1.1875 0 1.6875 -0.140625q0.671875 -0.203125 1.015625 -0.671875q0.34375 -0.46875 0.34375 -1.171875q0 -0.65625 -0.328125 -1.15625q-0.3125 -0.515625 -0.90625 -0.703125q-0.59375 -0.1875 -2.03125 -0.1875l-2.65625 0l0 4.03125zm0 6.171875l3.3125 0q0.859375 0 1.203125 -0.0625q0.609375 -0.109375 1.015625 -0.359375q0.421875 -0.265625 0.6875 -0.75q0.265625 -0.484375 0.265625 -1.125q0 -0.75 -0.390625 -1.296875q-0.375 -0.546875 -1.0625 -0.765625q-0.671875 -0.234375 -1.953125 -0.234375l-3.078125 0l0 4.59375zm16.865448 1.5781555l0 -1.421875q-1.125 1.640625 -3.0625 1.640625q-0.859375 0 -1.609375 -0.328125q-0.734375 -0.328125 -1.09375 -0.828125q-0.359375 -0.5 -0.5 -1.2187805q-0.109375 -0.46875 -0.109375 -1.53125l0 -5.984375l1.640625 0l0 5.359375q0 1.28125 0.109375 1.734375q0.15625 0.640625 0.65625 1.015625q0.5 0.37503052 1.234375 0.37503052q0.734375 0 1.375 -0.37503052q0.65625 -0.390625 0.921875 -1.03125q0.265625 -0.65625 0.265625 -1.890625l0 -5.1875l1.640625 0l0 9.6719055l-1.46875 0zm4.047592 -11.4687805l0 -1.890625l1.640625 0l0 1.890625l-1.640625 0zm0 11.4687805l0 -9.6719055l1.640625 0l0 9.6719055l-1.640625 0zm4.097946 0l0 -13.3594055l1.640625 0l0 13.3594055l-1.640625 0zm10.457321 0l0 -1.21875q-0.90625 1.4375 -2.703125 1.4375q-1.15625 0 -2.125 -0.640625q-0.96875 -0.640625 -1.5 -1.7812805q-0.53125 -1.140625 -0.53125 -2.625q0 -1.453125 0.484375 -2.625q0.484375 -1.1875 1.4375 -1.8125q0.96875 -0.625 2.171875 -0.625q0.875 0 1.546875 0.375q0.6875 0.359375 1.109375 0.953125l0 -4.796875l1.640625 0l0 13.3594055l-1.53125 0zm-5.171875 -4.8281555q0 1.859375 0.78125 2.78125q0.78125 0.9219055 1.84375 0.9219055q1.078125 0 1.828125 -0.8750305q0.75 -0.890625 0.75 -2.6875q0 -1.984375 -0.765625 -2.90625q-0.765625 -0.9375 -1.890625 -0.9375q-1.078125 0 -1.8125 0.890625q-0.734375 0.890625 -0.734375 2.8125zm14.668396 4.8281555l0 -13.3594055l4.609375 0q1.546875 0 2.375 0.203125q1.140625 0.25 1.953125 0.953125q1.0625 0.890625 1.578125 2.28125q0.53125 1.390625 0.53125 3.171875q0 1.515625 -0.359375 2.703125q-0.359375 1.171875 -0.921875 1.9375q-0.546875 0.7656555 -1.203125 1.2187805q-0.65625 0.4375 -1.59375 0.671875q-0.9375 0.21875 -2.140625 0.21875l-4.828125 0zm1.765625 -1.5781555l2.859375 0q1.3125 0 2.0625 -0.234375q0.75 -0.25 1.203125 -0.703125q0.625 -0.625 0.96875 -1.6875q0.359375 -1.0625 0.359375 -2.578125q0 -2.09375 -0.6875 -3.21875q-0.6875 -1.125 -1.671875 -1.5q-0.703125 -0.28125 -2.28125 -0.28125l-2.8125 0l0 10.203125zm17.816696 0.39065552q-0.921875 0.765625 -1.765625 1.09375q-0.828125 0.3125 -1.796875 0.3125q-1.59375 0 -2.453125 -0.78125q-0.859375 -0.78125 -0.859375 -1.9844055q0 -0.71875 0.328125 -1.296875q0.328125 -0.59375 0.84375 -0.9375q0.53125 -0.359375 1.1875 -0.546875q0.46875 -0.125 1.453125 -0.25q1.984375 -0.234375 2.921875 -0.5625q0.015625 -0.34375 0.015625 -0.421875q0 -1.0 -0.46875 -1.421875q-0.625 -0.546875 -1.875 -0.546875q-1.15625 0 -1.703125 0.40625q-0.546875 0.40625 -0.8125 1.421875l-1.609375 -0.21875q0.21875 -1.015625 0.71875 -1.640625q0.5 -0.640625 1.453125 -0.984375q0.953125 -0.34375 2.1875 -0.34375q1.25 0 2.015625 0.296875q0.78125 0.28125 1.140625 0.734375q0.375 0.4375 0.515625 1.109375q0.078125 0.421875 0.078125 1.515625l0 2.1875q0 2.28125 0.109375 2.8906555q0.109375 0.59375 0.40625 1.15625l-1.703125 0q-0.265625 -0.515625 -0.328125 -1.1875zm-0.140625 -3.6719055q-0.890625 0.375 -2.671875 0.625q-1.015625 0.140625 -1.4375 0.328125q-0.421875 0.1875 -0.65625 0.53125q-0.21875 0.34375 -0.21875 0.78125q0 0.65625 0.5 1.09375q0.5 0.43753052 1.453125 0.43753052q0.9375 0 1.671875 -0.40625q0.75 -0.42190552 1.09375 -1.1406555q0.265625 -0.5625 0.265625 -1.640625l0 -0.609375zm10.828842 1.75l1.6875 0.203125q-0.40625 1.4844055 -1.484375 2.3125305q-1.078125 0.8125 -2.765625 0.8125q-2.125 0 -3.375 -1.296875q-1.234375 -1.3125305 -1.234375 -3.6719055q0 -2.453125 1.25 -3.796875q1.265625 -1.34375 3.265625 -1.34375q1.9375 0 3.15625 1.328125q1.234375 1.3125 1.234375 3.703125q0 0.15625 0 0.4375l-7.21875 0q0.09375 1.59375 0.90625 2.453125q0.8125 0.8437805 2.015625 0.8437805q0.90625 0 1.546875 -0.46878052q0.640625 -0.484375 1.015625 -1.515625zm-5.390625 -2.65625l5.40625 0q-0.109375 -1.21875 -0.625 -1.828125q-0.78125 -0.953125 -2.03125 -0.953125q-1.125 0 -1.90625 0.765625q-0.765625 0.75 -0.84375 2.015625zm9.141335 5.7656555l0 -9.6719055l1.46875 0l0 1.359375q0.453125 -0.71875 1.203125 -1.140625q0.765625 -0.4375 1.71875 -0.4375q1.078125 0 1.765625 0.453125q0.6875 0.4375 0.96875 1.234375q1.15625 -1.6875 2.984375 -1.6875q1.453125 0 2.21875 0.796875q0.78125 0.796875 0.78125 2.453125l0 6.6406555l-1.640625 0l0 -6.0937805q0 -0.984375 -0.15625 -1.40625q-0.15625 -0.4375 -0.578125 -0.703125q-0.421875 -0.265625 -0.984375 -0.265625q-1.015625 0 -1.6875 0.6875q-0.671875 0.671875 -0.671875 2.15625l0 5.6250305l-1.640625 0l0 -6.2812805q0 -1.09375 -0.40625 -1.640625q-0.40625 -0.546875 -1.3125 -0.546875q-0.6875 0 -1.28125 0.359375q-0.59375 0.359375 -0.859375 1.0625q-0.25 0.703125 -0.25 2.03125l0 5.0156555l-1.640625 0zm14.931427 -4.8437805q0 -2.6875 1.484375 -3.96875q1.25 -1.078125 3.046875 -1.078125q2.0 0 3.265625 1.3125q1.265625 1.296875 1.265625 3.609375q0 1.859375 -0.5625 2.9375q-0.5625 1.0625305 -1.640625 1.6562805q-1.0625 0.59375 -2.328125 0.59375q-2.03125 0 -3.28125 -1.296875q-1.25 -1.3125305 -1.25 -3.7656555zm1.6875 0q0 1.859375 0.796875 2.796875q0.8125 0.9219055 2.046875 0.9219055q1.21875 0 2.03125 -0.9219055q0.8125 -0.9375 0.8125 -2.84375q0 -1.796875 -0.8125 -2.71875q-0.8125 -0.921875 -2.03125 -0.921875q-1.234375 0 -2.046875 0.921875q-0.796875 0.90625 -0.796875 2.765625zm9.297607 4.8437805l0 -9.6719055l1.46875 0l0 1.375q1.0625 -1.59375 3.078125 -1.59375q0.875 0 1.609375 0.3125q0.734375 0.3125 1.09375 0.828125q0.375 0.5 0.515625 1.203125q0.09375 0.453125 0.09375 1.59375l0 5.9531555l-1.640625 0l0 -5.8906555q0 -1.0 -0.203125 -1.484375q-0.1875 -0.5 -0.671875 -0.796875q-0.484375 -0.296875 -1.140625 -0.296875q-1.046875 0 -1.8125 0.671875q-0.75 0.65625 -0.75 2.515625l0 5.2812805l-1.640625 0z" fill-rule="nonzero"/><path fill="#b6d7a8" d="m743.47266 353.2047l215.1181 0l0 306.70868l-215.1181 0z" fill-rule="evenodd"/><path fill="#000000" d="m793.79877 513.47906l0 -13.3594055l5.015625 0q1.53125 0 2.453125 0.40625q0.921875 0.40625 1.4375 1.25q0.53125 0.84375 0.53125 1.765625q0 0.859375 -0.46875 1.625q-0.453125 0.75 -1.390625 1.203125q1.203125 0.359375 1.859375 1.21875q0.65625 0.859375 0.65625 2.015625q0 0.9375 -0.40625 1.75q-0.390625 0.7969055 -0.984375 1.2344055q-0.578125 0.4375 -1.453125 0.671875q-0.875 0.21875 -2.15625 0.21875l-5.09375 0zm1.78125 -7.7500305l2.875 0q1.1875 0 1.6875 -0.140625q0.671875 -0.203125 1.015625 -0.671875q0.34375 -0.46875 0.34375 -1.171875q0 -0.65625 -0.328125 -1.15625q-0.3125 -0.515625 -0.90625 -0.703125q-0.59375 -0.1875 -2.03125 -0.1875l-2.65625 0l0 4.03125zm0 6.171875l3.3125 0q0.859375 0 1.203125 -0.0625q0.609375 -0.109375 1.015625 -0.359375q0.421875 -0.265625 0.6875 -0.75q0.265625 -0.484375 0.265625 -1.125q0 -0.75 -0.390625 -1.296875q-0.375 -0.546875 -1.0625 -0.765625q-0.671875 -0.234375 -1.953125 -0.234375l-3.078125 0l0 4.59375zm16.865479 1.5781555l0 -1.421875q-1.125 1.640625 -3.0625 1.640625q-0.859375 0 -1.609375 -0.328125q-0.734375 -0.328125 -1.09375 -0.828125q-0.359375 -0.5 -0.5 -1.2187805q-0.109375 -0.46875 -0.109375 -1.53125l0 -5.984375l1.640625 0l0 5.359375q0 1.28125 0.109375 1.734375q0.15625 0.640625 0.65625 1.015625q0.5 0.37503052 1.234375 0.37503052q0.734375 0 1.375 -0.37503052q0.65625 -0.390625 0.921875 -1.03125q0.265625 -0.65625 0.265625 -1.890625l0 -5.1875l1.640625 0l0 9.6719055l-1.46875 0zm4.0475464 -11.4687805l0 -1.890625l1.640625 0l0 1.890625l-1.640625 0zm0 11.4687805l0 -9.6719055l1.640625 0l0 9.6719055l-1.640625 0zm4.0979614 0l0 -13.3594055l1.640625 0l0 13.3594055l-1.640625 0zm10.457336 0l0 -1.21875q-0.90625 1.4375 -2.703125 1.4375q-1.15625 0 -2.125 -0.640625q-0.96875 -0.640625 -1.5 -1.7812805q-0.53125 -1.140625 -0.53125 -2.625q0 -1.453125 0.484375 -2.625q0.484375 -1.1875 1.4375 -1.8125q0.96875 -0.625 2.171875 -0.625q0.875 0 1.546875 0.375q0.6875 0.359375 1.109375 0.953125l0 -4.796875l1.640625 0l0 13.3594055l-1.53125 0zm-5.171875 -4.8281555q0 1.859375 0.78125 2.78125q0.78125 0.9219055 1.84375 0.9219055q1.078125 0 1.828125 -0.8750305q0.75 -0.890625 0.75 -2.6875q0 -1.984375 -0.765625 -2.90625q-0.765625 -0.9375 -1.890625 -0.9375q-1.078125 0 -1.8125 0.890625q-0.734375 0.890625 -0.734375 2.8125zm14.668396 4.8281555l0 -13.3594055l4.609375 0q1.546875 0 2.375 0.203125q1.140625 0.25 1.953125 0.953125q1.0625 0.890625 1.578125 2.28125q0.53125 1.390625 0.53125 3.171875q0 1.515625 -0.359375 2.703125q-0.359375 1.171875 -0.921875 1.9375q-0.546875 0.7656555 -1.203125 1.2187805q-0.65625 0.4375 -1.59375 0.671875q-0.9375 0.21875 -2.140625 0.21875l-4.828125 0zm1.765625 -1.5781555l2.859375 0q1.3125 0 2.0625 -0.234375q0.75 -0.25 1.203125 -0.703125q0.625 -0.625 0.96875 -1.6875q0.359375 -1.0625 0.359375 -2.578125q0 -2.09375 -0.6875 -3.21875q-0.6875 -1.125 -1.671875 -1.5q-0.703125 -0.28125 -2.28125 -0.28125l-2.8125 0l0 10.203125zm17.816711 0.39065552q-0.921875 0.765625 -1.765625 1.09375q-0.828125 0.3125 -1.796875 0.3125q-1.59375 0 -2.453125 -0.78125q-0.859375 -0.78125 -0.859375 -1.9844055q0 -0.71875 0.328125 -1.296875q0.328125 -0.59375 0.84375 -0.9375q0.53125 -0.359375 1.1875 -0.546875q0.46875 -0.125 1.453125 -0.25q1.984375 -0.234375 2.921875 -0.5625q0.015625 -0.34375 0.015625 -0.421875q0 -1.0 -0.46875 -1.421875q-0.625 -0.546875 -1.875 -0.546875q-1.15625 0 -1.703125 0.40625q-0.546875 0.40625 -0.8125 1.421875l-1.609375 -0.21875q0.21875 -1.015625 0.71875 -1.640625q0.5 -0.640625 1.453125 -0.984375q0.953125 -0.34375 2.1875 -0.34375q1.25 0 2.015625 0.296875q0.78125 0.28125 1.140625 0.734375q0.375 0.4375 0.515625 1.109375q0.078125 0.421875 0.078125 1.515625l0 2.1875q0 2.28125 0.109375 2.8906555q0.109375 0.59375 0.40625 1.15625l-1.703125 0q-0.265625 -0.515625 -0.328125 -1.1875zm-0.140625 -3.6719055q-0.890625 0.375 -2.671875 0.625q-1.015625 0.140625 -1.4375 0.328125q-0.421875 0.1875 -0.65625 0.53125q-0.21875 0.34375 -0.21875 0.78125q0 0.65625 0.5 1.09375q0.5 0.43753052 1.453125 0.43753052q0.9375 0 1.671875 -0.40625q0.75 -0.42190552 1.09375 -1.1406555q0.265625 -0.5625 0.265625 -1.640625l0 -0.609375zm10.828796 1.75l1.6875 0.203125q-0.40625 1.4844055 -1.484375 2.3125305q-1.078125 0.8125 -2.765625 0.8125q-2.125 0 -3.375 -1.296875q-1.234375 -1.3125305 -1.234375 -3.6719055q0 -2.453125 1.25 -3.796875q1.265625 -1.34375 3.265625 -1.34375q1.9375 0 3.15625 1.328125q1.234375 1.3125 1.234375 3.703125q0 0.15625 0 0.4375l-7.21875 0q0.09375 1.59375 0.90625 2.453125q0.8125 0.8437805 2.015625 0.8437805q0.90625 0 1.546875 -0.46878052q0.640625 -0.484375 1.015625 -1.515625zm-5.390625 -2.65625l5.40625 0q-0.109375 -1.21875 -0.625 -1.828125q-0.78125 -0.953125 -2.03125 -0.953125q-1.125 0 -1.90625 0.765625q-0.765625 0.75 -0.84375 2.015625zm9.141357 5.7656555l0 -9.6719055l1.46875 0l0 1.359375q0.453125 -0.71875 1.203125 -1.140625q0.765625 -0.4375 1.71875 -0.4375q1.078125 0 1.765625 0.453125q0.6875 0.4375 0.96875 1.234375q1.15625 -1.6875 2.984375 -1.6875q1.453125 0 2.21875 0.796875q0.78125 0.796875 0.78125 2.453125l0 6.6406555l-1.640625 0l0 -6.0937805q0 -0.984375 -0.15625 -1.40625q-0.15625 -0.4375 -0.578125 -0.703125q-0.421875 -0.265625 -0.984375 -0.265625q-1.015625 0 -1.6875 0.6875q-0.671875 0.671875 -0.671875 2.15625l0 5.6250305l-1.640625 0l0 -6.2812805q0 -1.09375 -0.40625 -1.640625q-0.40625 -0.546875 -1.3125 -0.546875q-0.6875 0 -1.28125 0.359375q-0.59375 0.359375 -0.859375 1.0625q-0.25 0.703125 -0.25 2.03125l0 5.0156555l-1.640625 0zm14.9314575 -4.8437805q0 -2.6875 1.484375 -3.96875q1.25 -1.078125 3.046875 -1.078125q2.0 0 3.265625 1.3125q1.265625 1.296875 1.265625 3.609375q0 1.859375 -0.5625 2.9375q-0.5625 1.0625305 -1.640625 1.6562805q-1.0625 0.59375 -2.328125 0.59375q-2.03125 0 -3.28125 -1.296875q-1.25 -1.3125305 -1.25 -3.7656555zm1.6875 0q0 1.859375 0.796875 2.796875q0.8125 0.9219055 2.046875 0.9219055q1.21875 0 2.03125 -0.9219055q0.8125 -0.9375 0.8125 -2.84375q0 -1.796875 -0.8125 -2.71875q-0.8125 -0.921875 -2.03125 -0.921875q-1.234375 0 -2.046875 0.921875q-0.796875 0.90625 -0.796875 2.765625zm9.297546 4.8437805l0 -9.6719055l1.46875 0l0 1.375q1.0625 -1.59375 3.078125 -1.59375q0.875 0 1.609375 0.3125q0.734375 0.3125 1.09375 0.828125q0.375 0.5 0.515625 1.203125q0.09375 0.453125 0.09375 1.59375l0 5.9531555l-1.640625 0l0 -5.8906555q0 -1.0 -0.203125 -1.484375q-0.1875 -0.5 -0.671875 -0.796875q-0.484375 -0.296875 -1.140625 -0.296875q-1.046875 0 -1.8125 0.671875q-0.75 0.65625 -0.75 2.515625l0 5.2812805l-1.640625 0z" fill-rule="nonzero"/><path fill="#b6d7a8" d="m524.5076 353.2047l218.96063 0l0 306.70868l-218.96063 0z" fill-rule="evenodd"/><path fill="#000000" d="m576.755 513.47906l0 -13.3594055l5.015625 0q1.53125 0 2.453125 0.40625q0.921875 0.40625 1.4375 1.25q0.53125 0.84375 0.53125 1.765625q0 0.859375 -0.46875 1.625q-0.453125 0.75 -1.390625 1.203125q1.203125 0.359375 1.859375 1.21875q0.65625 0.859375 0.65625 2.015625q0 0.9375 -0.40625 1.75q-0.390625 0.7969055 -0.984375 1.2344055q-0.578125 0.4375 -1.453125 0.671875q-0.875 0.21875 -2.15625 0.21875l-5.09375 0zm1.78125 -7.7500305l2.875 0q1.1875 0 1.6875 -0.140625q0.671875 -0.203125 1.015625 -0.671875q0.34375 -0.46875 0.34375 -1.171875q0 -0.65625 -0.328125 -1.15625q-0.3125 -0.515625 -0.90625 -0.703125q-0.59375 -0.1875 -2.03125 -0.1875l-2.65625 0l0 4.03125zm0 6.171875l3.3125 0q0.859375 0 1.203125 -0.0625q0.609375 -0.109375 1.015625 -0.359375q0.421875 -0.265625 0.6875 -0.75q0.265625 -0.484375 0.265625 -1.125q0 -0.75 -0.390625 -1.296875q-0.375 -0.546875 -1.0625 -0.765625q-0.671875 -0.234375 -1.953125 -0.234375l-3.078125 0l0 4.59375zm16.865479 1.5781555l0 -1.421875q-1.125 1.640625 -3.0625 1.640625q-0.859375 0 -1.609375 -0.328125q-0.734375 -0.328125 -1.09375 -0.828125q-0.359375 -0.5 -0.5 -1.2187805q-0.109375 -0.46875 -0.109375 -1.53125l0 -5.984375l1.640625 0l0 5.359375q0 1.28125 0.109375 1.734375q0.15625 0.640625 0.65625 1.015625q0.5 0.37503052 1.234375 0.37503052q0.734375 0 1.375 -0.37503052q0.65625 -0.390625 0.921875 -1.03125q0.265625 -0.65625 0.265625 -1.890625l0 -5.1875l1.640625 0l0 9.6719055l-1.46875 0zm4.0476074 -11.4687805l0 -1.890625l1.640625 0l0 1.890625l-1.640625 0zm0 11.4687805l0 -9.6719055l1.640625 0l0 9.6719055l-1.640625 0zm4.0979004 0l0 -13.3594055l1.640625 0l0 13.3594055l-1.640625 0zm10.457336 0l0 -1.21875q-0.90625 1.4375 -2.703125 1.4375q-1.15625 0 -2.125 -0.640625q-0.96875 -0.640625 -1.5 -1.7812805q-0.53125 -1.140625 -0.53125 -2.625q0 -1.453125 0.484375 -2.625q0.484375 -1.1875 1.4375 -1.8125q0.96875 -0.625 2.171875 -0.625q0.875 0 1.546875 0.375q0.6875 0.359375 1.109375 0.953125l0 -4.796875l1.640625 0l0 13.3594055l-1.53125 0zm-5.171875 -4.8281555q0 1.859375 0.78125 2.78125q0.78125 0.9219055 1.84375 0.9219055q1.078125 0 1.828125 -0.8750305q0.75 -0.890625 0.75 -2.6875q0 -1.984375 -0.765625 -2.90625q-0.765625 -0.9375 -1.890625 -0.9375q-1.078125 0 -1.8125 0.890625q-0.734375 0.890625 -0.734375 2.8125zm14.668396 4.8281555l0 -13.3594055l4.609375 0q1.546875 0 2.375 0.203125q1.140625 0.25 1.953125 0.953125q1.0625 0.890625 1.578125 2.28125q0.53125 1.390625 0.53125 3.171875q0 1.515625 -0.359375 2.703125q-0.359375 1.171875 -0.921875 1.9375q-0.546875 0.7656555 -1.203125 1.2187805q-0.65625 0.4375 -1.59375 0.671875q-0.9375 0.21875 -2.140625 0.21875l-4.828125 0zm1.765625 -1.5781555l2.859375 0q1.3125 0 2.0625 -0.234375q0.75 -0.25 1.203125 -0.703125q0.625 -0.625 0.96875 -1.6875q0.359375 -1.0625 0.359375 -2.578125q0 -2.09375 -0.6875 -3.21875q-0.6875 -1.125 -1.671875 -1.5q-0.703125 -0.28125 -2.28125 -0.28125l-2.8125 0l0 10.203125zm17.816711 0.39065552q-0.921875 0.765625 -1.765625 1.09375q-0.828125 0.3125 -1.796875 0.3125q-1.59375 0 -2.453125 -0.78125q-0.859375 -0.78125 -0.859375 -1.9844055q0 -0.71875 0.328125 -1.296875q0.328125 -0.59375 0.84375 -0.9375q0.53125 -0.359375 1.1875 -0.546875q0.46875 -0.125 1.453125 -0.25q1.984375 -0.234375 2.921875 -0.5625q0.015625 -0.34375 0.015625 -0.421875q0 -1.0 -0.46875 -1.421875q-0.625 -0.546875 -1.875 -0.546875q-1.15625 0 -1.703125 0.40625q-0.546875 0.40625 -0.8125 1.421875l-1.609375 -0.21875q0.21875 -1.015625 0.71875 -1.640625q0.5 -0.640625 1.453125 -0.984375q0.953125 -0.34375 2.1875 -0.34375q1.25 0 2.015625 0.296875q0.78125 0.28125 1.140625 0.734375q0.375 0.4375 0.515625 1.109375q0.078125 0.421875 0.078125 1.515625l0 2.1875q0 2.28125 0.109375 2.8906555q0.109375 0.59375 0.40625 1.15625l-1.703125 0q-0.265625 -0.515625 -0.328125 -1.1875zm-0.140625 -3.6719055q-0.890625 0.375 -2.671875 0.625q-1.015625 0.140625 -1.4375 0.328125q-0.421875 0.1875 -0.65625 0.53125q-0.21875 0.34375 -0.21875 0.78125q0 0.65625 0.5 1.09375q0.5 0.43753052 1.453125 0.43753052q0.9375 0 1.671875 -0.40625q0.75 -0.42190552 1.09375 -1.1406555q0.265625 -0.5625 0.265625 -1.640625l0 -0.609375zm10.828857 1.75l1.6875 0.203125q-0.40625 1.4844055 -1.484375 2.3125305q-1.078125 0.8125 -2.765625 0.8125q-2.125 0 -3.375 -1.296875q-1.234375 -1.3125305 -1.234375 -3.6719055q0 -2.453125 1.25 -3.796875q1.265625 -1.34375 3.265625 -1.34375q1.9375 0 3.15625 1.328125q1.234375 1.3125 1.234375 3.703125q0 0.15625 0 0.4375l-7.21875 0q0.09375 1.59375 0.90625 2.453125q0.8125 0.8437805 2.015625 0.8437805q0.90625 0 1.546875 -0.46878052q0.640625 -0.484375 1.015625 -1.515625zm-5.390625 -2.65625l5.40625 0q-0.109375 -1.21875 -0.625 -1.828125q-0.78125 -0.953125 -2.03125 -0.953125q-1.125 0 -1.90625 0.765625q-0.765625 0.75 -0.84375 2.015625zm9.141296 5.7656555l0 -9.6719055l1.46875 0l0 1.359375q0.453125 -0.71875 1.203125 -1.140625q0.765625 -0.4375 1.71875 -0.4375q1.078125 0 1.765625 0.453125q0.6875 0.4375 0.96875 1.234375q1.15625 -1.6875 2.984375 -1.6875q1.453125 0 2.21875 0.796875q0.78125 0.796875 0.78125 2.453125l0 6.6406555l-1.640625 0l0 -6.0937805q0 -0.984375 -0.15625 -1.40625q-0.15625 -0.4375 -0.578125 -0.703125q-0.421875 -0.265625 -0.984375 -0.265625q-1.015625 0 -1.6875 0.6875q-0.671875 0.671875 -0.671875 2.15625l0 5.6250305l-1.640625 0l0 -6.2812805q0 -1.09375 -0.40625 -1.640625q-0.40625 -0.546875 -1.3125 -0.546875q-0.6875 0 -1.28125 0.359375q-0.59375 0.359375 -0.859375 1.0625q-0.25 0.703125 -0.25 2.03125l0 5.0156555l-1.640625 0zm14.9314575 -4.8437805q0 -2.6875 1.484375 -3.96875q1.25 -1.078125 3.046875 -1.078125q2.0 0 3.265625 1.3125q1.265625 1.296875 1.265625 3.609375q0 1.859375 -0.5625 2.9375q-0.5625 1.0625305 -1.640625 1.6562805q-1.0625 0.59375 -2.328125 0.59375q-2.03125 0 -3.28125 -1.296875q-1.25 -1.3125305 -1.25 -3.7656555zm1.6875 0q0 1.859375 0.796875 2.796875q0.8125 0.9219055 2.046875 0.9219055q1.21875 0 2.03125 -0.9219055q0.8125 -0.9375 0.8125 -2.84375q0 -1.796875 -0.8125 -2.71875q-0.8125 -0.921875 -2.03125 -0.921875q-1.234375 0 -2.046875 0.921875q-0.796875 0.90625 -0.796875 2.765625zm9.297607 4.8437805l0 -9.6719055l1.46875 0l0 1.375q1.0625 -1.59375 3.078125 -1.59375q0.875 0 1.609375 0.3125q0.734375 0.3125 1.09375 0.828125q0.375 0.5 0.515625 1.203125q0.09375 0.453125 0.09375 1.59375l0 5.9531555l-1.640625 0l0 -5.8906555q0 -1.0 -0.203125 -1.484375q-0.1875 -0.5 -0.671875 -0.796875q-0.484375 -0.296875 -1.140625 -0.296875q-1.046875 0 -1.8125 0.671875q-0.75 0.65625 -0.75 2.515625l0 5.2812805l-1.640625 0z" fill-rule="nonzero"/><path fill="#93c47d" d="m0.002624672 659.9239l960.0 0l0 60.07611l-960.0 0z" fill-rule="evenodd"/><path fill="#000000" d="m443.0644 696.88196l0 -13.359375l1.8125 0l7.015625 10.484375l0 -10.484375l1.6875 0l0 13.359375l-1.8125 0l-7.015625 -10.5l0 10.5l-1.6875 0zm13.285461 -11.46875l0 -1.890625l1.640625 0l0 1.890625l-1.640625 0zm0 11.46875l0 -9.671875l1.640625 0l0 9.671875l-1.640625 0zm3.051056 0l3.53125 -5.03125l-3.265625 -4.640625l2.046875 0l1.484375 2.265625q0.421875 0.640625 0.671875 1.078125q0.40625 -0.59375 0.734375 -1.0625l1.640625 -2.28125l1.953125 0l-3.34375 4.546875l3.59375 5.125l-2.015625 0l-1.984375 -3.0l-0.515625 -0.8125l-2.546875 3.8125l-1.984375 0zm15.214569 -4.296875l1.65625 -0.140625q0.125 1.0 0.546875 1.640625q0.4375 0.640625 1.34375 1.046875q0.921875 0.390625 2.0625 0.390625q1.0 0 1.78125 -0.296875q0.78125 -0.296875 1.15625 -0.8125q0.375 -0.53125 0.375 -1.15625q0 -0.625 -0.375 -1.09375q-0.359375 -0.46875 -1.1875 -0.796875q-0.546875 -0.203125 -2.390625 -0.640625q-1.828125 -0.453125 -2.5625 -0.84375q-0.96875 -0.5 -1.4375 -1.234375q-0.46875 -0.75 -0.46875 -1.671875q0 -1.0 0.578125 -1.875q0.578125 -0.890625 1.671875 -1.34375q1.109375 -0.453125 2.453125 -0.453125q1.484375 0 2.609375 0.484375q1.140625 0.46875 1.75 1.40625q0.609375 0.921875 0.65625 2.09375l-1.6875 0.125q-0.140625 -1.265625 -0.9375 -1.90625q-0.78125 -0.65625 -2.3125 -0.65625q-1.609375 0 -2.34375 0.59375q-0.734375 0.59375 -0.734375 1.421875q0 0.71875 0.53125 1.171875q0.5 0.46875 2.65625 0.96875q2.15625 0.484375 2.953125 0.84375q1.171875 0.53125 1.71875 1.359375q0.5625 0.828125 0.5625 1.90625q0 1.0625 -0.609375 2.015625q-0.609375 0.9375 -1.75 1.46875q-1.140625 0.515625 -2.578125 0.515625q-1.8125 0 -3.046875 -0.53125q-1.21875 -0.53125 -1.921875 -1.59375q-0.6875 -1.0625 -0.71875 -2.40625zm16.412292 2.828125l0.234375 1.453125q-0.6875 0.140625 -1.234375 0.140625q-0.890625 0 -1.390625 -0.28125q-0.484375 -0.28125 -0.6875 -0.734375q-0.203125 -0.46875 -0.203125 -1.9375l0 -5.578125l-1.203125 0l0 -1.265625l1.203125 0l0 -2.390625l1.625 -0.984375l0 3.375l1.65625 0l0 1.265625l-1.65625 0l0 5.671875q0 0.6875 0.078125 0.890625q0.09375 0.203125 0.28125 0.328125q0.203125 0.109375 0.578125 0.109375q0.265625 0 0.71875 -0.0625zm0.9958191 -3.375q0 -2.6875 1.484375 -3.96875q1.25 -1.078125 3.046875 -1.078125q2.0 0 3.265625 1.3125q1.265625 1.296875 1.265625 3.609375q0 1.859375 -0.5625 2.9375q-0.5625 1.0625 -1.640625 1.65625q-1.0625 0.59375 -2.328125 0.59375q-2.03125 0 -3.28125 -1.296875q-1.25 -1.3125 -1.25 -3.765625zm1.6875 0q0 1.859375 0.796875 2.796875q0.8125 0.921875 2.046875 0.921875q1.21875 0 2.03125 -0.921875q0.8125 -0.9375 0.8125 -2.84375q0 -1.796875 -0.8125 -2.71875q-0.8125 -0.921875 -2.03125 -0.921875q-1.234375 0 -2.046875 0.921875q-0.796875 0.90625 -0.796875 2.765625zm9.281952 4.84375l0 -9.671875l1.46875 0l0 1.46875q0.5625 -1.03125 1.03125 -1.359375q0.484375 -0.328125 1.0625 -0.328125q0.828125 0 1.6875 0.53125l-0.5625 1.515625q-0.609375 -0.359375 -1.203125 -0.359375q-0.546875 0 -0.96875 0.328125q-0.421875 0.328125 -0.609375 0.890625q-0.28125 0.875 -0.28125 1.921875l0 5.0625l-1.625 0zm12.8533325 -3.109375l1.6875 0.203125q-0.40625 1.484375 -1.484375 2.3125q-1.078125 0.8125 -2.765625 0.8125q-2.125 0 -3.375 -1.296875q-1.234375 -1.3125 -1.234375 -3.671875q0 -2.453125 1.25 -3.796875q1.265625 -1.34375 3.265625 -1.34375q1.9375 0 3.15625 1.328125q1.234375 1.3125 1.234375 3.703125q0 0.15625 0 0.4375l-7.21875 0q0.09375 1.59375 0.90625 2.453125q0.8125 0.84375 2.015625 0.84375q0.90625 0 1.546875 -0.46875q0.640625 -0.484375 1.015625 -1.515625zm-5.390625 -2.65625l5.40625 0q-0.109375 -1.21875 -0.625 -1.828125q-0.78125 -0.953125 -2.03125 -0.953125q-1.125 0 -1.90625 0.765625q-0.765625 0.75 -0.84375 2.015625z" fill-rule="nonzero"/><path fill="#d9ead3" d="m10.694225 580.42126l0 0c0 -13.307007 10.78747 -24.094482 24.09449 -24.094482l0 0c6.390255 0 12.51878 2.5385132 17.037376 7.057129c4.518593 4.5185547 7.05711 10.647095 7.05711 17.037354l0 0c0 13.307007 -10.787468 24.094482 -24.094486 24.094482l0 0c-13.30702 0 -24.09449 -10.787476 -24.09449 -24.094482z" fill-rule="evenodd"/><path fill="#d9ead3" d="m78.663666 618.0131l0 0c0 -13.307007 10.787468 -24.094482 24.09449 -24.094482l0 0c6.390251 0 12.518784 2.5385132 17.037376 7.057129c4.518593 4.5185547 7.0571136 10.647095 7.0571136 17.037354l0 0c0 13.307007 -10.787476 24.094482 -24.09449 24.094482l0 0c-13.307022 0 -24.09449 -10.787476 -24.09449 -24.094482z" fill-rule="evenodd"/><path fill="#d9ead3" d="m157.86801 559.4199l0 0c0 -13.307007 10.787476 -24.094482 24.094498 -24.094482l0 0c6.3902435 0 12.518784 2.5385132 17.037369 7.057129c4.5186005 4.5186157 7.0571136 10.647095 7.0571136 17.037354l0 0c0 13.307068 -10.787476 24.094543 -24.094482 24.094543l0 0c-13.307022 0 -24.094498 -10.787476 -24.094498 -24.094543z" fill-rule="evenodd"/><path fill="#d9ead3" d="m548.9175 613.9055l0 0c0 -13.307007 10.787476 -24.094482 24.094543 -24.094482l0 0c6.390259 0 12.518738 2.5385132 17.037354 7.057129c4.5186157 4.5185547 7.057129 10.647095 7.057129 17.037354l0 0c0 13.307007 -10.787476 24.094482 -24.094482 24.094482l0 0c-13.307068 0 -24.094543 -10.787476 -24.094543 -24.094482z" fill-rule="evenodd"/><path fill="#d9ead3" d="m643.5497 565.9055l0 0c0 -13.307007 10.787476 -24.094482 24.094482 -24.094482l0 0c6.390259 0 12.518799 2.5385132 17.037354 7.057129c4.5186157 4.5185547 7.057129 10.647095 7.057129 17.037354l0 0c0 13.307007 -10.787476 24.094482 -24.094482 24.094482l0 0c-13.307007 0 -24.094482 -10.787476 -24.094482 -24.094482z" fill-rule="evenodd"/><path fill="#d9ead3" d="m694.54144 621.7192l0 0c0 -13.307007 10.787476 -24.094482 24.094482 -24.094482l0 0c6.390259 0 12.518799 2.5385132 17.037354 7.057068c4.5186157 4.5186157 7.057129 10.647156 7.057129 17.037415l0 0c0 13.307007 -10.787476 24.094482 -24.094482 24.094482l0 0c-13.307007 0 -24.094482 -10.787476 -24.094482 -24.094482z" fill-rule="evenodd"/><path fill="#d9ead3" d="m759.0476 559.4199l0 0c0 -13.307007 10.787476 -24.094482 24.094482 -24.094482l0 0c6.390259 0 12.518799 2.5385132 17.037415 7.057129c4.5185547 4.5186157 7.057068 10.647095 7.057068 17.037354l0 0c0 13.307068 -10.787476 24.094543 -24.094482 24.094543l0 0c-13.307007 0 -24.094482 -10.787476 -24.094482 -24.094543z" fill-rule="evenodd"/><path fill="#d9ead3" d="m884.8189 613.9055l0 0c0 -13.307007 10.787476 -24.094482 24.094482 -24.094482l0 0c6.390259 0 12.518799 2.5385132 17.037354 7.057129c4.5186157 4.5185547 7.057129 10.647095 7.057129 17.037354l0 0c0 13.307007 -10.787476 24.094482 -24.094482 24.094482l0 0c-13.307007 0 -24.094482 -10.787476 -24.094482 -24.094482z" fill-rule="evenodd"/><path fill="#d9ead3" d="m594.0859 462.43045l0 0c0 -13.307037 10.787476 -24.094482 24.094482 -24.094482l0 0c6.390259 0 12.518799 2.5385132 17.037354 7.0570984c4.5186157 4.518585 7.057129 10.647125 7.057129 17.037384l0 0c0 13.307007 -10.787476 24.094482 -24.094482 24.094482l0 0c-13.307007 0 -24.094482 -10.787476 -24.094482 -24.094482z" fill-rule="evenodd"/><path fill="#d9ead3" d="m9.145857 433.64304l0 0c0 -13.307007 10.78747 -24.094482 24.094488 -24.094482l0 0c6.390255 0 12.518784 2.5385132 17.037376 7.057129c4.518593 4.518585 7.05711 10.647095 7.05711 17.037354l0 0c0 13.307037 -10.787468 24.094482 -24.094486 24.094482l0 0c-13.307018 0 -24.094488 -10.787445 -24.094488 -24.094482z" fill-rule="evenodd"/><path fill="#d9ead3" d="m70.32396 469.03937l0 0c0 -13.307007 10.787468 -24.094482 24.09449 -24.094482l0 0c6.390251 0 12.518784 2.5385132 17.037376 7.0570984c4.518593 4.5186157 7.0571136 10.647125 7.0571136 17.037384l0 0c0 13.307007 -10.787476 24.094482 -24.09449 24.094482l0 0c-13.307022 0 -24.09449 -10.787476 -24.09449 -24.094482z" fill-rule="evenodd"/><path fill="#d9ead3" d="m78.66348 552.0079l0 0c0 -13.307007 10.787468 -24.094482 24.094482 -24.094482l0 0c6.390259 0 12.518784 2.5385132 17.037376 7.057129c4.518593 4.5185547 7.0571136 10.647095 7.0571136 17.037354l0 0c0 13.307007 -10.787468 24.094482 -24.09449 24.094482l0 0c-13.307014 0 -24.094482 -10.787476 -24.094482 -24.094482z" fill-rule="evenodd"/><path fill="#d9ead3" d="m535.2051 462.43045l0 0c0 -13.307037 10.787476 -24.094482 24.094482 -24.094482l0 0c6.390259 0 12.518799 2.5385132 17.037415 7.0570984c4.5185547 4.518585 7.057129 10.647125 7.057129 17.037384l0 0c0 13.307007 -10.787476 24.094482 -24.094543 24.094482l0 0c-13.307007 0 -24.094482 -10.787476 -24.094482 -24.094482z" fill-rule="evenodd"/><path fill="#d9ead3" d="m575.45667 548.6037l0 0c0 -13.307068 10.787476 -24.094482 24.094543 -24.094482l0 0c6.3901978 0 12.518738 2.5385132 17.037354 7.057068c4.5186157 4.5186157 7.057129 10.647156 7.057129 17.037415l0 0c0 13.307007 -10.787476 24.094482 -24.094482 24.094482l0 0c-13.307068 0 -24.094543 -10.787476 -24.094543 -24.094482z" fill-rule="evenodd"/><path fill="#d9ead3" d="m888.08026 406.08923l0 0c0 -13.307007 10.787476 -24.094482 24.094482 -24.094482l0 0c6.390259 0 12.518738 2.5385132 17.037354 7.0570984c4.5186157 4.5186157 7.057129 10.647125 7.057129 17.037384l0 0c0 13.307037 -10.787476 24.094482 -24.094482 24.094482l0 0c-13.307007 0 -24.094482 -10.787445 -24.094482 -24.094482z" fill-rule="evenodd"/><path fill="#d9ead3" d="m799.45386 621.7192l0 0c0 -13.307007 10.787476 -24.094482 24.094482 -24.094482l0 0c6.390259 0 12.518799 2.5385132 17.037415 7.057068c4.5185547 4.5186157 7.057129 10.647156 7.057129 17.037415l0 0c0 13.307007 -10.787476 24.094482 -24.094543 24.094482l0 0c-13.307007 0 -24.094482 -10.787476 -24.094482 -24.094482z" fill-rule="evenodd"/><path fill="#d9ead3" d="m144.985 613.9055l0 0c0 -13.307007 10.787476 -24.094482 24.094482 -24.094482l0 0c6.390259 0 12.518784 2.5385132 17.037384 7.057129c4.518585 4.5185547 7.0571136 10.647095 7.0571136 17.037354l0 0c0 13.307007 -10.787476 24.094482 -24.094498 24.094482l0 0c-13.307007 0 -24.094482 -10.787476 -24.094482 -24.094482z" fill-rule="evenodd"/><path fill="#d9ead3" d="m836.62994 558.8307l0 0c0 -13.307007 10.787476 -24.094482 24.094482 -24.094482l0 0c6.390259 0 12.518738 2.5385132 17.037354 7.057129c4.5186157 4.5186157 7.057129 10.647095 7.057129 17.037354l0 0c0 13.307068 -10.787476 24.094482 -24.094482 24.094482l0 0c-13.307007 0 -24.094482 -10.787415 -24.094482 -24.094482z" fill-rule="evenodd"/><path fill="#d9ead3" d="m813.2561 433.64304l0 0c0 -13.307007 10.787476 -24.094482 24.094482 -24.094482l0 0c6.390259 0 12.518799 2.5385132 17.037354 7.057129c4.5186157 4.518585 7.057129 10.647095 7.057129 17.037354l0 0c0 13.307037 -10.787476 24.094482 -24.094482 24.094482l0 0c-13.307007 0 -24.094482 -10.787445 -24.094482 -24.094482z" fill-rule="evenodd"/><path fill="#d9ead3" d="m670.8804 469.03937l0 0c0 -13.307007 10.787476 -24.094482 24.094482 -24.094482l0 0c6.390259 0 12.518799 2.5385132 17.037415 7.0570984c4.5185547 4.5186157 7.057068 10.647125 7.057068 17.037384l0 0c0 13.307007 -10.787415 24.094482 -24.094482 24.094482l0 0c-13.307007 0 -24.094482 -10.787476 -24.094482 -24.094482z" fill-rule="evenodd"/><path fill="#d9ead3" d="m86.004875 406.08923l0 0c0 -13.307007 10.787468 -24.094482 24.09449 -24.094482l0 0c6.390251 0 12.518784 2.5385132 17.037376 7.0570984c4.518593 4.5186157 7.057106 10.647125 7.057106 17.037384l0 0c0 13.307037 -10.787468 24.094482 -24.094482 24.094482l0 0c-13.307022 0 -24.09449 -10.787445 -24.09449 -24.094482z" fill-rule="evenodd"/><path fill="#d9ead3" d="m694.54126 406.08923l0 0c0 -13.307007 10.787476 -24.094482 24.094482 -24.094482l0 0c6.390259 0 12.518799 2.5385132 17.037354 7.0570984c4.5186157 4.5186157 7.057129 10.647125 7.057129 17.037384l0 0c0 13.307037 -10.787476 24.094482 -24.094482 24.094482l0 0c-13.307007 0 -24.094482 -10.787445 -24.094482 -24.094482z" fill-rule="evenodd"/><path fill="#d9ead3" d="m575.8279 407.33334l0 0c0 -13.307037 10.787476 -24.094513 24.094482 -24.094513l0 0c6.390259 0 12.518799 2.5385437 17.037415 7.057129c4.5185547 4.518585 7.057068 10.647125 7.057068 17.037384l0 0c0 13.307007 -10.787415 24.094482 -24.094482 24.094482l0 0c-13.307007 0 -24.094482 -10.787476 -24.094482 -24.094482z" fill-rule="evenodd"/><path fill="#d9ead3" d="m134.19498 455.5223l0 0c0 -13.307007 10.787476 -24.094482 24.094482 -24.094482l0 0c6.390259 0 12.518784 2.5385132 17.037384 7.0570984c4.518585 4.5186157 7.0571136 10.647125 7.0571136 17.037384l0 0c0 13.307007 -10.787476 24.094482 -24.094498 24.094482l0 0c-13.307007 0 -24.094482 -10.787476 -24.094482 -24.094482z" fill-rule="evenodd"/><path fill="#6aa84f" d="m8.338207 689.9619l0 0c0 -13.307007 10.78747 -24.094482 24.09449 -24.094482l0 0c6.390255 0 12.51878 2.5385132 17.037373 7.057129c4.5185966 4.5186157 7.0571136 10.647156 7.0571136 17.037354l0 0c0 13.307068 -10.787468 24.094543 -24.094486 24.094543l0 0c-13.30702 0 -24.09449 -10.787476 -24.09449 -24.094543z" fill-rule="evenodd"/><path fill="#6aa84f" d="m68.96288 689.9619l0 0c0 -13.307007 10.787468 -24.094482 24.094482 -24.094482l0 0c6.390259 0 12.518784 2.5385132 17.037376 7.057129c4.518593 4.5186157 7.0571136 10.647156 7.0571136 17.037354l0 0c0 13.307068 -10.787468 24.094543 -24.09449 24.094543l0 0c-13.307014 0 -24.094482 -10.787476 -24.094482 -24.094543z" fill-rule="evenodd"/><path fill="#6aa84f" d="m129.58755 689.96063l0 0c0 -13.307007 10.78746 -24.094482 24.094482 -24.094482l0 0c6.390259 0 12.518784 2.5385132 17.037384 7.057129c4.518585 4.5185547 7.0571136 10.647095 7.0571136 17.037354l0 0c0 13.307007 -10.787476 24.094482 -24.094498 24.094482l0 0c-13.307022 0 -24.094482 -10.787476 -24.094482 -24.094482z" fill-rule="evenodd"/><path fill="#6aa84f" d="m190.21222 689.9619l0 0c0 -13.307007 10.787476 -24.094482 24.094498 -24.094482l0 0c6.3902435 0 12.518784 2.5385132 17.037369 7.057129c4.5186005 4.5186157 7.0571136 10.647156 7.0571136 17.037354l0 0c0 13.307068 -10.787476 24.094543 -24.094482 24.094543l0 0c-13.307022 0 -24.094498 -10.787476 -24.094498 -24.094543z" fill-rule="evenodd"/><path fill="#6aa84f" d="m250.8369 690.1352l0 0c0 -13.307068 10.78746 -24.094482 24.094498 -24.094482l0 0c6.3902283 0 12.518768 2.5385132 17.037354 7.057068c4.5186157 4.5186157 7.057129 10.647156 7.057129 17.037415l0 0c0 13.307007 -10.787476 24.094482 -24.094482 24.094482l0 0c-13.307037 0 -24.094498 -10.787476 -24.094498 -24.094482z" fill-rule="evenodd"/><path fill="#6aa84f" d="m311.46158 690.1352l0 0c0 -13.307068 10.787445 -24.094482 24.094482 -24.094482l0 0c6.390259 0 12.518768 2.5385132 17.037384 7.057068c4.518585 4.5186157 7.0570984 10.647156 7.0570984 17.037415l0 0c0 13.307007 -10.787476 24.094482 -24.094482 24.094482l0 0c-13.307037 0 -24.094482 -10.787476 -24.094482 -24.094482z" fill-rule="evenodd"/><path fill="#6aa84f" d="m372.08624 690.1352l0 0c0 -13.307068 10.787476 -24.094482 24.094482 -24.094482l0 0c6.390259 0 12.518799 2.5385132 17.037384 7.057068c4.518585 4.5186157 7.0570984 10.647156 7.0570984 17.037415l0 0c0 13.307007 -10.787476 24.094482 -24.094482 24.094482l0 0c-13.307007 0 -24.094482 -10.787476 -24.094482 -24.094482z" fill-rule="evenodd"/><path fill="#6aa84f" d="m536.7687 689.874l0 0c0 -13.307007 10.787476 -24.094482 24.094482 -24.094482l0 0c6.390259 0 12.518738 2.5385132 17.037354 7.057129c4.5186157 4.5185547 7.057129 10.647095 7.057129 17.037354l0 0c0 13.307007 -10.787476 24.094482 -24.094482 24.094482l0 0c-13.307007 0 -24.094482 -10.787476 -24.094482 -24.094482z" fill-rule="evenodd"/><path fill="#6aa84f" d="m597.3933 689.874l0 0c0 -13.307007 10.787476 -24.094482 24.094482 -24.094482l0 0c6.390259 0 12.518799 2.5385132 17.037415 7.057129c4.5185547 4.5185547 7.057068 10.647095 7.057068 17.037354l0 0c0 13.307007 -10.787415 24.094482 -24.094482 24.094482l0 0c-13.307007 0 -24.094482 -10.787476 -24.094482 -24.094482z" fill-rule="evenodd"/><path fill="#6aa84f" d="m658.018 689.8727l0 0c0 -13.307007 10.787476 -24.094482 24.094482 -24.094482l0 0c6.390259 0 12.518799 2.5385132 17.037354 7.057129c4.5186157 4.5186157 7.057129 10.647095 7.057129 17.037354l0 0c0 13.307068 -10.787476 24.094482 -24.094482 24.094482l0 0c-13.307007 0 -24.094482 -10.787415 -24.094482 -24.094482z" fill-rule="evenodd"/><path fill="#6aa84f" d="m718.64264 689.874l0 0c0 -13.307007 10.787476 -24.094482 24.094543 -24.094482l0 0c6.390259 0 12.518738 2.5385132 17.037354 7.057129c4.5186157 4.5185547 7.057129 10.647095 7.057129 17.037354l0 0c0 13.307007 -10.787476 24.094482 -24.094482 24.094482l0 0c-13.307068 0 -24.094543 -10.787476 -24.094543 -24.094482z" fill-rule="evenodd"/><path fill="#6aa84f" d="m779.26733 690.04724l0 0c0 -13.307007 10.787476 -24.094482 24.094482 -24.094482l0 0c6.390259 0 12.518799 2.5385132 17.037415 7.057129c4.5185547 4.5185547 7.057068 10.647095 7.057068 17.037354l0 0c0 13.307007 -10.787476 24.094482 -24.094482 24.094482l0 0c-13.307007 0 -24.094482 -10.787476 -24.094482 -24.094482z" fill-rule="evenodd"/><path fill="#6aa84f" d="m839.892 690.04724l0 0c0 -13.307007 10.787476 -24.094482 24.094482 -24.094482l0 0c6.390259 0 12.518799 2.5385132 17.037354 7.057129c4.5186157 4.5185547 7.057129 10.647095 7.057129 17.037354l0 0c0 13.307007 -10.787476 24.094482 -24.094482 24.094482l0 0c-13.307007 0 -24.094482 -10.787476 -24.094482 -24.094482z" fill-rule="evenodd"/><path fill="#6aa84f" d="m900.51666 690.04724l0 0c0 -13.307007 10.787476 -24.094482 24.094482 -24.094482l0 0c6.390259 0 12.518799 2.5385132 17.037415 7.057129c4.5185547 4.5185547 7.057129 10.647095 7.057129 17.037354l0 0c0 13.307007 -10.787476 24.094482 -24.094543 24.094482l0 0c-13.307007 0 -24.094482 -10.787476 -24.094482 -24.094482z" fill-rule="evenodd"/><path fill="#000000" fill-opacity="0.0" d="m0 0l960.0 0l0 66.86614l-960.0 0z" fill-rule="evenodd"/><path fill="#000000" d="m255.57422 55.079998l0 -34.359375l11.84375 0q4.0 0 6.109375 0.484375q2.953125 0.6875 5.046875 2.46875q2.71875 2.296875 4.0625 5.875q1.34375 3.5625 1.34375 8.15625q0 3.921875 -0.921875 6.953125q-0.90625 3.015625 -2.34375 5.0q-1.421875 1.96875 -3.125 3.109375q-1.6875 1.140625 -4.09375 1.734375q-2.40625 0.578125 -5.515625 0.578125l-12.40625 0zm4.546875 -4.0625l7.34375 0q3.390625 0 5.328125 -0.625q1.9375 -0.640625 3.078125 -1.78125q1.625 -1.625 2.515625 -4.34375q0.90625 -2.734375 0.90625 -6.625q0 -5.390625 -1.765625 -8.28125q-1.765625 -2.90625 -4.296875 -3.890625q-1.828125 -0.703125 -5.890625 -0.703125l-7.21875 0l0 26.25zm29.601562 -25.453125l0 -4.84375l4.21875 0l0 4.84375l-4.21875 0zm0 29.515625l0 -24.890625l4.21875 0l0 24.890625l-4.21875 0zm8.9609375 -7.4375l4.171875 -0.65625q0.34375 2.515625 1.953125 3.859375q1.609375 1.328125 4.484375 1.328125q2.90625 0 4.3125 -1.1875q1.40625 -1.1875 1.40625 -2.78125q0 -1.421875 -1.234375 -2.25q-0.875 -0.5625 -4.3125 -1.421875q-4.640625 -1.171875 -6.4375 -2.03125q-1.796875 -0.859375 -2.71875 -2.359375q-0.921875 -1.515625 -0.921875 -3.34375q0 -1.671875 0.75 -3.078125q0.765625 -1.421875 2.078125 -2.359375q0.984375 -0.734375 2.6875 -1.234375q1.703125 -0.5 3.640625 -0.5q2.9375 0 5.140625 0.84375q2.21875 0.84375 3.265625 2.28125q1.0625 1.4375 1.46875 3.859375l-4.125 0.5625q-0.28125 -1.921875 -1.640625 -3.0q-1.34375 -1.078125 -3.796875 -1.078125q-2.90625 0 -4.15625 0.96875q-1.234375 0.953125 -1.234375 2.234375q0 0.828125 0.515625 1.484375q0.515625 0.671875 1.609375 1.125q0.640625 0.234375 3.734375 1.078125q4.46875 1.1875 6.234375 1.953125q1.78125 0.765625 2.78125 2.21875q1.015625 1.453125 1.015625 3.609375q0 2.109375 -1.234375 3.96875q-1.234375 1.859375 -3.5625 2.890625q-2.3125 1.015625 -5.234375 1.015625q-4.859375 0 -7.40625 -2.015625q-2.53125 -2.015625 -3.234375 -5.984375zm34.890625 3.65625l0.609375 3.734375q-1.78125 0.375 -3.1875 0.375q-2.296875 0 -3.5625 -0.71875q-1.265625 -0.734375 -1.78125 -1.921875q-0.515625 -1.1875 -0.515625 -4.984375l0 -14.3125l-3.09375 0l0 -3.28125l3.09375 0l0 -6.171875l4.203125 -2.53125l0 8.703125l4.234375 0l0 3.28125l-4.234375 0l0 14.546875q0 1.8125 0.21875 2.328125q0.21875 0.515625 0.71875 0.828125q0.515625 0.296875 1.453125 0.296875q0.703125 0 1.84375 -0.171875zm4.0859375 3.78125l0 -24.890625l3.796875 0l0 3.765625q1.453125 -2.640625 2.671875 -3.484375q1.234375 -0.84375 2.71875 -0.84375q2.125 0 4.328125 1.359375l-1.453125 3.90625q-1.546875 -0.90625 -3.09375 -0.90625q-1.375 0 -2.484375 0.828125q-1.09375 0.828125 -1.5625 2.3125q-0.703125 2.25 -0.703125 4.921875l0 13.03125l-4.21875 0zm16.046875 -29.515625l0 -4.84375l4.21875 0l0 4.84375l-4.21875 0zm0 29.515625l0 -24.890625l4.21875 0l0 24.890625l-4.21875 0zm14.5390625 0l-3.921875 0l0 -34.359375l4.21875 0l0 12.25q2.671875 -3.34375 6.828125 -3.34375q2.296875 0 4.34375 0.921875q2.046875 0.921875 3.375 2.609375q1.328125 1.671875 2.078125 4.046875q0.75 2.359375 0.75 5.046875q0 6.40625 -3.171875 9.90625q-3.15625 3.484375 -7.59375 3.484375q-4.40625 0 -6.90625 -3.6875l0 3.125zm-0.046875 -12.640625q0 4.484375 1.21875 6.46875q1.984375 3.265625 5.390625 3.265625q2.765625 0 4.78125 -2.40625q2.015625 -2.40625 2.015625 -7.15625q0 -4.875 -1.9375 -7.1875q-1.9375 -2.328125 -4.671875 -2.328125q-2.765625 0 -4.78125 2.40625q-2.015625 2.390625 -2.015625 6.9375zm39.164062 12.640625l0 -3.65625q-2.90625 4.21875 -7.90625 4.21875q-2.203125 0 -4.109375 -0.84375q-1.90625 -0.84375 -2.84375 -2.125q-0.921875 -1.28125 -1.296875 -3.125q-0.25 -1.25 -0.25 -3.9375l0 -15.421875l4.21875 0l0 13.796875q0 3.3125 0.25 4.453125q0.40625 1.671875 1.6875 2.625q1.296875 0.9375 3.1875 0.9375q1.90625 0 3.5625 -0.96875q1.671875 -0.96875 2.359375 -2.640625q0.6875 -1.6875 0.6875 -4.875l0 -13.328125l4.21875 0l0 24.890625l-3.765625 0zm19.585938 -3.78125l0.609375 3.734375q-1.78125 0.375 -3.1875 0.375q-2.296875 0 -3.5625 -0.71875q-1.265625 -0.734375 -1.78125 -1.921875q-0.515625 -1.1875 -0.515625 -4.984375l0 -14.3125l-3.09375 0l0 -3.28125l3.09375 0l0 -6.171875l4.203125 -2.53125l0 8.703125l4.234375 0l0 3.28125l-4.234375 0l0 14.546875q0 1.8125 0.21875 2.328125q0.21875 0.515625 0.71875 0.828125q0.515625 0.296875 1.453125 0.296875q0.703125 0 1.84375 -0.171875zm4.1484375 -25.734375l0 -4.84375l4.21875 0l0 4.84375l-4.21875 0zm0 29.515625l0 -24.890625l4.21875 0l0 24.890625l-4.21875 0zm10.6484375 0l0 -24.890625l3.796875 0l0 3.53125q2.734375 -4.09375 7.921875 -4.09375q2.25 0 4.125 0.8125q1.890625 0.796875 2.828125 2.109375q0.9375 1.3125 1.3125 3.125q0.234375 1.171875 0.234375 4.09375l0 15.3125l-4.21875 0l0 -15.140625q0 -2.578125 -0.5 -3.859375q-0.484375 -1.28125 -1.734375 -2.03125q-1.25 -0.765625 -2.9375 -0.765625q-2.703125 0 -4.65625 1.71875q-1.953125 1.703125 -1.953125 6.484375l0 13.59375l-4.21875 0zm25.914062 2.0625l4.109375 0.609375q0.25 1.90625 1.421875 2.765625q1.578125 1.171875 4.296875 1.171875q2.921875 0 4.515625 -1.171875q1.59375 -1.171875 2.15625 -3.28125q0.328125 -1.28125 0.3125 -5.421875q-2.765625 3.265625 -6.890625 3.265625q-5.140625 0 -7.953125 -3.703125q-2.8125 -3.703125 -2.8125 -8.890625q0 -3.5625 1.28125 -6.5625q1.296875 -3.015625 3.75 -4.65625q2.453125 -1.640625 5.75 -1.640625q4.40625 0 7.265625 3.5625l0 -3.0l3.890625 0l0 21.515625q0 5.8125 -1.1875 8.234375q-1.171875 2.4375 -3.75 3.84375q-2.5625 1.4062538 -6.3125 1.4062538q-4.453125 0 -7.203125 -2.0156288q-2.734375 -2.0 -2.640625 -6.03125zm3.5 -14.953125q0 4.890625 1.9375 7.140625q1.953125 2.25 4.875 2.25q2.90625 0 4.875 -2.234375q1.96875 -2.234375 1.96875 -7.015625q0 -4.578125 -2.03125 -6.890625q-2.015625 -2.328125 -4.875 -2.328125q-2.8125 0 -4.78125 2.296875q-1.96875 2.28125 -1.96875 6.78125zm46.59375 12.890625l0 -30.3125l-11.328125 0l0 -4.046875l27.234375 0l0 4.046875l-11.359375 0l0 30.3125l-4.546875 0zm20.039062 0l0 -34.359375l4.21875 0l0 12.328125q2.953125 -3.421875 7.453125 -3.421875q2.765625 0 4.796875 1.09375q2.046875 1.078125 2.921875 3.0q0.875 1.921875 0.875 5.578125l0 15.78125l-4.21875 0l0 -15.78125q0 -3.15625 -1.375 -4.59375q-1.359375 -1.453125 -3.875 -1.453125q-1.875 0 -3.53125 0.984375q-1.640625 0.96875 -2.34375 2.640625q-0.703125 1.65625 -0.703125 4.578125l0 13.625l-4.21875 0zm43.726562 -8.015625l4.359375 0.53125q-1.03125 3.828125 -3.828125 5.9375q-2.78125 2.109375 -7.109375 2.109375q-5.46875 0 -8.671875 -3.359375q-3.1875 -3.375 -3.1875 -9.4375q0 -6.28125 3.234375 -9.75q3.234375 -3.46875 8.390625 -3.46875q4.984375 0 8.140625 3.40625q3.171875 3.390625 3.171875 9.546875q0 0.375 -0.015625 1.125l-18.5625 0q0.234375 4.109375 2.3125 6.296875q2.09375 2.171875 5.203125 2.171875q2.328125 0 3.96875 -1.21875q1.640625 -1.21875 2.59375 -3.890625zm-13.84375 -6.828125l13.890625 0q-0.28125 -3.140625 -1.59375 -4.703125q-2.015625 -2.4375 -5.21875 -2.4375q-2.90625 0 -4.890625 1.953125q-1.984375 1.9375 -2.1875 5.1875zm37.1875 14.84375l0 -34.359375l4.546875 0l0 30.296875l16.921875 0l0 4.0625l-21.46875 0zm24.773438 -12.453125q0 -6.90625 3.84375 -10.234375q3.21875 -2.765625 7.828125 -2.765625q5.140625 0 8.390625 3.359375q3.265625 3.359375 3.265625 9.296875q0 4.796875 -1.453125 7.5625q-1.4375 2.75 -4.1875 4.28125q-2.75 1.515625 -6.015625 1.515625q-5.21875 0 -8.453125 -3.34375q-3.21875 -3.359375 -3.21875 -9.671875zm4.34375 0q0 4.78125 2.078125 7.171875q2.09375 2.375 5.25 2.375q3.140625 0 5.21875 -2.390625q2.09375 -2.390625 2.09375 -7.296875q0 -4.609375 -2.09375 -6.984375q-2.09375 -2.390625 -5.21875 -2.390625q-3.15625 0 -5.25 2.375q-2.078125 2.359375 -2.078125 7.140625zm40.164062 9.375q-2.34375 2.0 -4.515625 2.828125q-2.15625 0.8125 -4.640625 0.8125q-4.109375 0 -6.3125 -2.0q-2.203125 -2.015625 -2.203125 -5.125q0 -1.828125 0.828125 -3.34375q0.84375 -1.515625 2.1875 -2.421875q1.34375 -0.921875 3.03125 -1.390625q1.25 -0.328125 3.75 -0.625q5.109375 -0.609375 7.53125 -1.453125q0.015625 -0.875 0.015625 -1.109375q0 -2.578125 -1.1875 -3.625q-1.625 -1.4375 -4.8125 -1.4375q-2.96875 0 -4.390625 1.046875q-1.421875 1.046875 -2.09375 3.6875l-4.125 -0.5625q0.5625 -2.640625 1.84375 -4.265625q1.296875 -1.640625 3.734375 -2.515625q2.4375 -0.875 5.640625 -0.875q3.1875 0 5.171875 0.75q2.0 0.75 2.9375 1.890625q0.9375 1.125 1.3125 2.859375q0.21875 1.078125 0.21875 3.890625l0 5.625q0 5.890625 0.265625 7.453125q0.265625 1.546875 1.0625 2.984375l-4.40625 0q-0.65625 -1.3125 -0.84375 -3.078125zm-0.34375 -9.421875q-2.296875 0.9375 -6.890625 1.59375q-2.609375 0.375 -3.6875 0.84375q-1.078125 0.46875 -1.671875 1.375q-0.578125 0.90625 -0.578125 2.0q0 1.6875 1.28125 2.8125q1.28125 1.125 3.734375 1.125q2.4375 0 4.328125 -1.0625q1.90625 -1.0625 2.796875 -2.921875q0.6875 -1.421875 0.6875 -4.21875l0 -1.546875zm26.945312 12.5l0 -3.140625q-2.359375 3.703125 -6.953125 3.703125q-2.984375 0 -5.484375 -1.640625q-2.484375 -1.640625 -3.859375 -4.578125q-1.375 -2.953125 -1.375 -6.765625q0 -3.734375 1.234375 -6.765625q1.25 -3.03125 3.734375 -4.640625q2.484375 -1.625 5.5625 -1.625q2.25 0 4.0 0.953125q1.765625 0.9375 2.859375 2.46875l0 -12.328125l4.203125 0l0 34.359375l-3.921875 0zm-13.328125 -12.421875q0 4.78125 2.015625 7.15625q2.015625 2.359375 4.75 2.359375q2.765625 0 4.703125 -2.265625q1.9375 -2.265625 1.9375 -6.90625q0 -5.109375 -1.96875 -7.5q-1.96875 -2.390625 -4.859375 -2.390625q-2.8125 0 -4.703125 2.296875q-1.875 2.296875 -1.875 7.25z" fill-rule="nonzero"/><path fill="#fff2cc" d="m56.52774 155.84613l66.17956 4.4250488E-4l20.450188 -62.883316l20.45018 62.883316l66.17955 -4.4250488E-4l-53.540634 38.863586l20.45102 62.883026l-53.540115 -38.86429l-53.54013 38.86429l20.451027 -62.883026z" fill-rule="evenodd"/><path stroke="#000000" stroke-width="1.0" stroke-linejoin="round" stroke-linecap="butt" d="m56.52774 155.84613l66.17956 4.4250488E-4l20.450188 -62.883316l20.45018 62.883316l66.17955 -4.4250488E-4l-53.540634 38.863586l20.45102 62.883026l-53.540115 -38.86429l-53.54013 38.86429l20.451027 -62.883026z" fill-rule="evenodd"/><path fill="#7f6000" d="m123.34252 194.2075l0 -13.359375l4.609375 0q1.5468826 0 2.3750076 0.203125q1.140625 0.25 1.953125 0.953125q1.0625 0.890625 1.578125 2.28125q0.53125 1.390625 0.53125 3.171875q0 1.515625 -0.359375 2.703125q-0.359375 1.171875 -0.921875 1.9375q-0.546875 0.765625 -1.203125 1.21875q-0.65625 0.4375 -1.59375 0.671875q-0.9375 0.21875 -2.140625 0.21875l-4.8281326 0zm1.765625 -1.578125l2.859375 0q1.3125076 0 2.0625076 -0.234375q0.75 -0.25 1.203125 -0.703125q0.625 -0.625 0.96875 -1.6875q0.359375 -1.0625 0.359375 -2.578125q0 -2.09375 -0.6875 -3.21875q-0.6875 -1.125 -1.671875 -1.5q-0.703125 -0.28125 -2.2812576 -0.28125l-2.8125 0l0 10.203125zm18.129204 -1.53125l1.6875 0.203125q-0.40625 1.484375 -1.484375 2.3125q-1.078125 0.8125 -2.765625 0.8125q-2.125 0 -3.375 -1.296875q-1.234375 -1.3125 -1.234375 -3.671875q0 -2.453125 1.25 -3.796875q1.265625 -1.34375 3.265625 -1.34375q1.9375 0 3.15625 1.328125q1.234375 1.3125 1.234375 3.703125q0 0.15625 0 0.4375l-7.21875 0q0.09375 1.59375 0.90625 2.453125q0.8125 0.84375 2.015625 0.84375q0.90625 0 1.546875 -0.46875q0.640625 -0.484375 1.015625 -1.515625zm-5.390625 -2.65625l5.40625 0q-0.109375 -1.21875 -0.625 -1.828125q-0.78125 -0.953125 -2.03125 -0.953125q-1.125 0 -1.90625 0.765625q-0.765625 0.75 -0.84375 2.015625zm11.828842 5.765625l-3.6875 -9.671875l1.734375 0l2.078125 5.796875q0.328125 0.9375 0.625 1.9375q0.203125 -0.765625 0.609375 -1.828125l2.140625 -5.90625l1.6875 0l-3.65625 9.671875l-1.53125 0zm5.984375 -2.890625l1.625 -0.25q0.125 0.96875 0.75 1.5q0.625 0.515625 1.75 0.515625q1.125 0 1.671875 -0.453125q0.546875 -0.46875 0.546875 -1.09375q0 -0.546875 -0.484375 -0.875q-0.328125 -0.21875 -1.671875 -0.546875q-1.8125 -0.46875 -2.515625 -0.796875q-0.6875 -0.328125 -1.046875 -0.90625q-0.359375 -0.59375 -0.359375 -1.3125q0 -0.640625 0.296875 -1.1875q0.296875 -0.5625 0.8125 -0.921875q0.375 -0.28125 1.03125 -0.46875q0.671875 -0.203125 1.421875 -0.203125q1.140625 0 2.0 0.328125q0.859375 0.328125 1.265625 0.890625q0.421875 0.5625 0.578125 1.5l-1.609375 0.21875q-0.109375 -0.75 -0.640625 -1.171875q-0.515625 -0.421875 -1.46875 -0.421875q-1.140625 0 -1.625 0.375q-0.46875 0.375 -0.46875 0.875q0 0.3125 0.1875 0.578125q0.203125 0.265625 0.640625 0.4375q0.234375 0.09375 1.4375 0.421875q1.75 0.453125 2.4375 0.75q0.6875 0.296875 1.078125 0.859375q0.390625 0.5625 0.390625 1.40625q0 0.828125 -0.484375 1.546875q-0.46875 0.71875 -1.375 1.125q-0.90625 0.390625 -2.046875 0.390625q-1.875 0 -2.875 -0.78125q-0.984375 -0.78125 -1.25 -2.328125z" fill-rule="nonzero"/><path fill="#cfe2f3" d="m441.45895 119.989006l45.57962 -47.48507l-3.629364 63.178543l47.68875 -28.488853l-22.28305 36.745705l71.492096 1.2357941l-63.206116 30.151154l17.59906 20.647583l-25.88504 11.154953l34.198395 36.330124l-58.029083 -14.020233l4.136139 33.02739l-37.82782 -15.693481l-7.7792053 31.791595l-23.830688 -16.098114l-16.051483 25.61261l-16.065186 -17.355774l-35.746033 38.003357l-1.5339355 -36.745697l-48.209198 -4.538513l28.007904 -26.848434l-45.607025 -27.263992l53.892975 -14.053055l-37.84149 -36.330124l57.52237 -4.9541016l-11.915344 -45.844635l55.440582 30.151154l16.051483 -49.158302z" fill-rule="evenodd"/><path stroke="#000000" stroke-width="1.0" stroke-linejoin="round" stroke-linecap="butt" d="m441.45895 119.989006l45.57962 -47.48507l-3.629364 63.178543l47.68875 -28.488853l-22.28305 36.745705l71.492096 1.2357941l-63.206116 30.151154l17.59906 20.647583l-25.88504 11.154953l34.198395 36.330124l-58.029083 -14.020233l4.136139 33.02739l-37.82782 -15.693481l-7.7792053 31.791595l-23.830688 -16.098114l-16.051483 25.61261l-16.065186 -17.355774l-35.746033 38.003357l-1.5339355 -36.745697l-48.209198 -4.538513l28.007904 -26.848434l-45.607025 -27.263992l53.892975 -14.053055l-37.84149 -36.330124l57.52237 -4.9541016l-11.915344 -45.844635l55.440582 30.151154l16.051483 -49.158302z" fill-rule="evenodd"/><path fill="#000000" d="m385.2949 185.76825l1.765625 0.453125q-0.5625 2.171875 -2.0 3.328125q-1.4375 1.140625 -3.53125 1.140625q-2.15625 0 -3.515625 -0.875q-1.34375 -0.890625 -2.0625 -2.546875q-0.703125 -1.671875 -0.703125 -3.59375q0 -2.078125 0.796875 -3.625q0.796875 -1.5625 2.265625 -2.359375q1.484375 -0.8125 3.25 -0.8125q2.0 0 3.359375 1.015625q1.375 1.015625 1.90625 2.875l-1.734375 0.40625q-0.46875 -1.453125 -1.359375 -2.109375q-0.875 -0.671875 -2.203125 -0.671875q-1.546875 0 -2.578125 0.734375q-1.03125 0.734375 -1.453125 1.984375q-0.421875 1.234375 -0.421875 2.5625q0 1.703125 0.5 2.96875q0.5 1.265625 1.546875 1.90625q1.046875 0.625 2.265625 0.625q1.484375 0 2.515625 -0.859375q1.03125 -0.859375 1.390625 -2.546875zm3.129181 -0.15625q0 -2.6875 1.484375 -3.96875q1.25 -1.078125 3.046875 -1.078125q2.0 0 3.265625 1.3125q1.265625 1.296875 1.265625 3.609375q0 1.859375 -0.5625 2.9375q-0.5625 1.0625 -1.640625 1.65625q-1.0625 0.59375 -2.328125 0.59375q-2.03125 0 -3.28125 -1.296875q-1.25 -1.3125 -1.25 -3.765625zm1.6875 0q0 1.859375 0.796875 2.796875q0.8125 0.921875 2.046875 0.921875q1.21875 0 2.03125 -0.921875q0.8125 -0.9375 0.8125 -2.84375q0 -1.796875 -0.8125 -2.71875q-0.8125 -0.921875 -2.03125 -0.921875q-1.234375 0 -2.046875 0.921875q-0.796875 0.90625 -0.796875 2.765625zm9.297607 4.84375l0 -9.671875l1.46875 0l0 1.375q1.0625 -1.59375 3.078125 -1.59375q0.875 0 1.609375 0.3125q0.734375 0.3125 1.09375 0.828125q0.375 0.5 0.515625 1.203125q0.09375 0.453125 0.09375 1.59375l0 5.953125l-1.640625 0l0 -5.890625q0 -1.0 -0.203125 -1.484375q-0.1875 -0.5 -0.671875 -0.796875q-0.484375 -0.296875 -1.140625 -0.296875q-1.046875 0 -1.8125 0.671875q-0.75 0.65625 -0.75 2.515625l0 5.28125l-1.640625 0zm13.953827 -1.46875l0.234375 1.453125q-0.6875 0.140625 -1.234375 0.140625q-0.890625 0 -1.390625 -0.28125q-0.484375 -0.28125 -0.6875 -0.734375q-0.203125 -0.46875 -0.203125 -1.9375l0 -5.578125l-1.203125 0l0 -1.265625l1.203125 0l0 -2.390625l1.625 -0.984375l0 3.375l1.65625 0l0 1.265625l-1.65625 0l0 5.671875q0 0.6875 0.078125 0.890625q0.09375 0.203125 0.28125 0.328125q0.203125 0.109375 0.578125 0.109375q0.265625 0 0.71875 -0.0625zm1.6051941 -10.0l0 -1.890625l1.640625 0l0 1.890625l-1.640625 0zm0 11.46875l0 -9.671875l1.640625 0l0 9.671875l-1.640625 0zm4.144806 0l0 -9.671875l1.46875 0l0 1.375q1.0625 -1.59375 3.078125 -1.59375q0.875 0 1.609375 0.3125q0.734375 0.3125 1.09375 0.828125q0.375 0.5 0.515625 1.203125q0.09375 0.453125 0.09375 1.59375l0 5.953125l-1.640625 0l0 -5.890625q0 -1.0 -0.203125 -1.484375q-0.1875 -0.5 -0.671875 -0.796875q-0.484375 -0.296875 -1.140625 -0.296875q-1.046875 0 -1.8125 0.671875q-0.75 0.65625 -0.75 2.515625l0 5.28125l-1.640625 0zm16.703857 0l0 -1.421875q-1.125 1.640625 -3.0625 1.640625q-0.859375 0 -1.609375 -0.328125q-0.734375 -0.328125 -1.09375 -0.828125q-0.359375 -0.5 -0.5 -1.21875q-0.109375 -0.46875 -0.109375 -1.53125l0 -5.984375l1.640625 0l0 5.359375q0 1.28125 0.109375 1.734375q0.15625 0.640625 0.65625 1.015625q0.5 0.375 1.234375 0.375q0.734375 0 1.375 -0.375q0.65625 -0.390625 0.921875 -1.03125q0.265625 -0.65625 0.265625 -1.890625l0 -5.1875l1.640625 0l0 9.671875l-1.46875 0zm3.438202 -4.84375q0 -2.6875 1.484375 -3.96875q1.25 -1.078125 3.046875 -1.078125q2.0 0 3.265625 1.3125q1.265625 1.296875 1.265625 3.609375q0 1.859375 -0.5625 2.9375q-0.5625 1.0625 -1.640625 1.65625q-1.0625 0.59375 -2.328125 0.59375q-2.03125 0 -3.28125 -1.296875q-1.25 -1.3125 -1.25 -3.765625zm1.6875 0q0 1.859375 0.796875 2.796875q0.8125 0.921875 2.046875 0.921875q1.21875 0 2.03125 -0.921875q0.8125 -0.9375 0.8125 -2.84375q0 -1.796875 -0.8125 -2.71875q-0.8125 -0.921875 -2.03125 -0.921875q-1.234375 0 -2.046875 0.921875q-0.796875 0.90625 -0.796875 2.765625zm15.625732 4.84375l0 -1.421875q-1.125 1.640625 -3.0625 1.640625q-0.859375 0 -1.609375 -0.328125q-0.734375 -0.328125 -1.09375 -0.828125q-0.359375 -0.5 -0.5 -1.21875q-0.109375 -0.46875 -0.109375 -1.53125l0 -5.984375l1.640625 0l0 5.359375q0 1.28125 0.109375 1.734375q0.15625 0.640625 0.65625 1.015625q0.5 0.375 1.234375 0.375q0.734375 0 1.375 -0.375q0.65625 -0.390625 0.921875 -1.03125q0.265625 -0.65625 0.265625 -1.890625l0 -5.1875l1.640625 0l0 9.671875l-1.46875 0zm3.391327 -2.890625l1.625 -0.25q0.125 0.96875 0.75 1.5q0.625 0.515625 1.75 0.515625q1.125 0 1.671875 -0.453125q0.546875 -0.46875 0.546875 -1.09375q0 -0.546875 -0.484375 -0.875q-0.328125 -0.21875 -1.671875 -0.546875q-1.8125 -0.46875 -2.515625 -0.796875q-0.6875 -0.328125 -1.046875 -0.90625q-0.359375 -0.59375 -0.359375 -1.3125q0 -0.640625 0.296875 -1.1875q0.296875 -0.5625 0.8125 -0.921875q0.375 -0.28125 1.03125 -0.46875q0.671875 -0.203125 1.421875 -0.203125q1.140625 0 2.0 0.328125q0.859375 0.328125 1.265625 0.890625q0.421875 0.5625 0.578125 1.5l-1.609375 0.21875q-0.109375 -0.75 -0.640625 -1.171875q-0.515625 -0.421875 -1.46875 -0.421875q-1.140625 0 -1.625 0.375q-0.46875 0.375 -0.46875 0.875q0 0.3125 0.1875 0.578125q0.203125 0.265625 0.640625 0.4375q0.234375 0.09375 1.4375 0.421875q1.75 0.453125 2.4375 0.75q0.6875 0.296875 1.078125 0.859375q0.390625 0.5625 0.390625 1.40625q0 0.828125 -0.484375 1.546875q-0.46875 0.71875 -1.375 1.125q-0.90625 0.390625 -2.046875 0.390625q-1.875 0 -2.875 -0.78125q-0.984375 -0.78125 -1.25 -2.328125z" fill-rule="nonzero"/><path fill="#000000" d="m379.1714 212.45575l0 -13.359375l1.765625 0l0 13.359375l-1.765625 0zm4.683319 0l0 -9.671875l1.46875 0l0 1.375q1.0625 -1.59375 3.078125 -1.59375q0.875 0 1.609375 0.3125q0.734375 0.3125 1.09375 0.828125q0.375 0.5 0.515625 1.203125q0.09375 0.453125 0.09375 1.59375l0 5.953125l-1.640625 0l0 -5.890625q0 -1.0 -0.203125 -1.484375q-0.1875 -0.5 -0.671875 -0.796875q-0.484375 -0.296875 -1.140625 -0.296875q-1.046875 0 -1.8125 0.671875q-0.75 0.65625 -0.75 2.515625l0 5.28125l-1.640625 0zm13.953827 -1.46875l0.234375 1.453125q-0.6875 0.140625 -1.234375 0.140625q-0.890625 0 -1.390625 -0.28125q-0.484375 -0.28125 -0.6875 -0.734375q-0.203125 -0.46875 -0.203125 -1.9375l0 -5.578125l-1.203125 0l0 -1.265625l1.203125 0l0 -2.390625l1.625 -0.984375l0 3.375l1.65625 0l0 1.265625l-1.65625 0l0 5.671875q0 0.6875 0.078125 0.890625q0.09375 0.203125 0.28125 0.328125q0.203125 0.109375 0.578125 0.109375q0.265625 0 0.71875 -0.0625zm8.230194 -1.640625l1.6875 0.203125q-0.40625 1.484375 -1.484375 2.3125q-1.078125 0.8125 -2.765625 0.8125q-2.125 0 -3.375 -1.296875q-1.234375 -1.3125 -1.234375 -3.671875q0 -2.453125 1.25 -3.796875q1.265625 -1.34375 3.265625 -1.34375q1.9375 0 3.15625 1.328125q1.234375 1.3125 1.234375 3.703125q0 0.15625 0 0.4375l-7.21875 0q0.09375 1.59375 0.90625 2.453125q0.8125 0.84375 2.015625 0.84375q0.90625 0 1.546875 -0.46875q0.640625 -0.484375 1.015625 -1.515625zm-5.390625 -2.65625l5.40625 0q-0.109375 -1.21875 -0.625 -1.828125q-0.78125 -0.953125 -2.03125 -0.953125q-1.125 0 -1.90625 0.765625q-0.765625 0.75 -0.84375 2.015625zm8.828827 6.5625l1.59375 0.234375q0.109375 0.75 0.5625 1.078125q0.609375 0.453125 1.671875 0.453125q1.140625 0 1.75 -0.453125q0.625 -0.453125 0.84375 -1.265625q0.125 -0.5 0.109375 -2.109375q-1.0625 1.265625 -2.671875 1.265625q-2.0 0 -3.09375 -1.4375q-1.09375 -1.4375 -1.09375 -3.453125q0 -1.390625 0.5 -2.5625q0.515625 -1.171875 1.453125 -1.796875q0.953125 -0.640625 2.25 -0.640625q1.703125 0 2.8125 1.375l0 -1.15625l1.515625 0l0 8.359375q0 2.265625 -0.46875 3.203125q-0.453125 0.9375 -1.453125 1.484375q-0.984375 0.546875 -2.453125 0.546875q-1.71875 0 -2.796875 -0.78125q-1.0625 -0.765625 -1.03125 -2.34375zm1.359375 -5.8125q0 1.90625 0.75 2.78125q0.765625 0.875 1.90625 0.875q1.125 0 1.890625 -0.859375q0.765625 -0.875 0.765625 -2.734375q0 -1.78125 -0.796875 -2.671875q-0.78125 -0.90625 -1.890625 -0.90625q-1.09375 0 -1.859375 0.890625q-0.765625 0.875 -0.765625 2.625zm9.313232 5.015625l0 -9.671875l1.46875 0l0 1.46875q0.5625 -1.03125 1.03125 -1.359375q0.484375 -0.328125 1.0625 -0.328125q0.828125 0 1.6875 0.53125l-0.5625 1.515625q-0.609375 -0.359375 -1.203125 -0.359375q-0.546875 0 -0.96875 0.328125q-0.421875 0.328125 -0.609375 0.890625q-0.28125 0.875 -0.28125 1.921875l0 5.0625l-1.625 0zm12.540802 -1.1875q-0.921875 0.765625 -1.765625 1.09375q-0.828125 0.3125 -1.796875 0.3125q-1.59375 0 -2.453125 -0.78125q-0.859375 -0.78125 -0.859375 -1.984375q0 -0.71875 0.328125 -1.296875q0.328125 -0.59375 0.84375 -0.9375q0.53125 -0.359375 1.1875 -0.546875q0.46875 -0.125 1.453125 -0.25q1.984375 -0.234375 2.921875 -0.5625q0.015625 -0.34375 0.015625 -0.421875q0 -1.0 -0.46875 -1.421875q-0.625 -0.546875 -1.875 -0.546875q-1.15625 0 -1.703125 0.40625q-0.546875 0.40625 -0.8125 1.421875l-1.609375 -0.21875q0.21875 -1.015625 0.71875 -1.640625q0.5 -0.640625 1.453125 -0.984375q0.953125 -0.34375 2.1875 -0.34375q1.25 0 2.015625 0.296875q0.78125 0.28125 1.140625 0.734375q0.375 0.4375 0.515625 1.109375q0.078125 0.421875 0.078125 1.515625l0 2.1875q0 2.28125 0.109375 2.890625q0.109375 0.59375 0.40625 1.15625l-1.703125 0q-0.265625 -0.515625 -0.328125 -1.1875zm-0.140625 -3.671875q-0.890625 0.375 -2.671875 0.625q-1.015625 0.140625 -1.4375 0.328125q-0.421875 0.1875 -0.65625 0.53125q-0.21875 0.34375 -0.21875 0.78125q0 0.65625 0.5 1.09375q0.5 0.4375 1.453125 0.4375q0.9375 0 1.671875 -0.40625q0.75 -0.421875 1.09375 -1.140625q0.265625 -0.5625 0.265625 -1.640625l0 -0.609375zm7.781952 3.390625l0.234375 1.453125q-0.6875 0.140625 -1.234375 0.140625q-0.890625 0 -1.390625 -0.28125q-0.484375 -0.28125 -0.6875 -0.734375q-0.203125 -0.46875 -0.203125 -1.9375l0 -5.578125l-1.203125 0l0 -1.265625l1.203125 0l0 -2.390625l1.625 -0.984375l0 3.375l1.65625 0l0 1.265625l-1.65625 0l0 5.671875q0 0.6875 0.078125 0.890625q0.09375 0.203125 0.28125 0.328125q0.203125 0.109375 0.578125 0.109375q0.265625 0 0.71875 -0.0625zm1.6051941 -10.0l0 -1.890625l1.640625 0l0 1.890625l-1.640625 0zm0 11.46875l0 -9.671875l1.640625 0l0 9.671875l-1.640625 0zm3.535431 -4.84375q0 -2.6875 1.484375 -3.96875q1.25 -1.078125 3.046875 -1.078125q2.0 0 3.265625 1.3125q1.265625 1.296875 1.265625 3.609375q0 1.859375 -0.5625 2.9375q-0.5625 1.0625 -1.640625 1.65625q-1.0625 0.59375 -2.328125 0.59375q-2.03125 0 -3.28125 -1.296875q-1.25 -1.3125 -1.25 -3.765625zm1.6875 0q0 1.859375 0.796875 2.796875q0.8125 0.921875 2.046875 0.921875q1.21875 0 2.03125 -0.921875q0.8125 -0.9375 0.8125 -2.84375q0 -1.796875 -0.8125 -2.71875q-0.8125 -0.921875 -2.03125 -0.921875q-1.234375 0 -2.046875 0.921875q-0.796875 0.90625 -0.796875 2.765625zm9.297607 4.84375l0 -9.671875l1.46875 0l0 1.375q1.0625 -1.59375 3.078125 -1.59375q0.875 0 1.609375 0.3125q0.734375 0.3125 1.09375 0.828125q0.375 0.5 0.515625 1.203125q0.09375 0.453125 0.09375 1.59375l0 5.953125l-1.640625 0l0 -5.890625q0 -1.0 -0.203125 -1.484375q-0.1875 -0.5 -0.671875 -0.796875q-0.484375 -0.296875 -1.140625 -0.296875q-1.046875 0 -1.8125 0.671875q-0.75 0.65625 -0.75 2.515625l0 5.28125l-1.640625 0z" fill-rule="nonzero"/><path fill="#000000" fill-opacity="0.0" d="m443.51334 278.5642c0 26.200623 101.88187 43.070557 203.76376 52.401245c101.8819 9.330719 203.7638 11.122223 203.7638 22.244415" fill-rule="evenodd"/><path stroke="#000000" stroke-width="2.0" stroke-linejoin="round" stroke-linecap="butt" d="m443.51334 278.5642c0 26.200623 101.88187 43.070557 203.76376 52.401245c50.94098 4.6653748 101.88196 7.445923 140.08765 10.450378c19.102844 1.5022583 35.02191 3.0605164 46.16516 4.9382935c2.7858887 0.4694519 5.2732544 0.9588623 7.437256 1.4724121c1.0819702 0.25671387 2.08313 0.51950073 3.0003662 0.78881836c0.45855713 0.13467407 0.89624023 0.27096558 1.3125 0.40896606l0.2644043 0.090545654" fill-rule="evenodd"/><path fill="#000000" stroke="#000000" stroke-width="2.0" stroke-linecap="butt" d="m845.5445 349.11487l-3.1474 0.4598999l6.2991943 1.8882751l-3.6116943 -5.4955444z" fill-rule="evenodd"/><path fill="#000000" fill-opacity="0.0" d="m443.51334 278.5642c0 26.200623 47.62204 43.070557 95.24411 52.401245c47.62201 9.330719 95.24408 11.122223 95.24408 22.244415" fill-rule="evenodd"/><path stroke="#000000" stroke-width="2.0" stroke-linejoin="round" stroke-linecap="butt" d="m443.51334 278.5642c0 26.200623 47.62204 43.070557 95.24411 52.401245c23.810974 4.6653748 47.62201 7.445923 65.480286 10.450378c8.929138 1.5022583 16.370056 3.0605164 21.578735 4.9382935c1.302185 0.4694519 2.4648438 0.9588623 3.4763184 1.4724121l0.28466797 0.14813232" fill-rule="evenodd"/><path fill="#000000" stroke="#000000" stroke-width="2.0" stroke-linecap="butt" d="m629.57745 347.97464l-3.1696777 -0.2661438l5.706543 3.268158l-2.270691 -6.1716614z" fill-rule="evenodd"/><path fill="#000000" fill-opacity="0.0" d="m443.51334 278.5642c0 26.200623 -84.46457 43.070557 -168.92914 52.401245c-84.46457 9.330719 -168.92914 11.122223 -168.92914 22.244415" fill-rule="evenodd"/><path stroke="#000000" stroke-width="2.0" stroke-linejoin="round" stroke-linecap="butt" d="m443.51334 278.5642c0 26.200623 -84.46457 43.070557 -168.92914 52.401245c-42.232285 4.6653748 -84.46457 7.445923 -116.13878 10.450378c-15.837112 1.5022583 -29.034698 3.0605164 -38.27301 4.9382935c-2.309578 0.4694519 -4.3716965 0.9588623 -6.1657486 1.4724121c-0.89702606 0.25671387 -1.7270279 0.51950073 -2.4874344 0.78881836c-0.19010925 0.067352295 -0.3758545 0.13510132 -0.55722046 0.20324707l-0.033416748 0.012939453" fill-rule="evenodd"/><path fill="#000000" stroke="#000000" stroke-width="2.0" stroke-linecap="butt" d="m110.92859 348.83154l0.2937622 -3.1672058l-3.317749 5.6778564l6.1912003 -2.2168884z" fill-rule="evenodd"/><path fill="#ffff00" d="m624.01575 174.56693l0 0c0 -53.976044 43.756226 -97.73228 97.7323 -97.73228c53.976013 0 97.73224 43.756233 97.73224 97.73228c0 53.97606 -43.756226 97.7323 -97.73224 97.7323c-53.976074 0 -97.7323 -43.75624 -97.7323 -97.7323z" fill-rule="evenodd"/><path fill="#cbcb00" d="m680.2571 145.33774c0 -5.622513 4.5579224 -10.18045 10.18042 -10.18045c5.6224976 0 10.18042 4.5579376 10.18042 10.18045c0 5.6224976 -4.5579224 10.18045 -10.18042 10.18045c-5.6224976 0 -10.18042 -4.557953 -10.18042 -10.18045m62.621033 0c0 -5.622513 4.5579224 -10.18045 10.18042 -10.18045c5.6225586 0 10.180481 4.5579376 10.180481 10.18045c0 5.6224976 -4.5579224 10.18045 -10.180481 10.18045c-5.6224976 0 -10.18042 -4.557953 -10.18042 -10.18045" fill-rule="evenodd"/><path fill="#000000" fill-opacity="0.0" d="m668.7765 217.18863q52.971558 36.379868 105.8194 0" fill-rule="evenodd"/><path fill="#000000" fill-opacity="0.0" d="m624.01575 174.56693l0 0c0 -53.976044 43.756226 -97.73228 97.7323 -97.73228c53.976013 0 97.73224 43.756233 97.73224 97.73228c0 53.97606 -43.756226 97.7323 -97.73224 97.7323c-53.976074 0 -97.7323 -43.75624 -97.7323 -97.7323z" fill-rule="evenodd"/><path stroke="#000000" stroke-width="1.0" stroke-linejoin="round" stroke-linecap="butt" d="m680.2571 145.33774c0 -5.622513 4.5579224 -10.18045 10.18042 -10.18045c5.6224976 0 10.18042 4.5579376 10.18042 10.18045c0 5.6224976 -4.5579224 10.18045 -10.18042 10.18045c-5.6224976 0 -10.18042 -4.557953 -10.18042 -10.18045m62.621033 0c0 -5.622513 4.5579224 -10.18045 10.18042 -10.18045c5.6225586 0 10.180481 4.5579376 10.180481 10.18045c0 5.6224976 -4.5579224 10.18045 -10.180481 10.18045c-5.6224976 0 -10.18042 -4.557953 -10.18042 -10.18045" fill-rule="evenodd"/><path stroke="#000000" stroke-width="1.0" stroke-linejoin="round" stroke-linecap="butt" d="m668.7765 217.18863q52.971558 36.379868 105.8194 0" fill-rule="evenodd"/><path stroke="#000000" stroke-width="1.0" stroke-linejoin="round" stroke-linecap="butt" d="m624.01575 174.56693l0 0c0 -53.976044 43.756226 -97.73228 97.7323 -97.73228c53.976013 0 97.73224 43.756233 97.73224 97.73228c0 53.97606 -43.756226 97.7323 -97.73224 97.7323c-53.976074 0 -97.7323 -43.75624 -97.7323 -97.7323z" fill-rule="evenodd"/><path fill="#000000" d="m673.41125 181.48692l0 -13.359375l4.609375 0q1.546875 0 2.375 0.203125q1.140625 0.25 1.953125 0.953125q1.0625 0.890625 1.578125 2.28125q0.53125 1.390625 0.53125 3.171875q0 1.515625 -0.359375 2.703125q-0.359375 1.171875 -0.921875 1.9375q-0.546875 0.765625 -1.203125 1.21875q-0.65625 0.4375 -1.59375 0.671875q-0.9375 0.21875 -2.140625 0.21875l-4.828125 0zm1.765625 -1.578125l2.859375 0q1.3125 0 2.0625 -0.234375q0.75 -0.25 1.203125 -0.703125q0.625 -0.625 0.96875 -1.6875q0.359375 -1.0625 0.359375 -2.578125q0 -2.09375 -0.6875 -3.21875q-0.6875 -1.125 -1.671875 -1.5q-0.703125 -0.28125 -2.28125 -0.28125l-2.8125 0l0 10.203125zm18.12915 -1.53125l1.6875 0.203125q-0.40625 1.484375 -1.484375 2.3125q-1.078125 0.8125 -2.765625 0.8125q-2.125 0 -3.375 -1.296875q-1.234375 -1.3125 -1.234375 -3.671875q0 -2.453125 1.25 -3.796875q1.265625 -1.34375 3.265625 -1.34375q1.9375 0 3.15625 1.328125q1.234375 1.3125 1.234375 3.703125q0 0.15625 0 0.4375l-7.21875 0q0.09375 1.59375 0.90625 2.453125q0.8125 0.84375 2.015625 0.84375q0.90625 0 1.546875 -0.46875q0.640625 -0.484375 1.015625 -1.515625zm-5.390625 -2.65625l5.40625 0q-0.109375 -1.21875 -0.625 -1.828125q-0.78125 -0.953125 -2.03125 -0.953125q-1.125 0 -1.90625 0.765625q-0.765625 0.75 -0.84375 2.015625zm9.141357 9.46875l0 -13.375l1.484375 0l0 1.25q0.53125 -0.734375 1.1875 -1.09375q0.671875 -0.375 1.625 -0.375q1.234375 0 2.171875 0.640625q0.953125 0.625 1.4375 1.796875q0.484375 1.15625 0.484375 2.546875q0 1.484375 -0.53125 2.671875q-0.53125 1.1875 -1.546875 1.828125q-1.015625 0.625 -2.140625 0.625q-0.8125 0 -1.46875 -0.34375q-0.65625 -0.34375 -1.0625 -0.875l0 4.703125l-1.640625 0zm1.484375 -8.484375q0 1.859375 0.75 2.765625q0.765625 0.890625 1.828125 0.890625q1.09375 0 1.875 -0.921875q0.78125 -0.9375 0.78125 -2.875q0 -1.84375 -0.765625 -2.765625q-0.75 -0.921875 -1.8125 -0.921875q-1.046875 0 -1.859375 0.984375q-0.796875 0.96875 -0.796875 2.84375zm8.844482 4.78125l0 -13.359375l1.640625 0l0 13.359375l-1.640625 0zm3.5823364 -4.84375q0 -2.6875 1.484375 -3.96875q1.25 -1.078125 3.046875 -1.078125q2.0 0 3.265625 1.3125q1.265625 1.296875 1.265625 3.609375q0 1.859375 -0.5625 2.9375q-0.5625 1.0625 -1.640625 1.65625q-1.0625 0.59375 -2.328125 0.59375q-2.03125 0 -3.28125 -1.296875q-1.25 -1.3125 -1.25 -3.765625zm1.6875 0q0 1.859375 0.796875 2.796875q0.8125 0.921875 2.046875 0.921875q1.21875 0 2.03125 -0.921875q0.8125 -0.9375 0.8125 -2.84375q0 -1.796875 -0.8125 -2.71875q-0.8125 -0.921875 -2.03125 -0.921875q-1.234375 0 -2.046875 0.921875q-0.796875 0.90625 -0.796875 2.765625zm9.219482 8.5625l-0.1875 -1.53125q0.546875 0.140625 0.9375 0.140625q0.546875 0 0.875 -0.1875q0.328125 -0.171875 0.546875 -0.5q0.15625 -0.25 0.5 -1.21875q0.046875 -0.140625 0.140625 -0.40625l-3.671875 -9.6875l1.765625 0l2.015625 5.59375q0.390625 1.078125 0.703125 2.25q0.28125 -1.125 0.671875 -2.203125l2.078125 -5.640625l1.640625 0l-3.6875 9.828125q-0.59375 1.609375 -0.921875 2.203125q-0.4375 0.8125 -1.0 1.1875q-0.5625 0.375 -1.34375 0.375q-0.484375 0 -1.0625 -0.203125zm9.40625 -3.71875l0 -9.671875l1.46875 0l0 1.359375q0.453125 -0.71875 1.203125 -1.140625q0.765625 -0.4375 1.71875 -0.4375q1.078125 0 1.765625 0.453125q0.6875 0.4375 0.96875 1.234375q1.15625 -1.6875 2.984375 -1.6875q1.453125 0 2.21875 0.796875q0.78125 0.796875 0.78125 2.453125l0 6.640625l-1.640625 0l0 -6.09375q0 -0.984375 -0.15625 -1.40625q-0.15625 -0.4375 -0.578125 -0.703125q-0.421875 -0.265625 -0.984375 -0.265625q-1.015625 0 -1.6875 0.6875q-0.671875 0.671875 -0.671875 2.15625l0 5.625l-1.640625 0l0 -6.28125q0 -1.09375 -0.40625 -1.640625q-0.40625 -0.546875 -1.3125 -0.546875q-0.6875 0 -1.28125 0.359375q-0.59375 0.359375 -0.859375 1.0625q-0.25 0.703125 -0.25 2.03125l0 5.015625l-1.640625 0zm22.165771 -3.109375l1.6875 0.203125q-0.40625 1.484375 -1.484375 2.3125q-1.078125 0.8125 -2.765625 0.8125q-2.125 0 -3.375 -1.296875q-1.234375 -1.3125 -1.234375 -3.671875q0 -2.453125 1.25 -3.796875q1.265625 -1.34375 3.265625 -1.34375q1.9375 0 3.15625 1.328125q1.234375 1.3125 1.234375 3.703125q0 0.15625 0 0.4375l-7.21875 0q0.09375 1.59375 0.90625 2.453125q0.8125 0.84375 2.015625 0.84375q0.90625 0 1.546875 -0.46875q0.640625 -0.484375 1.015625 -1.515625zm-5.390625 -2.65625l5.40625 0q-0.109375 -1.21875 -0.625 -1.828125q-0.78125 -0.953125 -2.03125 -0.953125q-1.125 0 -1.90625 0.765625q-0.765625 0.75 -0.84375 2.015625zm9.141357 5.765625l0 -9.671875l1.46875 0l0 1.375q1.0625 -1.59375 3.078125 -1.59375q0.875 0 1.609375 0.3125q0.734375 0.3125 1.09375 0.828125q0.375 0.5 0.515625 1.203125q0.09375 0.453125 0.09375 1.59375l0 5.953125l-1.640625 0l0 -5.890625q0 -1.0 -0.203125 -1.484375q-0.1875 -0.5 -0.671875 -0.796875q-0.484375 -0.296875 -1.140625 -0.296875q-1.046875 0 -1.8125 0.671875q-0.75 0.65625 -0.75 2.515625l0 5.28125l-1.640625 0zm13.953857 -1.46875l0.234375 1.453125q-0.6875 0.140625 -1.234375 0.140625q-0.890625 0 -1.390625 -0.28125q-0.484375 -0.28125 -0.6875 -0.734375q-0.203125 -0.46875 -0.203125 -1.9375l0 -5.578125l-1.203125 0l0 -1.265625l1.203125 0l0 -2.390625l1.625 -0.984375l0 3.375l1.65625 0l0 1.265625l-1.65625 0l0 5.671875q0 0.6875 0.078125 0.890625q0.09375 0.203125 0.28125 0.328125q0.203125 0.109375 0.578125 0.109375q0.265625 0 0.71875 -0.0625z" fill-rule="nonzero"/><path fill="#000000" fill-opacity="0.0" d="m480.00262 659.9239c0 -100.5827 -70.82678 -150.87402 -141.65353 -201.16534c-70.82678 -50.29135 -141.65355 -100.5827 -141.65355 -201.16537" fill-rule="evenodd"/><path stroke="#000000" stroke-width="2.0" stroke-linejoin="round" stroke-linecap="butt" d="m480.00262 659.9239c0 -100.5827 -70.82678 -150.87402 -141.65353 -201.16534c-35.41339 -25.14569 -70.82678 -50.29135 -97.386826 -81.72345c-13.280014 -15.716034 -24.346695 -33.003693 -32.09337 -52.648743c-3.873352 -9.82251 -6.9166718 -20.234406 -8.991684 -31.333862c-1.0375061 -5.549713 -1.8329163 -11.271332 -2.3689728 -17.177155c-0.26802063 -2.9528809 -0.4711914 -5.9518127 -0.60736084 -8.998352c-0.03404236 -0.7616272 -0.06388855 -1.5262146 -0.089523315 -2.2938232l-0.004180908 -0.13671875" fill-rule="evenodd"/><path fill="#000000" stroke="#000000" stroke-width="2.0" stroke-linecap="butt" d="m196.80716 264.44644l2.2855072 2.2122498l-2.3495178 -6.14209l-2.1482239 6.215332z" fill-rule="evenodd"/><path fill="#000000" fill-opacity="0.0" d="m480.00262 659.9239c0 -87.800415 -57.973602 -134.12189 -110.26288 -175.60077c-52.289276 -41.478912 -98.89426 -78.115204 -110.26288 -135.49097c-11.368622 -57.375732 12.499084 -135.49095 24.9982 -135.49095" fill-rule="evenodd"/><path stroke="#000000" stroke-width="2.0" stroke-linejoin="round" stroke-linecap="butt" d="m480.00262 659.9239c0 -87.800415 -57.973602 -134.12189 -110.26288 -175.60077c-52.289276 -41.478912 -98.89426 -78.115204 -110.26288 -135.49097c-5.6842957 -28.687866 -2.5595398 -62.560608 3.548706 -89.26138c3.0541077 -13.350372 6.8540955 -24.907776 10.671753 -33.127563c0.95440674 -2.0549622 1.9099426 -3.901291 2.8551636 -5.514908c0.47262573 -0.80682373 0.942688 -1.5554352 1.4087219 -2.2428741c0.23306274 -0.34370422 0.4650879 -0.67211914 0.69595337 -0.984848l0.2614441 -0.3461914" fill-rule="evenodd"/><path fill="#000000" stroke="#000000" stroke-width="2.0" stroke-linecap="butt" d="m278.9186 217.35439l-0.5064087 3.1402283l3.692627 -5.441498l-6.3264465 1.7948608z" fill-rule="evenodd"/><path fill="#000000" fill-opacity="0.0" d="m480.00262 659.9239c0 -242.67719 72.0 -485.35434 144.0 -485.35434" fill-rule="evenodd"/><path stroke="#000000" stroke-width="2.0" stroke-linejoin="round" stroke-linecap="butt" d="m480.00262 659.9239c0 -121.33856 18.0 -242.67719 45.0 -333.68112c13.5 -45.501953 29.25 -83.42026 46.125 -109.96307c8.4375 -13.271408 17.15625 -23.698944 26.015625 -30.808624c4.4296875 -3.5548553 8.894531 -6.2802277 13.376953 -8.116882c1.1206055 -0.45916748 2.2423096 -0.86279297 3.3648682 -1.2099457c0.56121826 -0.17358398 1.1227417 -0.33303833 1.6843872 -0.47827148c0.28076172 -0.07261658 0.5616455 -0.14164734 0.8425293 -0.20713806c0.1404419 -0.03276062 0.28094482 -0.064590454 0.42138672 -0.09553528l0.3527832 -0.07550049" fill-rule="evenodd"/><path fill="#000000" stroke="#000000" stroke-width="2.0" stroke-linecap="butt" d="m617.1862 175.2878l-2.0010986 2.4724731l5.90979 -2.8843231l-6.3812256 -1.5892334z" fill-rule="evenodd"/><path fill="#000000" fill-opacity="0.0" d="m89.617355 257.59274c0 23.903137 4.0078735 35.853516 8.015747 47.806244c4.007881 11.952759 8.015755 23.907928 8.015755 47.815826" fill-rule="evenodd"/><path stroke="#000000" stroke-width="1.0" stroke-linejoin="round" stroke-linecap="butt" d="m89.61736 257.59277c0 23.903107 4.0078735 35.853455 8.015747 47.806213c2.0039368 5.9763794 4.0078735 11.953369 5.510826 19.424744c0.7514801 3.7356873 1.3777084 7.8449707 1.8160706 12.514557c0.21917725 2.3348083 0.39138794 4.8096924 0.5088043 7.447998c0.05871582 1.3191528 0.10372925 2.6791687 0.13405609 4.082947l0.017303467 0.9186096" fill-rule="evenodd"/><path fill="#000000" stroke="#000000" stroke-width="1.0" stroke-linecap="butt" d="m105.62017 349.78784l-1.1339569 -1.1151123l1.1504059 3.0802307l1.0986786 -3.09906z" fill-rule="evenodd"/></g></svg>