<svg version="1.1" viewBox="0.0 0.0 960.0 720.0" fill="none" stroke="none" stroke-linecap="square" stroke-miterlimit="10" xmlns:xlink="http://www.w3.org/1999/xlink" xmlns="http://www.w3.org/2000/svg"><clipPath id="p.0"><path d="m0 0l960.0 0l0 720.0l-960.0 0l0 -720.0z" clip-rule="nonzero"/></clipPath><g clip-path="url(#p.0)"><path fill="#000000" fill-opacity="0.0" d="m0 0l960.0 0l0 720.0l-960.0 0z" fill-rule="evenodd"/><path fill="#000000" fill-opacity="0.0" d="m68.51892 360.00037l0 0c0 -18.160156 14.721718 -32.881866 32.88189 -32.881866l0 0c8.720818 0 17.084457 3.464325 23.251007 9.630859c6.166542 6.166565 9.630882 14.530212 9.630882 23.251007l0 0c0 18.160187 -14.721725 32.881897 -32.88189 32.881897l0 0c-18.160172 0 -32.88189 -14.72171 -32.88189 -32.881897z" fill-rule="evenodd"/><path stroke="#000000" stroke-width="3.0" stroke-linejoin="round" stroke-linecap="butt" d="m68.51892 360.00037l0 0c0 -18.160156 14.721718 -32.881866 32.88189 -32.881866l0 0c8.720818 0 17.084457 3.464325 23.251007 9.630859c6.166542 6.166565 9.630882 14.530212 9.630882 23.251007l0 0c0 18.160187 -14.721725 32.881897 -32.88189 32.881897l0 0c-18.160172 0 -32.88189 -14.72171 -32.88189 -32.881897z" fill-rule="evenodd"/><path fill="#000000" fill-opacity="0.0" d="m188.8911 477.4656l0 0c0 -22.274048 18.056671 -40.33072 40.330704 -40.33072l0 0c10.696381 0 20.95465 4.249115 28.518127 11.812592c7.5634766 7.5634766 11.812592 17.821747 11.812592 28.518127l0 0c0 22.274048 -18.056671 40.33072 -40.33072 40.33072l0 0c-22.274033 0 -40.330704 -18.056671 -40.330704 -40.33072z" fill-rule="evenodd"/><path stroke="#000000" stroke-width="3.0" stroke-linejoin="round" stroke-linecap="butt" d="m188.8911 477.4656l0 0c0 -22.274048 18.056671 -40.33072 40.330704 -40.33072l0 0c10.696381 0 20.95465 4.249115 28.518127 11.812592c7.5634766 7.5634766 11.812592 17.821747 11.812592 28.518127l0 0c0 22.274048 -18.056671 40.33072 -40.33072 40.33072l0 0c-22.274033 0 -40.330704 -18.056671 -40.330704 -40.33072z" fill-rule="evenodd"/><path fill="#000000" fill-opacity="0.0" d="m124.65182 336.74936l76.062996 -65.700775" fill-rule="evenodd"/><path stroke="#000000" stroke-width="3.0" stroke-linejoin="round" stroke-linecap="butt" d="m124.65181 336.74936l68.28241 -58.980164" fill-rule="evenodd"/><path fill="#000000" stroke="#000000" stroke-width="3.0" stroke-linecap="butt" d="m192.93422 277.7692l-0.34780884 4.7585144l4.8094177 -8.612305l-9.220108 3.5059814z" fill-rule="evenodd"/><path fill="#000000" fill-opacity="0.0" d="m124.65182 383.25137l76.062996 65.700806" fill-rule="evenodd"/><path stroke="#000000" stroke-width="3.0" stroke-linejoin="round" stroke-linecap="butt" d="m124.65181 383.2514l68.28241 58.980133" fill-rule="evenodd"/><path fill="#000000" stroke="#000000" stroke-width="3.0" stroke-linecap="butt" d="m192.93422 442.23157l-4.758499 0.34780884l9.220108 3.5059814l-4.8094177 -8.612305z" fill-rule="evenodd"/><path fill="#cfe2f3" d="m128.17163 409.7015l8.160446 8.160431l8.160461 -8.160431l7.681961 7.681946l-8.160461 8.160461l8.160461 8.160461l-7.681961 7.681946l-8.160461 -8.160431l-8.160446 8.160431l-7.6819763 -7.681946l8.160461 -8.160461l-8.160461 -8.160461z" fill-rule="evenodd"/><path stroke="#000000" stroke-width="1.0" stroke-linejoin="round" stroke-linecap="butt" d="m128.17163 409.7015l8.160446 8.160431l8.160461 -8.160431l7.681961 7.681946l-8.160461 8.160461l8.160461 8.160461l-7.681961 7.681946l-8.160461 -8.160431l-8.160446 8.160431l-7.6819763 -7.681946l8.160461 -8.160461l-8.160461 -8.160461z" fill-rule="evenodd"/><g filter="url(#shadowFilter-p.1)"><use xlink:href="#p.1" transform="matrix(1.0 0.0 0.0 1.0 0.0 2.0)"/></g><defs><filter id="shadowFilter-p.1" filterUnits="userSpaceOnUse"><feGaussianBlur in="SourceAlpha" stdDeviation="2.0" result="blur"/><feComponentTransfer in="blur" color-interpolation-filters="sRGB"><feFuncR type="linear" slope="0" intercept="0.0"/><feFuncG type="linear" slope="0" intercept="0.0"/><feFuncB type="linear" slope="0" intercept="0.0"/><feFuncA type="linear" slope="0.5" intercept="0"/></feComponentTransfer></filter></defs><g id="p.1"><path fill="#93c47d" d="m164.51576 429.33093l24.37796 24.37796l-24.37796 24.37796l-24.377945 -24.37796z" fill-rule="evenodd"/><path stroke="#000000" stroke-width="1.0" stroke-linejoin="round" stroke-linecap="butt" d="m164.51576 429.33093l24.37796 24.37796l-24.37796 24.37796l-24.377945 -24.37796z" fill-rule="evenodd"/></g><path fill="#000000" fill-opacity="0.0" d="m188.8911 242.53647l0 0c0 -22.274033 18.056671 -40.330704 40.330704 -40.330704l0 0c10.696381 0 20.95465 4.249115 28.518127 11.812592c7.5634766 7.5634766 11.812592 17.821747 11.812592 28.518112l0 0c0 22.274048 -18.056671 40.33072 -40.33072 40.33072l0 0c-22.274033 0 -40.330704 -18.056671 -40.330704 -40.33072z" fill-rule="evenodd"/><path stroke="#000000" stroke-width="3.0" stroke-linejoin="round" stroke-linecap="butt" d="m188.8911 242.53647l0 0c0 -22.274033 18.056671 -40.330704 40.330704 -40.330704l0 0c10.696381 0 20.95465 4.249115 28.518127 11.812592c7.5634766 7.5634766 11.812592 17.821747 11.812592 28.518112l0 0c0 22.274048 -18.056671 40.33072 -40.33072 40.33072l0 0c-22.274033 0 -40.330704 -18.056671 -40.330704 -40.33072z" fill-rule="evenodd"/><path fill="#cfe2f3" d="m120.49117 302.61725l8.160454 -8.160461l-8.160454 -8.160461l7.6819687 -7.681946l8.160446 8.160431l8.160461 -8.160431l7.681961 7.681946l-8.160446 8.160461l8.160446 8.160461l-7.681961 7.681946l-8.160461 -8.160431l-8.160446 8.160431z" fill-rule="evenodd"/><path stroke="#000000" stroke-width="1.0" stroke-linejoin="round" stroke-linecap="butt" d="m120.49117 302.61725l8.160454 -8.160461l-8.160454 -8.160461l7.6819687 -7.681946l8.160446 8.160431l8.160461 -8.160431l7.681961 7.681946l-8.160446 8.160461l8.160446 8.160461l-7.681961 7.681946l-8.160461 -8.160431l-8.160446 8.160431z" fill-rule="evenodd"/><g filter="url(#shadowFilter-p.2)"><use xlink:href="#p.2" transform="matrix(1.0 0.0 0.0 1.0 0.0 2.0)"/></g><defs><filter id="shadowFilter-p.2" filterUnits="userSpaceOnUse"><feGaussianBlur in="SourceAlpha" stdDeviation="2.0" result="blur"/><feComponentTransfer in="blur" color-interpolation-filters="sRGB"><feFuncR type="linear" slope="0" intercept="0.0"/><feFuncG type="linear" slope="0" intercept="0.0"/><feFuncB type="linear" slope="0" intercept="0.0"/><feFuncA type="linear" slope="0.5" intercept="0"/></feComponentTransfer></filter></defs><g id="p.2"><path fill="#ffd966" d="m140.12062 266.2731l24.37796 -24.37796l24.377945 24.37796l-24.377945 24.37796z" fill-rule="evenodd"/><path stroke="#000000" stroke-width="1.0" stroke-linejoin="round" stroke-linecap="butt" d="m140.12062 266.2731l24.37796 -24.37796l24.377945 24.37796l-24.377945 24.37796z" fill-rule="evenodd"/></g><g filter="url(#shadowFilter-p.3)"><use xlink:href="#p.3" transform="matrix(1.0 0.0 0.0 1.0 0.0 2.0)"/></g><defs><filter id="shadowFilter-p.3" filterUnits="userSpaceOnUse"><feGaussianBlur in="SourceAlpha" stdDeviation="2.0" result="blur"/><feComponentTransfer in="blur" color-interpolation-filters="sRGB"><feFuncR type="linear" slope="0" intercept="0.0"/><feFuncG type="linear" slope="0" intercept="0.0"/><feFuncB type="linear" slope="0" intercept="0.0"/><feFuncA type="linear" slope="0.5" intercept="0"/></feComponentTransfer></filter></defs><g id="p.3"><path fill="#93c47d" d="m211.9866 460.227l34.48819 0l0 34.48819l-34.48819 0z" fill-rule="evenodd"/><path stroke="#000000" stroke-width="1.0" stroke-linejoin="round" stroke-linecap="butt" d="m211.9866 460.227l34.48819 0l0 34.48819l-34.48819 0z" fill-rule="evenodd"/></g><g filter="url(#shadowFilter-p.4)"><use xlink:href="#p.4" transform="matrix(1.0 0.0 0.0 1.0 0.0 2.0)"/></g><defs><filter id="shadowFilter-p.4" filterUnits="userSpaceOnUse"><feGaussianBlur in="SourceAlpha" stdDeviation="2.0" result="blur"/><feComponentTransfer in="blur" color-interpolation-filters="sRGB"><feFuncR type="linear" slope="0" intercept="0.0"/><feFuncG type="linear" slope="0" intercept="0.0"/><feFuncB type="linear" slope="0" intercept="0.0"/><feFuncA type="linear" slope="0.5" intercept="0"/></feComponentTransfer></filter></defs><g id="p.4"><path fill="#ffd966" d="m211.98517 225.29776l34.48819 0l0 34.48819l-34.48819 0z" fill-rule="evenodd"/><path stroke="#000000" stroke-width="1.0" stroke-linejoin="round" stroke-linecap="butt" d="m211.98517 225.29776l34.48819 0l0 34.48819l-34.48819 0z" fill-rule="evenodd"/></g><path fill="#000000" fill-opacity="0.0" d="m390.56506 477.46457l0 0c0 -34.493866 27.96283 -62.456696 62.456696 -62.456696l0 0c16.564545 0 32.450653 6.5802307 44.163544 18.293152c11.712921 11.712891 18.293152 27.598999 18.293152 44.163544l0 0c0 34.493866 -27.9628 62.456696 -62.456696 62.456696l0 0c-34.493866 0 -62.456696 -27.96283 -62.456696 -62.456696z" fill-rule="evenodd"/><path stroke="#000000" stroke-width="3.0" stroke-linejoin="round" stroke-linecap="butt" d="m390.56506 477.46457l0 0c0 -34.493866 27.96283 -62.456696 62.456696 -62.456696l0 0c16.564545 0 32.450653 6.5802307 44.163544 18.293152c11.712921 11.712891 18.293152 27.598999 18.293152 44.163544l0 0c0 34.493866 -27.9628 62.456696 -62.456696 62.456696l0 0c-34.493866 0 -62.456696 -27.96283 -62.456696 -62.456696z" fill-rule="evenodd"/><g filter="url(#shadowFilter-p.5)"><use xlink:href="#p.5" transform="matrix(1.0 0.0 0.0 1.0 0.0 2.0)"/></g><defs><filter id="shadowFilter-p.5" filterUnits="userSpaceOnUse"><feGaussianBlur in="SourceAlpha" stdDeviation="2.0" result="blur"/><feComponentTransfer in="blur" color-interpolation-filters="sRGB"><feFuncR type="linear" slope="0" intercept="0.0"/><feFuncG type="linear" slope="0" intercept="0.0"/><feFuncB type="linear" slope="0" intercept="0.0"/><feFuncA type="linear" slope="0.5" intercept="0"/></feComponentTransfer></filter></defs><g id="p.5"><path fill="#93c47d" d="m461.14148 458.59183l34.48816 0l0 34.48819l-34.48816 0z" fill-rule="evenodd"/><path stroke="#000000" stroke-width="1.0" stroke-linejoin="round" stroke-linecap="butt" d="m461.14148 458.59183l34.48816 0l0 34.48819l-34.48816 0z" fill-rule="evenodd"/></g><path fill="#000000" fill-opacity="0.0" d="m269.55252 477.4656l121.00787 0" fill-rule="evenodd"/><path stroke="#000000" stroke-width="3.0" stroke-linejoin="round" stroke-linecap="butt" d="m269.55252 477.4656l110.72662 0" fill-rule="evenodd"/><path fill="#000000" stroke="#000000" stroke-width="3.0" stroke-linecap="butt" d="m380.27914 477.4656l-3.3737488 3.3737488l9.269318 -3.3737488l-9.269318 -3.3737793z" fill-rule="evenodd"/><path fill="#000000" fill-opacity="0.0" d="m269.55252 242.53647l121.00787 0" fill-rule="evenodd"/><path stroke="#000000" stroke-width="3.0" stroke-linejoin="round" stroke-linecap="butt" d="m269.55252 242.53648l110.72662 0" fill-rule="evenodd"/><path fill="#000000" stroke="#000000" stroke-width="3.0" stroke-linecap="butt" d="m380.27914 242.53648l-3.3737488 3.3737488l9.269318 -3.3737488l-9.269318 -3.3737488z" fill-rule="evenodd"/><g filter="url(#shadowFilter-p.6)"><use xlink:href="#p.6" transform="matrix(1.0 0.0 0.0 1.0 0.0 2.0)"/></g><defs><filter id="shadowFilter-p.6" filterUnits="userSpaceOnUse"><feGaussianBlur in="SourceAlpha" stdDeviation="2.0" result="blur"/><feComponentTransfer in="blur" color-interpolation-filters="sRGB"><feFuncR type="linear" slope="0" intercept="0.0"/><feFuncG type="linear" slope="0" intercept="0.0"/><feFuncB type="linear" slope="0" intercept="0.0"/><feFuncA type="linear" slope="0.5" intercept="0"/></feComponentTransfer></filter></defs><g id="p.6"><path fill="#6fa8dc" d="m324.36224 500.59882l0 0c0 -9.497559 7.720459 -17.196869 17.24411 -17.196869l0 0c4.573395 0 8.959503 1.8117981 12.19342 5.0368347c3.2338867 3.2250366 5.050659 7.599121 5.050659 12.160034l0 0c0 9.497559 -7.7204285 17.196838 -17.24408 17.196838l0 0c-9.523651 0 -17.24411 -7.69928 -17.24411 -17.196838z" fill-rule="evenodd"/><path stroke="#000000" stroke-width="1.0" stroke-linejoin="round" stroke-linecap="butt" d="m324.36224 500.59882l0 0c0 -9.497559 7.720459 -17.196869 17.24411 -17.196869l0 0c4.573395 0 8.959503 1.8117981 12.19342 5.0368347c3.2338867 3.2250366 5.050659 7.599121 5.050659 12.160034l0 0c0 9.497559 -7.7204285 17.196838 -17.24408 17.196838l0 0c-9.523651 0 -17.24411 -7.69928 -17.24411 -17.196838z" fill-rule="evenodd"/></g><path fill="#cfe2f3" d="m284.2984 495.16473l11.5442505 0l0 -11.5442505l10.867371 0l0 11.5442505l11.5442505 0l0 10.86734l-11.5442505 0l0 11.544281l-10.867371 0l0 -11.544281l-11.5442505 0z" fill-rule="evenodd"/><path stroke="#000000" stroke-width="1.0" stroke-linejoin="round" stroke-linecap="butt" d="m284.2984 495.16473l11.5442505 0l0 -11.5442505l10.867371 0l0 11.5442505l11.5442505 0l0 10.86734l-11.5442505 0l0 11.544281l-10.867371 0l0 -11.544281l-11.5442505 0z" fill-rule="evenodd"/><g filter="url(#shadowFilter-p.7)"><use xlink:href="#p.7" transform="matrix(1.0 0.0 0.0 1.0 0.0 2.0)"/></g><defs><filter id="shadowFilter-p.7" filterUnits="userSpaceOnUse"><feGaussianBlur in="SourceAlpha" stdDeviation="2.0" result="blur"/><feComponentTransfer in="blur" color-interpolation-filters="sRGB"><feFuncR type="linear" slope="0" intercept="0.0"/><feFuncG type="linear" slope="0" intercept="0.0"/><feFuncB type="linear" slope="0" intercept="0.0"/><feFuncA type="linear" slope="0.5" intercept="0"/></feComponentTransfer></filter></defs><g id="p.7"><path fill="#6fa8dc" d="m324.3688 212.46758l0 0c0 -9.497559 7.720459 -17.196854 17.24411 -17.196854l0 0c4.573395 0 8.959503 1.8117981 12.19342 5.0368347c3.2338867 3.2250366 5.050659 7.599121 5.050659 12.160019l0 0c0 9.497543 -7.7204285 17.196838 -17.24408 17.196838l0 0c-9.523651 0 -17.24411 -7.699295 -17.24411 -17.196838z" fill-rule="evenodd"/><path stroke="#000000" stroke-width="1.0" stroke-linejoin="round" stroke-linecap="butt" d="m324.3688 212.46758l0 0c0 -9.497559 7.720459 -17.196854 17.24411 -17.196854l0 0c4.573395 0 8.959503 1.8117981 12.19342 5.0368347c3.2338867 3.2250366 5.050659 7.599121 5.050659 12.160019l0 0c0 9.497543 -7.7204285 17.196838 -17.24408 17.196838l0 0c-9.523651 0 -17.24411 -7.699295 -17.24411 -17.196838z" fill-rule="evenodd"/></g><path fill="#cfe2f3" d="m284.30496 207.03351l11.5442505 0l0 -11.5442505l10.867371 0l0 11.5442505l11.5442505 0l0 10.86734l-11.5442505 0l0 11.5442505l-10.867371 0l0 -11.5442505l-11.5442505 0z" fill-rule="evenodd"/><path stroke="#000000" stroke-width="1.0" stroke-linejoin="round" stroke-linecap="butt" d="m284.30496 207.03351l11.5442505 0l0 -11.5442505l10.867371 0l0 11.5442505l11.5442505 0l0 10.86734l-11.5442505 0l0 11.5442505l-10.867371 0l0 -11.5442505l-11.5442505 0z" fill-rule="evenodd"/><path fill="#000000" fill-opacity="0.0" d="m390.56506 242.53543l0 0c0 -34.49388 27.96283 -62.456696 62.456696 -62.456696l0 0c16.564545 0 32.450653 6.580246 44.163544 18.293152c11.712921 11.712891 18.293152 27.598999 18.293152 44.163544l0 0c0 34.493866 -27.9628 62.456696 -62.456696 62.456696l0 0c-34.493866 0 -62.456696 -27.96283 -62.456696 -62.456696z" fill-rule="evenodd"/><path stroke="#000000" stroke-width="3.0" stroke-linejoin="round" stroke-linecap="butt" d="m390.56506 242.53543l0 0c0 -34.49388 27.96283 -62.456696 62.456696 -62.456696l0 0c16.564545 0 32.450653 6.580246 44.163544 18.293152c11.712921 11.712891 18.293152 27.598999 18.293152 44.163544l0 0c0 34.493866 -27.9628 62.456696 -62.456696 62.456696l0 0c-34.493866 0 -62.456696 -27.96283 -62.456696 -62.456696z" fill-rule="evenodd"/><g filter="url(#shadowFilter-p.8)"><use xlink:href="#p.8" transform="matrix(1.0 0.0 0.0 1.0 0.0 2.0)"/></g><defs><filter id="shadowFilter-p.8" filterUnits="userSpaceOnUse"><feGaussianBlur in="SourceAlpha" stdDeviation="2.0" result="blur"/><feComponentTransfer in="blur" color-interpolation-filters="sRGB"><feFuncR type="linear" slope="0" intercept="0.0"/><feFuncG type="linear" slope="0" intercept="0.0"/><feFuncB type="linear" slope="0" intercept="0.0"/><feFuncA type="linear" slope="0.5" intercept="0"/></feComponentTransfer></filter></defs><g id="p.8"><path fill="#ffd966" d="m461.13477 219.76494l34.48819 0l0 34.48819l-34.48819 0z" fill-rule="evenodd"/><path stroke="#000000" stroke-width="1.0" stroke-linejoin="round" stroke-linecap="butt" d="m461.13477 219.76494l34.48819 0l0 34.48819l-34.48819 0z" fill-rule="evenodd"/></g><g filter="url(#shadowFilter-p.9)"><use xlink:href="#p.9" transform="matrix(1.0 0.0 0.0 1.0 0.0 2.0)"/></g><defs><filter id="shadowFilter-p.9" filterUnits="userSpaceOnUse"><feGaussianBlur in="SourceAlpha" stdDeviation="2.0" result="blur"/><feComponentTransfer in="blur" color-interpolation-filters="sRGB"><feFuncR type="linear" slope="0" intercept="0.0"/><feFuncG type="linear" slope="0" intercept="0.0"/><feFuncB type="linear" slope="0" intercept="0.0"/><feFuncA type="linear" slope="0.5" intercept="0"/></feComponentTransfer></filter></defs><g id="p.9"><path fill="#6fa8dc" d="m413.64703 475.83502l0 0c0 -9.497559 7.7204285 -17.196838 17.24408 -17.196838l0 0c4.5734253 0 8.959534 1.8117981 12.19342 5.0368347c3.2338867 3.2250366 5.0506897 7.599121 5.0506897 12.160004l0 0c0 9.497559 -7.720459 17.196838 -17.24411 17.196838l0 0c-9.523651 0 -17.24408 -7.69928 -17.24408 -17.196838z" fill-rule="evenodd"/><path stroke="#000000" stroke-width="1.0" stroke-linejoin="round" stroke-linecap="butt" d="m413.64703 475.83502l0 0c0 -9.497559 7.7204285 -17.196838 17.24408 -17.196838l0 0c4.5734253 0 8.959534 1.8117981 12.19342 5.0368347c3.2338867 3.2250366 5.0506897 7.599121 5.0506897 12.160004l0 0c0 9.497559 -7.720459 17.196838 -17.24411 17.196838l0 0c-9.523651 0 -17.24408 -7.69928 -17.24408 -17.196838z" fill-rule="evenodd"/></g><g filter="url(#shadowFilter-p.10)"><use xlink:href="#p.10" transform="matrix(1.0 0.0 0.0 1.0 0.0 2.0)"/></g><defs><filter id="shadowFilter-p.10" filterUnits="userSpaceOnUse"><feGaussianBlur in="SourceAlpha" stdDeviation="2.0" result="blur"/><feComponentTransfer in="blur" color-interpolation-filters="sRGB"><feFuncR type="linear" slope="0" intercept="0.0"/><feFuncG type="linear" slope="0" intercept="0.0"/><feFuncB type="linear" slope="0" intercept="0.0"/><feFuncA type="linear" slope="0.5" intercept="0"/></feComponentTransfer></filter></defs><g id="p.10"><path fill="#6fa8dc" d="m413.64835 237.00826l0 0c0 -9.497559 7.7204285 -17.196854 17.24408 -17.196854l0 0c4.5734253 0 8.959534 1.8117981 12.19342 5.0368347c3.2338867 3.2250366 5.0506897 7.599121 5.0506897 12.160019l0 0c0 9.497559 -7.720459 17.196838 -17.24411 17.196838l0 0c-9.523651 0 -17.24408 -7.69928 -17.24408 -17.196838z" fill-rule="evenodd"/><path stroke="#000000" stroke-width="1.0" stroke-linejoin="round" stroke-linecap="butt" d="m413.64835 237.00826l0 0c0 -9.497559 7.7204285 -17.196854 17.24408 -17.196854l0 0c4.5734253 0 8.959534 1.8117981 12.19342 5.0368347c3.2338867 3.2250366 5.0506897 7.599121 5.0506897 12.160019l0 0c0 9.497559 -7.720459 17.196838 -17.24411 17.196838l0 0c-9.523651 0 -17.24408 -7.69928 -17.24408 -17.196838z" fill-rule="evenodd"/></g><g filter="url(#shadowFilter-p.11)"><use xlink:href="#p.11" transform="matrix(1.0 0.0 0.0 1.0 0.0 2.0)"/></g><defs><filter id="shadowFilter-p.11" filterUnits="userSpaceOnUse"><feGaussianBlur in="SourceAlpha" stdDeviation="2.0" result="blur"/><feComponentTransfer in="blur" color-interpolation-filters="sRGB"><feFuncR type="linear" slope="0" intercept="0.0"/><feFuncG type="linear" slope="0" intercept="0.0"/><feFuncB type="linear" slope="0" intercept="0.0"/><feFuncA type="linear" slope="0.5" intercept="0"/></feComponentTransfer></filter></defs><g id="p.11"><path fill="#e06666" d="m567.58795 235.61717l19.937012 -34.48819l19.937012 34.48819z" fill-rule="evenodd"/><path stroke="#000000" stroke-width="1.0" stroke-linejoin="round" stroke-linecap="butt" d="m567.58795 235.61717l19.937012 -34.48819l19.937012 34.48819z" fill-rule="evenodd"/></g><path fill="#000000" fill-opacity="0.0" d="m632.3945 475.83466l0 0c0 -34.493896 27.96283 -62.456696 62.456665 -62.456696l0 0c16.564575 0 32.450684 6.5802307 44.163574 18.293121c11.712891 11.712921 18.293152 27.59903 18.293152 44.163574l0 0c0 34.493866 -27.96283 62.456665 -62.456726 62.456665l0 0c-34.493835 0 -62.456665 -27.9628 -62.456665 -62.456665z" fill-rule="evenodd"/><path stroke="#000000" stroke-width="3.0" stroke-linejoin="round" stroke-linecap="butt" d="m632.3945 475.83466l0 0c0 -34.493896 27.96283 -62.456696 62.456665 -62.456696l0 0c16.564575 0 32.450684 6.5802307 44.163574 18.293121c11.712891 11.712921 18.293152 27.59903 18.293152 44.163574l0 0c0 34.493866 -27.96283 62.456665 -62.456726 62.456665l0 0c-34.493835 0 -62.456665 -27.9628 -62.456665 -62.456665z" fill-rule="evenodd"/><g filter="url(#shadowFilter-p.12)"><use xlink:href="#p.12" transform="matrix(1.0 0.0 0.0 1.0 0.0 2.0)"/></g><defs><filter id="shadowFilter-p.12" filterUnits="userSpaceOnUse"><feGaussianBlur in="SourceAlpha" stdDeviation="2.0" result="blur"/><feComponentTransfer in="blur" color-interpolation-filters="sRGB"><feFuncR type="linear" slope="0" intercept="0.0"/><feFuncG type="linear" slope="0" intercept="0.0"/><feFuncB type="linear" slope="0" intercept="0.0"/><feFuncA type="linear" slope="0.5" intercept="0"/></feComponentTransfer></filter></defs><g id="p.12"><path fill="#93c47d" d="m702.9709 456.96188l34.48816 0l0 34.48819l-34.48816 0z" fill-rule="evenodd"/><path stroke="#000000" stroke-width="1.0" stroke-linejoin="round" stroke-linecap="butt" d="m702.9709 456.96188l34.48816 0l0 34.48819l-34.48816 0z" fill-rule="evenodd"/></g><g filter="url(#shadowFilter-p.13)"><use xlink:href="#p.13" transform="matrix(1.0 0.0 0.0 1.0 0.0 2.0)"/></g><defs><filter id="shadowFilter-p.13" filterUnits="userSpaceOnUse"><feGaussianBlur in="SourceAlpha" stdDeviation="2.0" result="blur"/><feComponentTransfer in="blur" color-interpolation-filters="sRGB"><feFuncR type="linear" slope="0" intercept="0.0"/><feFuncG type="linear" slope="0" intercept="0.0"/><feFuncB type="linear" slope="0" intercept="0.0"/><feFuncA type="linear" slope="0.5" intercept="0"/></feComponentTransfer></filter></defs><g id="p.13"><path fill="#6fa8dc" d="m655.47644 474.2051l0 0c0 -9.497559 7.720398 -17.196869 17.24408 -17.196869l0 0c4.5734253 0 8.959534 1.8118286 12.19342 5.036865c3.2338867 3.225006 5.050659 7.599121 5.050659 12.160004l0 0c0 9.497559 -7.720459 17.196838 -17.24408 17.196838l0 0c-9.523682 0 -17.24408 -7.69928 -17.24408 -17.196838z" fill-rule="evenodd"/><path stroke="#000000" stroke-width="1.0" stroke-linejoin="round" stroke-linecap="butt" d="m655.47644 474.2051l0 0c0 -9.497559 7.720398 -17.196869 17.24408 -17.196869l0 0c4.5734253 0 8.959534 1.8118286 12.19342 5.036865c3.2338867 3.225006 5.050659 7.599121 5.050659 12.160004l0 0c0 9.497559 -7.720459 17.196838 -17.24408 17.196838l0 0c-9.523682 0 -17.24408 -7.69928 -17.24408 -17.196838z" fill-rule="evenodd"/></g><path fill="#000000" fill-opacity="0.0" d="m515.47845 477.46457l116.91339 -1.6377869" fill-rule="evenodd"/><path stroke="#000000" stroke-width="3.0" stroke-linejoin="round" stroke-linecap="butt" d="m515.47845 477.46457l106.63312 -1.4937744" fill-rule="evenodd"/><path fill="#000000" stroke="#000000" stroke-width="3.0" stroke-linecap="butt" d="m622.11163 475.9708l-3.3261719 3.4206543l9.22113 -3.5032349l-9.315674 -3.2435913z" fill-rule="evenodd"/><path fill="#cfe2f3" d="m530.2223 501.10175l11.5442505 0l0 -11.5442505l10.867371 0l0 11.5442505l11.5442505 0l0 10.86734l-11.5442505 0l0 11.544281l-10.867371 0l0 -11.544281l-11.5442505 0z" fill-rule="evenodd"/><path stroke="#000000" stroke-width="1.0" stroke-linejoin="round" stroke-linecap="butt" d="m530.2223 501.10175l11.5442505 0l0 -11.5442505l10.867371 0l0 11.5442505l11.5442505 0l0 10.86734l-11.5442505 0l0 11.544281l-10.867371 0l0 -11.544281l-11.5442505 0z" fill-rule="evenodd"/><path fill="#000000" fill-opacity="0.0" d="m636.48895 242.54068l0 0c0 -34.49388 27.96283 -62.456696 62.456726 -62.456696l0 0c16.564514 0 32.450623 6.580246 44.163513 18.293152c11.712891 11.712891 18.293152 27.598999 18.293152 44.163544l0 0c0 34.493896 -27.96283 62.456696 -62.456665 62.456696l0 0c-34.493896 0 -62.456726 -27.9628 -62.456726 -62.456696z" fill-rule="evenodd"/><path stroke="#000000" stroke-width="3.0" stroke-linejoin="round" stroke-linecap="butt" d="m636.48895 242.54068l0 0c0 -34.49388 27.96283 -62.456696 62.456726 -62.456696l0 0c16.564514 0 32.450623 6.580246 44.163513 18.293152c11.712891 11.712891 18.293152 27.598999 18.293152 44.163544l0 0c0 34.493896 -27.96283 62.456696 -62.456665 62.456696l0 0c-34.493896 0 -62.456726 -27.9628 -62.456726 -62.456696z" fill-rule="evenodd"/><g filter="url(#shadowFilter-p.14)"><use xlink:href="#p.14" transform="matrix(1.0 0.0 0.0 1.0 0.0 2.0)"/></g><defs><filter id="shadowFilter-p.14" filterUnits="userSpaceOnUse"><feGaussianBlur in="SourceAlpha" stdDeviation="2.0" result="blur"/><feComponentTransfer in="blur" color-interpolation-filters="sRGB"><feFuncR type="linear" slope="0" intercept="0.0"/><feFuncG type="linear" slope="0" intercept="0.0"/><feFuncB type="linear" slope="0" intercept="0.0"/><feFuncA type="linear" slope="0.5" intercept="0"/></feComponentTransfer></filter></defs><g id="p.14"><path fill="#ffd966" d="m707.05865 219.77019l34.48822 0l0 34.48819l-34.48822 0z" fill-rule="evenodd"/><path stroke="#000000" stroke-width="1.0" stroke-linejoin="round" stroke-linecap="butt" d="m707.05865 219.77019l34.48822 0l0 34.48819l-34.48822 0z" fill-rule="evenodd"/></g><g filter="url(#shadowFilter-p.15)"><use xlink:href="#p.15" transform="matrix(1.0 0.0 0.0 1.0 0.0 2.0)"/></g><defs><filter id="shadowFilter-p.15" filterUnits="userSpaceOnUse"><feGaussianBlur in="SourceAlpha" stdDeviation="2.0" result="blur"/><feComponentTransfer in="blur" color-interpolation-filters="sRGB"><feFuncR type="linear" slope="0" intercept="0.0"/><feFuncG type="linear" slope="0" intercept="0.0"/><feFuncB type="linear" slope="0" intercept="0.0"/><feFuncA type="linear" slope="0.5" intercept="0"/></feComponentTransfer></filter></defs><g id="p.15"><path fill="#6fa8dc" d="m659.5722 237.0135l0 0c0 -9.497559 7.720459 -17.196854 17.24414 -17.196854l0 0c4.5733643 0 8.959473 1.8117981 12.193359 5.0368347c3.2339478 3.2250366 5.05072 7.599121 5.05072 12.160019l0 0c0 9.497559 -7.720459 17.196838 -17.24408 17.196838l0 0c-9.523682 0 -17.24414 -7.69928 -17.24414 -17.196838z" fill-rule="evenodd"/><path stroke="#000000" stroke-width="1.0" stroke-linejoin="round" stroke-linecap="butt" d="m659.5722 237.0135l0 0c0 -9.497559 7.720459 -17.196854 17.24414 -17.196854l0 0c4.5733643 0 8.959473 1.8117981 12.193359 5.0368347c3.2339478 3.2250366 5.05072 7.599121 5.05072 12.160019l0 0c0 9.497559 -7.720459 17.196838 -17.24408 17.196838l0 0c-9.523682 0 -17.24414 -7.69928 -17.24414 -17.196838z" fill-rule="evenodd"/></g><path fill="#000000" fill-opacity="0.0" d="m515.47845 242.53543l121.00787 0" fill-rule="evenodd"/><path stroke="#000000" stroke-width="3.0" stroke-linejoin="round" stroke-linecap="butt" d="m515.47845 242.53543l110.72662 0" fill-rule="evenodd"/><path fill="#000000" stroke="#000000" stroke-width="3.0" stroke-linecap="butt" d="m626.2051 242.53543l-3.3737183 3.3737488l9.269287 -3.3737488l-9.269287 -3.3737488z" fill-rule="evenodd"/><path fill="#cfe2f3" d="m531.84436 212.93901l11.5442505 0l0 -11.5442505l10.86731 0l0 11.5442505l11.5442505 0l0 10.867355l-11.5442505 0l0 11.5442505l-10.86731 0l0 -11.5442505l-11.5442505 0z" fill-rule="evenodd"/><path stroke="#000000" stroke-width="1.0" stroke-linejoin="round" stroke-linecap="butt" d="m531.84436 212.93901l11.5442505 0l0 -11.5442505l10.86731 0l0 11.5442505l11.5442505 0l0 10.867355l-11.5442505 0l0 11.5442505l-10.86731 0l0 -11.5442505l-11.5442505 0z" fill-rule="evenodd"/><g filter="url(#shadowFilter-p.16)"><use xlink:href="#p.16" transform="matrix(1.0 0.0 0.0 1.0 0.0 2.0)"/></g><defs><filter id="shadowFilter-p.16" filterUnits="userSpaceOnUse"><feGaussianBlur in="SourceAlpha" stdDeviation="2.0" result="blur"/><feComponentTransfer in="blur" color-interpolation-filters="sRGB"><feFuncR type="linear" slope="0" intercept="0.0"/><feFuncG type="linear" slope="0" intercept="0.0"/><feFuncB type="linear" slope="0" intercept="0.0"/><feFuncA type="linear" slope="0.5" intercept="0"/></feComponentTransfer></filter></defs><g id="p.16"><path fill="#e06666" d="m569.2153 523.7799l19.937012 -34.48819l19.93695 34.48819z" fill-rule="evenodd"/><path stroke="#000000" stroke-width="1.0" stroke-linejoin="round" stroke-linecap="butt" d="m569.2153 523.7799l19.937012 -34.48819l19.93695 34.48819z" fill-rule="evenodd"/></g><g filter="url(#shadowFilter-p.17)"><use xlink:href="#p.17" transform="matrix(1.0 0.0 0.0 1.0 0.0 2.0)"/></g><defs><filter id="shadowFilter-p.17" filterUnits="userSpaceOnUse"><feGaussianBlur in="SourceAlpha" stdDeviation="2.0" result="blur"/><feComponentTransfer in="blur" color-interpolation-filters="sRGB"><feFuncR type="linear" slope="0" intercept="0.0"/><feFuncG type="linear" slope="0" intercept="0.0"/><feFuncB type="linear" slope="0" intercept="0.0"/><feFuncA type="linear" slope="0.5" intercept="0"/></feComponentTransfer></filter></defs><g id="p.17"><path fill="#e06666" d="m674.9134 523.7799l19.937012 -34.48819l19.937012 34.48819z" fill-rule="evenodd"/><path stroke="#000000" stroke-width="1.0" stroke-linejoin="round" stroke-linecap="butt" d="m674.9134 523.7799l19.937012 -34.48819l19.937012 34.48819z" fill-rule="evenodd"/></g><g filter="url(#shadowFilter-p.18)"><use xlink:href="#p.18" transform="matrix(1.0 0.0 0.0 1.0 0.0 2.0)"/></g><defs><filter id="shadowFilter-p.18" filterUnits="userSpaceOnUse"><feGaussianBlur in="SourceAlpha" stdDeviation="2.0" result="blur"/><feComponentTransfer in="blur" color-interpolation-filters="sRGB"><feFuncR type="linear" slope="0" intercept="0.0"/><feFuncG type="linear" slope="0" intercept="0.0"/><feFuncB type="linear" slope="0" intercept="0.0"/><feFuncA type="linear" slope="0.5" intercept="0"/></feComponentTransfer></filter></defs><g id="p.18"><path fill="#e06666" d="m679.0079 283.51743l19.937012 -34.488174l19.937012 34.488174z" fill-rule="evenodd"/><path stroke="#000000" stroke-width="1.0" stroke-linejoin="round" stroke-linecap="butt" d="m679.0079 283.51743l19.937012 -34.488174l19.937012 34.488174z" fill-rule="evenodd"/></g><path fill="#000000" fill-opacity="0.0" d="m757.30786 475.83466l130.07874 0" fill-rule="evenodd"/><path stroke="#000000" stroke-width="3.0" stroke-linejoin="round" stroke-linecap="butt" d="m757.3078 475.83466l119.797485 0" fill-rule="evenodd"/><path fill="#000000" stroke="#000000" stroke-width="3.0" stroke-linecap="butt" d="m877.1053 475.83466l-3.3737183 3.3737488l9.269287 -3.3737488l-9.269287 -3.3737488z" fill-rule="evenodd"/><path fill="#000000" fill-opacity="0.0" d="m761.40234 242.53543l130.07874 0" fill-rule="evenodd"/><path stroke="#000000" stroke-width="3.0" stroke-linejoin="round" stroke-linecap="butt" d="m761.4023 242.53543l119.79755 0" fill-rule="evenodd"/><path fill="#000000" stroke="#000000" stroke-width="3.0" stroke-linecap="butt" d="m881.19977 242.53543l-3.3737183 3.3737488l9.269287 -3.3737488l-9.269287 -3.3737488z" fill-rule="evenodd"/><path fill="#000000" fill-opacity="0.0" d="m0 0l960.0 0l0 92.8189l-960.0 0z" fill-rule="evenodd"/><path fill="#000000" d="m158.05078 55.079998l0 -34.359375l4.546875 0l0 30.296875l16.921875 0l0 4.0625l-21.46875 0zm42.585938 -3.078125q-2.34375 2.0 -4.515625 2.828125q-2.15625 0.8125 -4.640625 0.8125q-4.109375 0 -6.3125 -2.0q-2.203125 -2.015625 -2.203125 -5.125q0 -1.828125 0.828125 -3.34375q0.84375 -1.515625 2.1875 -2.421875q1.34375 -0.921875 3.03125 -1.390625q1.25 -0.328125 3.75 -0.625q5.109375 -0.609375 7.53125 -1.453125q0.015625 -0.875 0.015625 -1.109375q0 -2.578125 -1.1875 -3.625q-1.625 -1.4375 -4.8125 -1.4375q-2.96875 0 -4.390625 1.046875q-1.421875 1.046875 -2.09375 3.6875l-4.125 -0.5625q0.5625 -2.640625 1.84375 -4.265625q1.296875 -1.640625 3.734375 -2.515625q2.4375 -0.875 5.640625 -0.875q3.1875 0 5.171875 0.75q2.0 0.75 2.9375 1.890625q0.9375 1.125 1.3125 2.859375q0.21875 1.078125 0.21875 3.890625l0 5.625q0 5.890625 0.265625 7.453125q0.265625 1.546875 1.0625 2.984375l-4.40625 0q-0.65625 -1.3125 -0.84375 -3.078125zm-0.34375 -9.421875q-2.296875 0.9375 -6.890625 1.59375q-2.609375 0.375 -3.6875 0.84375q-1.078125 0.46875 -1.671875 1.375q-0.578125 0.90625 -0.578125 2.0q0 1.6875 1.28125 2.8125q1.28125 1.125 3.734375 1.125q2.4375 0 4.328125 -1.0625q1.90625 -1.0625 2.796875 -2.921875q0.6875 -1.421875 0.6875 -4.21875l0 -1.546875zm10.6171875 22.093754l-0.46875 -3.9687538q1.375 0.375 2.40625 0.375q1.40625 0 2.25 -0.46875q0.84375 -0.46875 1.390625 -1.3125q0.390625 -0.625 1.28125 -3.140625q0.125 -0.34375 0.375 -1.03125l-9.4375 -24.9375l4.546875 0l5.171875 14.40625q1.015625 2.75 1.8125 5.765625q0.71875 -2.90625 1.734375 -5.671875l5.3125 -14.5l4.21875 0l-9.46875 25.3125q-1.515625 4.109375 -2.359375 5.65625q-1.125 2.078125 -2.578125 3.0468788q-1.453125 0.984375 -3.46875 0.984375q-1.21875 0 -2.71875 -0.515625zm41.21875 -17.609379l4.359375 0.53125q-1.03125 3.828125 -3.828125 5.9375q-2.78125 2.109375 -7.109375 2.109375q-5.46875 0 -8.671875 -3.359375q-3.1875 -3.375 -3.1875 -9.4375q0 -6.28125 3.234375 -9.75q3.234375 -3.46875 8.390625 -3.46875q4.984375 0 8.140625 3.40625q3.171875 3.390625 3.171875 9.546875q0 0.375 -0.015625 1.125l-18.5625 0q0.234375 4.109375 2.3125 6.296875q2.09375 2.171875 5.203125 2.171875q2.328125 0 3.96875 -1.21875q1.640625 -1.21875 2.59375 -3.890625zm-13.84375 -6.828125l13.890625 0q-0.28125 -3.140625 -1.59375 -4.703125q-2.015625 -2.4375 -5.21875 -2.4375q-2.90625 0 -4.890625 1.953125q-1.984375 1.9375 -2.1875 5.1875zm23.460938 14.84375l0 -24.890625l3.796875 0l0 3.765625q1.453125 -2.640625 2.671875 -3.484375q1.234375 -0.84375 2.71875 -0.84375q2.125 0 4.328125 1.359375l-1.453125 3.90625q-1.546875 -0.90625 -3.09375 -0.90625q-1.375 0 -2.484375 0.828125q-1.09375 0.828125 -1.5625 2.3125q-0.703125 2.25 -0.703125 4.921875l0 13.03125l-4.21875 0zm29.757812 0l0 -34.359375l6.84375 0l8.140625 24.328125q1.125 3.390625 1.640625 5.078125q0.578125 -1.875 1.828125 -5.5l8.21875 -23.90625l6.125 0l0 34.359375l-4.390625 0l0 -28.765625l-9.984375 28.765625l-4.09375 0l-9.9375 -29.25l0 29.25l-4.390625 0zm55.828125 -3.078125q-2.34375 2.0 -4.515625 2.828125q-2.15625 0.8125 -4.640625 0.8125q-4.109375 0 -6.3125 -2.0q-2.203125 -2.015625 -2.203125 -5.125q0 -1.828125 0.828125 -3.34375q0.84375 -1.515625 2.1875 -2.421875q1.34375 -0.921875 3.03125 -1.390625q1.25 -0.328125 3.75 -0.625q5.109375 -0.609375 7.53125 -1.453125q0.015625 -0.875 0.015625 -1.109375q0 -2.578125 -1.1875 -3.625q-1.625 -1.4375 -4.8125 -1.4375q-2.96875 0 -4.390625 1.046875q-1.421875 1.046875 -2.09375 3.6875l-4.125 -0.5625q0.5625 -2.640625 1.84375 -4.265625q1.296875 -1.640625 3.734375 -2.515625q2.4375 -0.875 5.640625 -0.875q3.1875 0 5.171875 0.75q2.0 0.75 2.9375 1.890625q0.9375 1.125 1.3125 2.859375q0.21875 1.078125 0.21875 3.890625l0 5.625q0 5.890625 0.265625 7.453125q0.265625 1.546875 1.0625 2.984375l-4.40625 0q-0.65625 -1.3125 -0.84375 -3.078125zm-0.34375 -9.421875q-2.296875 0.9375 -6.890625 1.59375q-2.609375 0.375 -3.6875 0.84375q-1.078125 0.46875 -1.671875 1.375q-0.578125 0.90625 -0.578125 2.0q0 1.6875 1.28125 2.8125q1.28125 1.125 3.734375 1.125q2.4375 0 4.328125 -1.0625q1.90625 -1.0625 2.796875 -2.921875q0.6875 -1.421875 0.6875 -4.21875l0 -1.546875zm10.8046875 12.5l0 -24.890625l3.796875 0l0 3.53125q2.734375 -4.09375 7.921875 -4.09375q2.25 0 4.125 0.8125q1.890625 0.796875 2.828125 2.109375q0.9375 1.3125 1.3125 3.125q0.234375 1.171875 0.234375 4.09375l0 15.3125l-4.21875 0l0 -15.140625q0 -2.578125 -0.5 -3.859375q-0.484375 -1.28125 -1.734375 -2.03125q-1.25 -0.765625 -2.9375 -0.765625q-2.703125 0 -4.65625 1.71875q-1.953125 1.703125 -1.953125 6.484375l0 13.59375l-4.21875 0zm42.929688 -3.078125q-2.34375 2.0 -4.515625 2.828125q-2.15625 0.8125 -4.640625 0.8125q-4.109375 0 -6.3125 -2.0q-2.203125 -2.015625 -2.203125 -5.125q0 -1.828125 0.828125 -3.34375q0.84375 -1.515625 2.1875 -2.421875q1.34375 -0.921875 3.03125 -1.390625q1.25 -0.328125 3.75 -0.625q5.109375 -0.609375 7.53125 -1.453125q0.015625 -0.875 0.015625 -1.109375q0 -2.578125 -1.1875 -3.625q-1.625 -1.4375 -4.8125 -1.4375q-2.96875 0 -4.390625 1.046875q-1.421875 1.046875 -2.09375 3.6875l-4.125 -0.5625q0.5625 -2.640625 1.84375 -4.265625q1.296875 -1.640625 3.734375 -2.515625q2.4375 -0.875 5.640625 -0.875q3.1875 0 5.171875 0.75q2.0 0.75 2.9375 1.890625q0.9375 1.125 1.3125 2.859375q0.21875 1.078125 0.21875 3.890625l0 5.625q0 5.890625 0.265625 7.453125q0.265625 1.546875 1.0625 2.984375l-4.40625 0q-0.65625 -1.3125 -0.84375 -3.078125zm-0.34375 -9.421875q-2.296875 0.9375 -6.890625 1.59375q-2.609375 0.375 -3.6875 0.84375q-1.078125 0.46875 -1.671875 1.375q-0.578125 0.90625 -0.578125 2.0q0 1.6875 1.28125 2.8125q1.28125 1.125 3.734375 1.125q2.4375 0 4.328125 -1.0625q1.90625 -1.0625 2.796875 -2.921875q0.6875 -1.421875 0.6875 -4.21875l0 -1.546875zm10.0234375 14.5625l4.109375 0.609375q0.25 1.90625 1.421875 2.765625q1.578125 1.171875 4.296875 1.171875q2.921875 0 4.515625 -1.171875q1.59375 -1.171875 2.15625 -3.28125q0.328125 -1.28125 0.3125 -5.421875q-2.765625 3.265625 -6.890625 3.265625q-5.140625 0 -7.953125 -3.703125q-2.8125 -3.703125 -2.8125 -8.890625q0 -3.5625 1.28125 -6.5625q1.296875 -3.015625 3.75 -4.65625q2.453125 -1.640625 5.75 -1.640625q4.40625 0 7.265625 3.5625l0 -3.0l3.890625 0l0 21.515625q0 5.8125 -1.1875 8.234375q-1.171875 2.4375 -3.75 3.84375q-2.5625 1.4062538 -6.3125 1.4062538q-4.453125 0 -7.203125 -2.0156288q-2.734375 -2.0 -2.640625 -6.03125zm3.5 -14.953125q0 4.890625 1.9375 7.140625q1.953125 2.25 4.875 2.25q2.90625 0 4.875 -2.234375q1.96875 -2.234375 1.96875 -7.015625q0 -4.578125 -2.03125 -6.890625q-2.015625 -2.328125 -4.875 -2.328125q-2.8125 0 -4.78125 2.296875q-1.96875 2.28125 -1.96875 6.78125zm41.007812 4.875l4.359375 0.53125q-1.03125 3.828125 -3.828125 5.9375q-2.78125 2.109375 -7.109375 2.109375q-5.46875 0 -8.671875 -3.359375q-3.1875 -3.375 -3.1875 -9.4375q0 -6.28125 3.234375 -9.75q3.234375 -3.46875 8.390625 -3.46875q4.984375 0 8.140625 3.40625q3.171875 3.390625 3.171875 9.546875q0 0.375 -0.015625 1.125l-18.5625 0q0.234375 4.109375 2.3125 6.296875q2.09375 2.171875 5.203125 2.171875q2.328125 0 3.96875 -1.21875q1.640625 -1.21875 2.59375 -3.890625zm-13.84375 -6.828125l13.890625 0q-0.28125 -3.140625 -1.59375 -4.703125q-2.015625 -2.4375 -5.21875 -2.4375q-2.90625 0 -4.890625 1.953125q-1.984375 1.9375 -2.1875 5.1875zm23.507812 14.84375l0 -24.890625l3.765625 0l0 3.484375q1.171875 -1.828125 3.109375 -2.9375q1.953125 -1.109375 4.4375 -1.109375q2.765625 0 4.53125 1.15625q1.78125 1.140625 2.5 3.203125q2.953125 -4.359375 7.6875 -4.359375q3.703125 0 5.6875 2.046875q2.0 2.046875 2.0 6.3125l0 17.09375l-4.1875 0l0 -15.6875q0 -2.53125 -0.421875 -3.640625q-0.40625 -1.109375 -1.484375 -1.78125q-1.078125 -0.6875 -2.53125 -0.6875q-2.625 0 -4.359375 1.75q-1.734375 1.734375 -1.734375 5.578125l0 14.46875l-4.21875 0l0 -16.171875q0 -2.8125 -1.03125 -4.21875q-1.03125 -1.40625 -3.375 -1.40625q-1.78125 0 -3.296875 0.9375q-1.5 0.9375 -2.1875 2.75q-0.671875 1.796875 -0.671875 5.1875l0 12.921875l-4.21875 0zm57.015625 -8.015625l4.359375 0.53125q-1.03125 3.828125 -3.828125 5.9375q-2.78125 2.109375 -7.109375 2.109375q-5.46875 0 -8.671875 -3.359375q-3.1875 -3.375 -3.1875 -9.4375q0 -6.28125 3.234375 -9.75q3.234375 -3.46875 8.390625 -3.46875q4.984375 0 8.140625 3.40625q3.171875 3.390625 3.171875 9.546875q0 0.375 -0.015625 1.125l-18.5625 0q0.234375 4.109375 2.3125 6.296875q2.09375 2.171875 5.203125 2.171875q2.328125 0 3.96875 -1.21875q1.640625 -1.21875 2.59375 -3.890625zm-13.84375 -6.828125l13.890625 0q-0.28125 -3.140625 -1.59375 -4.703125q-2.015625 -2.4375 -5.21875 -2.4375q-2.90625 0 -4.890625 1.953125q-1.984375 1.9375 -2.1875 5.1875zm23.507812 14.84375l0 -24.890625l3.796875 0l0 3.53125q2.734375 -4.09375 7.921875 -4.09375q2.25 0 4.125 0.8125q1.890625 0.796875 2.828125 2.109375q0.9375 1.3125 1.3125 3.125q0.234375 1.171875 0.234375 4.09375l0 15.3125l-4.21875 0l0 -15.140625q0 -2.578125 -0.5 -3.859375q-0.484375 -1.28125 -1.734375 -2.03125q-1.25 -0.765625 -2.9375 -0.765625q-2.703125 0 -4.65625 1.71875q-1.953125 1.703125 -1.953125 6.484375l0 13.59375l-4.21875 0zm35.898438 -3.78125l0.609375 3.734375q-1.78125 0.375 -3.1875 0.375q-2.296875 0 -3.5625 -0.71875q-1.265625 -0.734375 -1.78125 -1.921875q-0.515625 -1.1875 -0.515625 -4.984375l0 -14.3125l-3.09375 0l0 -3.28125l3.09375 0l0 -6.171875l4.203125 -2.53125l0 8.703125l4.234375 0l0 3.28125l-4.234375 0l0 14.546875q0 1.8125 0.21875 2.328125q0.21875 0.515625 0.71875 0.828125q0.515625 0.296875 1.453125 0.296875q0.703125 0 1.84375 -0.171875zm16.625 -12.953125q0 -8.5625 4.59375 -13.390625q4.59375 -4.84375 11.859375 -4.84375q4.75 0 8.5625 2.28125q3.828125 2.265625 5.828125 6.328125q2.015625 4.0625 2.015625 9.21875q0 5.234375 -2.109375 9.359375q-2.109375 4.125 -5.984375 6.25q-3.859375 2.125 -8.34375 2.125q-4.84375 0 -8.671875 -2.34375q-3.8125 -2.359375 -5.78125 -6.40625q-1.96875 -4.0625 -1.96875 -8.578125zm4.6875 0.0625q0 6.21875 3.328125 9.796875q3.34375 3.5625 8.390625 3.5625q5.125 0 8.4375 -3.609375q3.328125 -3.609375 3.328125 -10.234375q0 -4.203125 -1.421875 -7.328125q-1.421875 -3.125 -4.15625 -4.84375q-2.71875 -1.734375 -6.125 -1.734375q-4.828125 0 -8.3125 3.328125q-3.46875 3.3125 -3.46875 11.0625zm40.398438 16.671875l-9.46875 -24.890625l4.453125 0l5.34375 14.90625q0.875 2.40625 1.59375 5.015625q0.5625 -1.96875 1.578125 -4.734375l5.53125 -15.1875l4.328125 0l-9.421875 24.890625l-3.9375 0zm34.125 -8.015625l4.359375 0.53125q-1.03125 3.828125 -3.828125 5.9375q-2.78125 2.109375 -7.109375 2.109375q-5.46875 0 -8.671875 -3.359375q-3.1875 -3.375 -3.1875 -9.4375q0 -6.28125 3.234375 -9.75q3.234375 -3.46875 8.390625 -3.46875q4.984375 0 8.140625 3.40625q3.171875 3.390625 3.171875 9.546875q0 0.375 -0.015625 1.125l-18.5625 0q0.234375 4.109375 2.3125 6.296875q2.09375 2.171875 5.203125 2.171875q2.328125 0 3.96875 -1.21875q1.640625 -1.21875 2.59375 -3.890625zm-13.84375 -6.828125l13.890625 0q-0.28125 -3.140625 -1.59375 -4.703125q-2.015625 -2.4375 -5.21875 -2.4375q-2.90625 0 -4.890625 1.953125q-1.984375 1.9375 -2.1875 5.1875zm23.460938 14.84375l0 -24.890625l3.796875 0l0 3.765625q1.453125 -2.640625 2.671875 -3.484375q1.234375 -0.84375 2.71875 -0.84375q2.125 0 4.328125 1.359375l-1.453125 3.90625q-1.546875 -0.90625 -3.09375 -0.90625q-1.375 0 -2.484375 0.828125q-1.09375 0.828125 -1.5625 2.3125q-0.703125 2.25 -0.703125 4.921875l0 13.03125l-4.21875 0zm38.648438 0l0 -30.3125l-11.328125 0l0 -4.046875l27.234375 0l0 4.046875l-11.359375 0l0 30.3125l-4.546875 0zm20.054688 -29.515625l0 -4.84375l4.21875 0l0 4.84375l-4.21875 0zm0 29.515625l0 -24.890625l4.21875 0l0 24.890625l-4.21875 0zm10.6484375 0l0 -24.890625l3.765625 0l0 3.484375q1.171875 -1.828125 3.109375 -2.9375q1.953125 -1.109375 4.4375 -1.109375q2.765625 0 4.53125 1.15625q1.78125 1.140625 2.5 3.203125q2.953125 -4.359375 7.6875 -4.359375q3.703125 0 5.6875 2.046875q2.0 2.046875 2.0 6.3125l0 17.09375l-4.1875 0l0 -15.6875q0 -2.53125 -0.421875 -3.640625q-0.40625 -1.109375 -1.484375 -1.78125q-1.078125 -0.6875 -2.53125 -0.6875q-2.625 0 -4.359375 1.75q-1.734375 1.734375 -1.734375 5.578125l0 14.46875l-4.21875 0l0 -16.171875q0 -2.8125 -1.03125 -4.21875q-1.03125 -1.40625 -3.375 -1.40625q-1.78125 0 -3.296875 0.9375q-1.5 0.9375 -2.1875 2.75q-0.671875 1.796875 -0.671875 5.1875l0 12.921875l-4.21875 0zm57.015625 -8.015625l4.359375 0.53125q-1.03125 3.828125 -3.828125 5.9375q-2.78125 2.109375 -7.109375 2.109375q-5.46875 0 -8.671875 -3.359375q-3.1875 -3.375 -3.1875 -9.4375q0 -6.28125 3.234375 -9.75q3.234375 -3.46875 8.390625 -3.46875q4.984375 0 8.140625 3.40625q3.171875 3.390625 3.171875 9.546875q0 0.375 -0.015625 1.125l-18.5625 0q0.234375 4.109375 2.3125 6.296875q2.09375 2.171875 5.203125 2.171875q2.328125 0 3.96875 -1.21875q1.640625 -1.21875 2.59375 -3.890625zm-13.84375 -6.828125l13.890625 0q-0.28125 -3.140625 -1.59375 -4.703125q-2.015625 -2.4375 -5.21875 -2.4375q-2.90625 0 -4.890625 1.953125q-1.984375 1.9375 -2.1875 5.1875z" fill-rule="nonzero"/></g></svg>