<svg version="1.1" viewBox="0.0 0.0 960.0 720.0" fill="none" stroke="none" stroke-linecap="square" stroke-miterlimit="10" xmlns:xlink="http://www.w3.org/1999/xlink" xmlns="http://www.w3.org/2000/svg"><clipPath id="p.0"><path d="m0 0l960.0 0l0 720.0l-960.0 0l0 -720.0z" clip-rule="nonzero"/></clipPath><g clip-path="url(#p.0)"><path fill="#000000" fill-opacity="0.0" d="m0 0l960.0 0l0 720.0l-960.0 0z" fill-rule="evenodd"/><g filter="url(#shadowFilter-p.1)"><use xlink:href="#p.1" transform="matrix(1.0 0.0 0.0 1.0 0.0 2.0)"/></g><defs><filter id="shadowFilter-p.1" filterUnits="userSpaceOnUse"><feGaussianBlur in="SourceAlpha" stdDeviation="2.0" result="blur"/><feComponentTransfer in="blur" color-interpolation-filters="sRGB"><feFuncR type="linear" slope="0" intercept="0.0"/><feFuncG type="linear" slope="0" intercept="0.0"/><feFuncB type="linear" slope="0" intercept="0.0"/><feFuncA type="linear" slope="0.5" intercept="0"/></feComponentTransfer></filter></defs><g id="p.1"><path fill="#cfe2f3" d="m175.88715 201.25197l0 0c0 -48.018326 38.926544 -86.944885 86.944885 -86.944885l0 0c23.059204 0 45.17398 9.16024 61.47931 25.465576c16.305328 16.305328 25.465576 38.42009 25.465576 61.47931l0 0c0 48.018326 -38.926575 86.94487 -86.944885 86.94487l0 0c-48.01834 0 -86.944885 -38.926544 -86.944885 -86.94487z" fill-rule="evenodd"/><path stroke="#000000" stroke-width="1.0" stroke-linejoin="round" stroke-linecap="butt" d="m175.88715 201.25197l0 0c0 -48.018326 38.926544 -86.944885 86.944885 -86.944885l0 0c23.059204 0 45.17398 9.16024 61.47931 25.465576c16.305328 16.305328 25.465576 38.42009 25.465576 61.47931l0 0c0 48.018326 -38.926575 86.94487 -86.944885 86.94487l0 0c-48.01834 0 -86.944885 -38.926544 -86.944885 -86.94487z" fill-rule="evenodd"/></g><g filter="url(#shadowFilter-p.2)"><use xlink:href="#p.2" transform="matrix(1.0 0.0 0.0 1.0 0.0 2.0)"/></g><defs><filter id="shadowFilter-p.2" filterUnits="userSpaceOnUse"><feGaussianBlur in="SourceAlpha" stdDeviation="2.0" result="blur"/><feComponentTransfer in="blur" color-interpolation-filters="sRGB"><feFuncR type="linear" slope="0" intercept="0.0"/><feFuncG type="linear" slope="0" intercept="0.0"/><feFuncB type="linear" slope="0" intercept="0.0"/><feFuncA type="linear" slope="0.5" intercept="0"/></feComponentTransfer></filter></defs><g id="p.2"><path fill="#cfe2f3" d="m515.5722 201.22047l0 0c0 -22.813278 18.493774 -41.307083 41.307068 -41.307083l0 0c10.955322 0 21.461914 4.3519745 29.208496 12.0985565c7.746582 7.746582 12.098572 18.253204 12.098572 29.208527l0 0c0 22.813278 -18.493774 41.307083 -41.307068 41.307083l0 0c-22.813293 0 -41.307068 -18.493805 -41.307068 -41.307083z" fill-rule="evenodd"/><path stroke="#000000" stroke-width="1.0" stroke-linejoin="round" stroke-linecap="butt" d="m515.5722 201.22047l0 0c0 -22.813278 18.493774 -41.307083 41.307068 -41.307083l0 0c10.955322 0 21.461914 4.3519745 29.208496 12.0985565c7.746582 7.746582 12.098572 18.253204 12.098572 29.208527l0 0c0 22.813278 -18.493774 41.307083 -41.307068 41.307083l0 0c-22.813293 0 -41.307068 -18.493805 -41.307068 -41.307083z" fill-rule="evenodd"/></g><g filter="url(#shadowFilter-p.3)"><use xlink:href="#p.3" transform="matrix(1.0 0.0 0.0 1.0 0.0 2.0)"/></g><defs><filter id="shadowFilter-p.3" filterUnits="userSpaceOnUse"><feGaussianBlur in="SourceAlpha" stdDeviation="2.0" result="blur"/><feComponentTransfer in="blur" color-interpolation-filters="sRGB"><feFuncR type="linear" slope="0" intercept="0.0"/><feFuncG type="linear" slope="0" intercept="0.0"/><feFuncB type="linear" slope="0" intercept="0.0"/><feFuncA type="linear" slope="0.5" intercept="0"/></feComponentTransfer></filter></defs><g id="p.3"><path fill="#cfe2f3" d="m650.0289 201.21785l0 0c0 -22.813278 18.493835 -41.307083 41.307068 -41.307083l0 0c10.955322 0 21.461975 4.3519745 29.208557 12.0985565c7.746582 7.746582 12.098572 18.253204 12.098572 29.208527l0 0c0 22.813278 -18.493835 41.307083 -41.30713 41.307083l0 0c-22.813232 0 -41.307068 -18.493805 -41.307068 -41.307083z" fill-rule="evenodd"/><path stroke="#000000" stroke-width="1.0" stroke-linejoin="round" stroke-linecap="butt" d="m650.0289 201.21785l0 0c0 -22.813278 18.493835 -41.307083 41.307068 -41.307083l0 0c10.955322 0 21.461975 4.3519745 29.208557 12.0985565c7.746582 7.746582 12.098572 18.253204 12.098572 29.208527l0 0c0 22.813278 -18.493835 41.307083 -41.30713 41.307083l0 0c-22.813232 0 -41.307068 -18.493805 -41.307068 -41.307083z" fill-rule="evenodd"/></g><g filter="url(#shadowFilter-p.4)"><use xlink:href="#p.4" transform="matrix(1.0 0.0 0.0 1.0 0.0 2.0)"/></g><defs><filter id="shadowFilter-p.4" filterUnits="userSpaceOnUse"><feGaussianBlur in="SourceAlpha" stdDeviation="2.0" result="blur"/><feComponentTransfer in="blur" color-interpolation-filters="sRGB"><feFuncR type="linear" slope="0" intercept="0.0"/><feFuncG type="linear" slope="0" intercept="0.0"/><feFuncB type="linear" slope="0" intercept="0.0"/><feFuncA type="linear" slope="0.5" intercept="0"/></feComponentTransfer></filter></defs><g id="p.4"><path fill="#cfe2f3" d="m784.48816 201.21785l0 0c0 -22.813278 18.493835 -41.307083 41.30713 -41.307083l0 0c10.955322 0 21.461914 4.3519745 29.208496 12.0985565c7.746582 7.746582 12.098572 18.253204 12.098572 29.208527l0 0c0 22.813278 -18.493835 41.307083 -41.307068 41.307083l0 0c-22.813293 0 -41.30713 -18.493805 -41.30713 -41.307083z" fill-rule="evenodd"/><path stroke="#000000" stroke-width="1.0" stroke-linejoin="round" stroke-linecap="butt" d="m784.48816 201.21785l0 0c0 -22.813278 18.493835 -41.307083 41.30713 -41.307083l0 0c10.955322 0 21.461914 4.3519745 29.208496 12.0985565c7.746582 7.746582 12.098572 18.253204 12.098572 29.208527l0 0c0 22.813278 -18.493835 41.307083 -41.307068 41.307083l0 0c-22.813293 0 -41.30713 -18.493805 -41.30713 -41.307083z" fill-rule="evenodd"/></g><path fill="#000000" fill-opacity="0.0" d="m598.18634 201.22047c12.960632 0 19.440979 0.01574707 25.921265 0.03149414c6.4803467 0.01574707 12.960632 0.03149414 25.921265 0.03149414" fill-rule="evenodd"/><path stroke="#000000" stroke-width="1.0" stroke-linejoin="round" stroke-linecap="butt" d="m598.18634 201.22047c12.960632 0 19.440979 0.01574707 25.921265 0.03149414c3.2401733 0.007873535 6.4803467 0.01574707 10.530518 0.021652222c2.0250854 0.002960205 4.2526855 0.00541687 6.7840576 0.0071411133l5.1796265 0.0016174316" fill-rule="evenodd"/><path fill="#000000" stroke="#000000" stroke-width="1.0" stroke-linecap="butt" d="m646.6018 201.2824l-1.124939 1.1242218l3.090088 -1.1236115l-3.0894165 -1.1255493z" fill-rule="evenodd"/><path fill="#000000" fill-opacity="0.0" d="m732.64307 201.21785c12.961365 0 19.442505 0.01574707 25.92279 0.03149414c6.4803467 0.01574707 12.959839 0.03149414 25.919678 0.03149414" fill-rule="evenodd"/><path stroke="#000000" stroke-width="1.0" stroke-linejoin="round" stroke-linecap="butt" d="m732.64307 201.21785c12.961365 0 19.442505 0.01574707 25.92279 0.03149414c3.2401733 0.007873535 6.4801025 0.01574707 10.530029 0.021652222c2.0249023 0.002960205 4.2523804 0.00541687 6.7835693 0.0071411133l5.179016 0.0016174316" fill-rule="evenodd"/><path fill="#000000" stroke="#000000" stroke-width="1.0" stroke-linecap="butt" d="m781.0585 201.27975l-1.124939 1.1242371l3.090149 -1.1236115l-3.0894165 -1.1255493z" fill-rule="evenodd"/><path fill="#000000" fill-opacity="0.0" d="m480.0 10.081365l0 703.1811" fill-rule="evenodd"/><path stroke="#000000" stroke-width="1.0" stroke-linejoin="round" stroke-linecap="butt" d="m480.0 10.081365l0 703.1811" fill-rule="evenodd"/><path fill="#000000" fill-opacity="0.0" d="m14.283464 360.0l935.9055 0" fill-rule="evenodd"/><path stroke="#000000" stroke-width="1.0" stroke-linejoin="round" stroke-linecap="butt" d="m14.283464 360.0l935.9055 0" fill-rule="evenodd"/><path fill="#000000" fill-opacity="0.0" d="m161.17848 49.569553l203.30708 0l0 42.01575l-203.30708 0z" fill-rule="evenodd"/><path fill="#000000" d="m195.29045 76.489555l0 -13.359379l1.8125 0l7.015625 10.484379l0 -10.484379l1.6875 0l0 13.359379l-1.8125 0l-7.015625 -10.5l0 10.5l-1.6875 0zm12.676071 -4.84375q0 -2.6875 1.484375 -3.96875q1.25 -1.078125 3.046875 -1.078125q2.0 0 3.265625 1.3125q1.265625 1.296875 1.265625 3.609375q0 1.859375 -0.5625 2.9375q-0.5625 1.0625 -1.640625 1.65625q-1.0625 0.59375 -2.328125 0.59375q-2.03125 0 -3.28125 -1.296875q-1.25 -1.3125 -1.25 -3.765625zm1.6875 0q0 1.859375 0.796875 2.796875q0.8125 0.921875 2.046875 0.921875q1.21875 0 2.03125 -0.921875q0.8125 -0.9375 0.8125 -2.84375q0 -1.796875 -0.8125 -2.71875q-0.8125 -0.921875 -2.03125 -0.921875q-1.234375 0 -2.046875 0.921875q-0.796875 0.90625 -0.796875 2.765625zm14.637146 4.84375l0 -13.359379l2.65625 0l3.15625 9.453129q0.4375 1.328125 0.640625 1.984375q0.234375 -0.734375 0.703125 -2.140625l3.203125 -9.296879l2.375 0l0 13.359379l-1.703125 0l0 -11.171875l-3.875 11.171875l-1.59375 0l-3.859375 -11.375l0 11.375l-1.703125 0zm21.697052 -1.1875q-0.921875 0.765625 -1.765625 1.09375q-0.828125 0.3125 -1.796875 0.3125q-1.59375 0 -2.453125 -0.78125q-0.859375 -0.78125 -0.859375 -1.984375q0 -0.71875 0.328125 -1.296875q0.328125 -0.59375 0.84375 -0.9375q0.53125 -0.359375 1.1875 -0.546875q0.46875 -0.125 1.453125 -0.25q1.984375 -0.234375 2.921875 -0.5625q0.015625 -0.34375 0.015625 -0.421875q0 -1.0 -0.46875 -1.421875q-0.625 -0.546875 -1.875 -0.546875q-1.15625 0 -1.703125 0.40625q-0.546875 0.40625 -0.8125 1.421875l-1.609375 -0.21875q0.21875 -1.015625 0.71875 -1.640625q0.5 -0.640625 1.453125 -0.984375q0.953125 -0.34375 2.1875 -0.34375q1.25 0 2.015625 0.296875q0.78125 0.28125 1.140625 0.734375q0.375 0.4375 0.515625 1.109375q0.078125 0.421875 0.078125 1.515625l0 2.1875q0 2.28125 0.109375 2.890625q0.109375 0.59375 0.40625 1.15625l-1.703125 0q-0.265625 -0.515625 -0.328125 -1.1875zm-0.140625 -3.671875q-0.890625 0.375 -2.671875 0.625q-1.015625 0.140625 -1.4375 0.328125q-0.421875 0.1875 -0.65625 0.53125q-0.21875 0.34375 -0.21875 0.78125q0 0.65625 0.5 1.09375q0.5 0.4375 1.453125 0.4375q0.9375 0 1.671875 -0.40625q0.75 -0.421875 1.09375 -1.140625q0.265625 -0.5625 0.265625 -1.640625l0 -0.609375zm4.203842 4.859375l0 -9.671875l1.46875 0l0 1.375q1.0625 -1.59375 3.078125 -1.59375q0.875 0 1.6093597 0.3125q0.734375 0.3125 1.09375 0.828125q0.375 0.5 0.515625 1.203125q0.09375 0.453125 0.09375 1.59375l0 5.953125l-1.640625 0l0 -5.890625q0 -1.0 -0.203125 -1.484375q-0.18748474 -0.5 -0.67185974 -0.796875q-0.484375 -0.296875 -1.140625 -0.296875q-1.046875 0 -1.8125 0.671875q-0.75 0.65625 -0.75 2.515625l0 5.28125l-1.640625 0zm16.688217 -1.1875q-0.921875 0.765625 -1.765625 1.09375q-0.828125 0.3125 -1.796875 0.3125q-1.59375 0 -2.453125 -0.78125q-0.859375 -0.78125 -0.859375 -1.984375q0 -0.71875 0.328125 -1.296875q0.328125 -0.59375 0.84375 -0.9375q0.53125 -0.359375 1.1875 -0.546875q0.46875 -0.125 1.453125 -0.25q1.984375 -0.234375 2.921875 -0.5625q0.015625 -0.34375 0.015625 -0.421875q0 -1.0 -0.46875 -1.421875q-0.625 -0.546875 -1.875 -0.546875q-1.15625 0 -1.703125 0.40625q-0.546875 0.40625 -0.8125 1.421875l-1.609375 -0.21875q0.21875 -1.015625 0.71875 -1.640625q0.5 -0.640625 1.453125 -0.984375q0.953125 -0.34375 2.1875 -0.34375q1.25 0 2.015625 0.296875q0.78125 0.28125 1.140625 0.734375q0.375 0.4375 0.515625 1.109375q0.078125 0.421875 0.078125 1.515625l0 2.1875q0 2.28125 0.109375 2.890625q0.109375 0.59375 0.40625 1.15625l-1.703125 0q-0.265625 -0.515625 -0.328125 -1.1875zm-0.140625 -3.671875q-0.890625 0.375 -2.671875 0.625q-1.015625 0.140625 -1.4375 0.328125q-0.421875 0.1875 -0.65625 0.53125q-0.21875 0.34375 -0.21875 0.78125q0 0.65625 0.5 1.09375q0.5 0.4375 1.453125 0.4375q0.9375 0 1.671875 -0.40625q0.75 -0.421875 1.09375 -1.140625q0.265625 -0.5625 0.265625 -1.640625l0 -0.609375zm3.891327 5.65625l1.59375 0.234375q0.109375 0.75 0.5625 1.078125q0.609375 0.453125 1.671875 0.453125q1.140625 0 1.75 -0.453125q0.625 -0.453125 0.84375 -1.265625q0.125 -0.5 0.109375 -2.109375q-1.0625 1.265625 -2.671875 1.265625q-2.0 0 -3.09375 -1.4375q-1.09375 -1.4375 -1.09375 -3.453125q0 -1.390625 0.5 -2.5625q0.515625 -1.171875 1.453125 -1.796875q0.953125 -0.640625 2.25 -0.640625q1.703125 0 2.8125 1.375l0 -1.15625l1.515625 0l0 8.359375q0 2.265625 -0.46875 3.203125q-0.453125 0.9375 -1.453125 1.484375q-0.984375 0.546875 -2.453125 0.546875q-1.71875 0 -2.796875 -0.78125q-1.0625 -0.765625 -1.03125 -2.34375zm1.359375 -5.8125q0 1.90625 0.75 2.78125q0.765625 0.875 1.90625 0.875q1.125 0 1.890625 -0.859375q0.765625 -0.875 0.765625 -2.734375q0 -1.78125 -0.796875 -2.671875q-0.78125 -0.90625 -1.890625 -0.90625q-1.09375 0 -1.859375 0.890625q-0.765625 0.875 -0.765625 2.625zm15.953857 1.90625l1.6875 0.203125q-0.40625 1.484375 -1.484375 2.3125q-1.078125 0.8125 -2.765625 0.8125q-2.125 0 -3.375 -1.296875q-1.234375 -1.3125 -1.234375 -3.671875q0 -2.453125 1.25 -3.796875q1.265625 -1.34375 3.265625 -1.34375q1.9375 0 3.15625 1.328125q1.234375 1.3125 1.234375 3.703125q0 0.15625 0 0.4375l-7.21875 0q0.09375 1.59375 0.90625 2.453125q0.8125 0.84375 2.015625 0.84375q0.90625 0 1.546875 -0.46875q0.640625 -0.484375 1.015625 -1.515625zm-5.390625 -2.65625l5.40625 0q-0.109375 -1.21875 -0.625 -1.828125q-0.78125 -0.953125 -2.03125 -0.953125q-1.125 0 -1.90625 0.765625q-0.765625 0.75 -0.84375 2.015625zm9.141327 5.765625l0 -9.671875l1.46875 0l0 1.359375q0.453125 -0.71875 1.203125 -1.140625q0.765625 -0.4375 1.71875 -0.4375q1.078125 0 1.765625 0.453125q0.6875 0.4375 0.96875 1.234375q1.15625 -1.6875 2.984375 -1.6875q1.453125 0 2.21875 0.796875q0.78125 0.796875 0.78125 2.453125l0 6.640625l-1.640625 0l0 -6.09375q0 -0.984375 -0.15625 -1.40625q-0.15625 -0.4375 -0.578125 -0.703125q-0.421875 -0.265625 -0.984375 -0.265625q-1.015625 0 -1.6875 0.6875q-0.671875 0.671875 -0.671875 2.15625l0 5.625l-1.640625 0l0 -6.28125q0 -1.09375 -0.40625 -1.640625q-0.40625 -0.546875 -1.3125 -0.546875q-0.6875 0 -1.28125 0.359375q-0.59375 0.359375 -0.859375 1.0625q-0.25 0.703125 -0.25 2.03125l0 5.015625l-1.640625 0zm22.165802 -3.109375l1.6875 0.203125q-0.40625 1.484375 -1.484375 2.3125q-1.078125 0.8125 -2.765625 0.8125q-2.125 0 -3.375 -1.296875q-1.234375 -1.3125 -1.234375 -3.671875q0 -2.453125 1.25 -3.796875q1.265625 -1.34375 3.265625 -1.34375q1.9375 0 3.15625 1.328125q1.234375 1.3125 1.234375 3.703125q0 0.15625 0 0.4375l-7.21875 0q0.09375 1.59375 0.90625 2.453125q0.8125 0.84375 2.015625 0.84375q0.90625 0 1.546875 -0.46875q0.640625 -0.484375 1.015625 -1.515625zm-5.390625 -2.65625l5.40625 0q-0.109375 -1.21875 -0.625 -1.828125q-0.78125 -0.953125 -2.03125 -0.953125q-1.125 0 -1.90625 0.765625q-0.765625 0.75 -0.84375 2.015625zm9.141357 5.765625l0 -9.671875l1.46875 0l0 1.375q1.0625 -1.59375 3.078125 -1.59375q0.875 0 1.609375 0.3125q0.734375 0.3125 1.09375 0.828125q0.375 0.5 0.515625 1.203125q0.09375 0.453125 0.09375 1.59375l0 5.953125l-1.640625 0l0 -5.890625q0 -1.0 -0.203125 -1.484375q-0.1875 -0.5 -0.671875 -0.796875q-0.484375 -0.296875 -1.140625 -0.296875q-1.046875 0 -1.8125 0.671875q-0.75 0.65625 -0.75 2.515625l0 5.28125l-1.640625 0zm13.953827 -1.46875l0.234375 1.453125q-0.6875 0.140625 -1.234375 0.140625q-0.890625 0 -1.390625 -0.28125q-0.484375 -0.28125 -0.6875 -0.734375q-0.203125 -0.46875 -0.203125 -1.9375l0 -5.578125l-1.203125 0l0 -1.265625l1.203125 0l0 -2.390625l1.625 -0.9843788l0 3.3750038l1.65625 0l0 1.265625l-1.65625 0l0 5.671875q0 0.6875 0.078125 0.890625q0.09375 0.203125 0.28125 0.328125q0.203125 0.109375 0.578125 0.109375q0.265625 0 0.71875 -0.0625z" fill-rule="nonzero"/><path fill="#000000" fill-opacity="0.0" d="m515.5696 49.569553l351.52753 0l0 42.01575l-351.52753 0z" fill-rule="evenodd"/><path fill="#000000" d="m589.77704 71.802055l1.765625 0.453125q-0.5625 2.171875 -2.0 3.328125q-1.4375 1.140625 -3.53125 1.140625q-2.15625 0 -3.515625 -0.875q-1.34375 -0.890625 -2.0625 -2.546875q-0.703125 -1.671875 -0.703125 -3.59375q0 -2.078125 0.796875 -3.625q0.796875 -1.5625 2.265625 -2.3593788q1.484375 -0.8125 3.25 -0.8125q2.0 0 3.359375 1.015625q1.375 1.0156288 1.90625 2.8750038l-1.734375 0.40625q-0.46875 -1.453125 -1.359375 -2.109375q-0.875 -0.671875 -2.203125 -0.671875q-1.546875 0 -2.578125 0.734375q-1.03125 0.734375 -1.453125 1.984375q-0.421875 1.234375 -0.421875 2.5625q0 1.703125 0.5 2.96875q0.5 1.265625 1.546875 1.90625q1.046875 0.625 2.265625 0.625q1.484375 0 2.515625 -0.859375q1.03125 -0.859375 1.390625 -2.546875zm3.1291504 -0.15625q0 -2.6875 1.484375 -3.96875q1.25 -1.078125 3.046875 -1.078125q2.0 0 3.265625 1.3125q1.265625 1.296875 1.265625 3.609375q0 1.859375 -0.5625 2.9375q-0.5625 1.0625 -1.640625 1.65625q-1.0625 0.59375 -2.328125 0.59375q-2.03125 0 -3.28125 -1.296875q-1.25 -1.3125 -1.25 -3.765625zm1.6875 0q0 1.859375 0.796875 2.796875q0.8125 0.921875 2.046875 0.921875q1.21875 0 2.03125 -0.921875q0.8125 -0.9375 0.8125 -2.84375q0 -1.796875 -0.8125 -2.71875q-0.8125 -0.921875 -2.03125 -0.921875q-1.234375 0 -2.046875 0.921875q-0.796875 0.90625 -0.796875 2.765625zm9.297607 4.84375l0 -9.671875l1.46875 0l0 1.375q1.0625 -1.59375 3.078125 -1.59375q0.875 0 1.609375 0.3125q0.734375 0.3125 1.09375 0.828125q0.375 0.5 0.515625 1.203125q0.09375 0.453125 0.09375 1.59375l0 5.953125l-1.640625 0l0 -5.890625q0 -1.0 -0.203125 -1.484375q-0.1875 -0.5 -0.671875 -0.796875q-0.484375 -0.296875 -1.140625 -0.296875q-1.046875 0 -1.8125 0.671875q-0.75 0.65625 -0.75 2.515625l0 5.28125l-1.640625 0zm10.766357 0l0 -8.40625l-1.453125 0l0 -1.265625l1.453125 0l0 -1.03125q0 -0.96875 0.171875 -1.453125q0.234375 -0.6406288 0.828125 -1.0312538q0.59375 -0.390625 1.671875 -0.390625q0.6875 0 1.53125 0.15625l-0.25 1.4375038q-0.5 -0.09375 -0.953125 -0.09375q-0.75 0 -1.0625 0.328125q-0.3125 0.3125 -0.3125 1.1875l0 0.890625l1.890625 0l0 1.265625l-1.890625 0l0 8.40625l-1.625 0zm4.7926636 -11.46875l0 -1.8906288l1.640625 0l0 1.8906288l-1.640625 0zm0 11.46875l0 -9.671875l1.640625 0l0 9.671875l-1.640625 0zm3.8323364 0.796875l1.59375 0.234375q0.109375 0.75 0.5625 1.078125q0.609375 0.453125 1.671875 0.453125q1.140625 0 1.75 -0.453125q0.625 -0.453125 0.84375 -1.265625q0.125 -0.5 0.109375 -2.109375q-1.0625 1.265625 -2.671875 1.265625q-2.0 0 -3.09375 -1.4375q-1.09375 -1.4375 -1.09375 -3.453125q0 -1.390625 0.5 -2.5625q0.515625 -1.171875 1.453125 -1.796875q0.953125 -0.640625 2.25 -0.640625q1.703125 0 2.8125 1.375l0 -1.15625l1.515625 0l0 8.359375q0 2.265625 -0.46875 3.203125q-0.453125 0.9375 -1.453125 1.484375q-0.984375 0.546875 -2.453125 0.546875q-1.71875 0 -2.796875 -0.78125q-1.0625 -0.765625 -1.03125 -2.34375zm1.359375 -5.8125q0 1.90625 0.75 2.78125q0.765625 0.875 1.90625 0.875q1.125 0 1.890625 -0.859375q0.765625 -0.875 0.765625 -2.734375q0 -1.78125 -0.796875 -2.671875q-0.78125 -0.90625 -1.890625 -0.90625q-1.09375 0 -1.859375 0.890625q-0.765625 0.875 -0.765625 2.625zm15.656982 5.015625l0 -1.421875q-1.125 1.640625 -3.0625 1.640625q-0.859375 0 -1.609375 -0.328125q-0.734375 -0.328125 -1.09375 -0.828125q-0.359375 -0.5 -0.5 -1.21875q-0.109375 -0.46875 -0.109375 -1.53125l0 -5.984375l1.640625 0l0 5.359375q0 1.28125 0.109375 1.734375q0.15625 0.640625 0.65625 1.015625q0.5 0.375 1.234375 0.375q0.734375 0 1.375 -0.375q0.65625 -0.390625 0.921875 -1.03125q0.265625 -0.65625 0.265625 -1.890625l0 -5.1875l1.640625 0l0 9.671875l-1.46875 0zm4.0319824 0l0 -9.671875l1.46875 0l0 1.46875q0.5625 -1.03125 1.03125 -1.359375q0.484375 -0.328125 1.0625 -0.328125q0.828125 0 1.6875 0.53125l-0.5625 1.515625q-0.609375 -0.359375 -1.203125 -0.359375q-0.546875 0 -0.96875 0.328125q-0.421875 0.328125 -0.609375 0.890625q-0.28125 0.875 -0.28125 1.921875l0 5.0625l-1.625 0zm12.5407715 -1.1875q-0.921875 0.765625 -1.765625 1.09375q-0.828125 0.3125 -1.796875 0.3125q-1.59375 0 -2.453125 -0.78125q-0.859375 -0.78125 -0.859375 -1.984375q0 -0.71875 0.328125 -1.296875q0.328125 -0.59375 0.84375 -0.9375q0.53125 -0.359375 1.1875 -0.546875q0.46875 -0.125 1.453125 -0.25q1.984375 -0.234375 2.921875 -0.5625q0.015625 -0.34375 0.015625 -0.421875q0 -1.0 -0.46875 -1.421875q-0.625 -0.546875 -1.875 -0.546875q-1.15625 0 -1.703125 0.40625q-0.546875 0.40625 -0.8125 1.421875l-1.609375 -0.21875q0.21875 -1.015625 0.71875 -1.640625q0.5 -0.640625 1.453125 -0.984375q0.953125 -0.34375 2.1875 -0.34375q1.25 0 2.015625 0.296875q0.78125 0.28125 1.140625 0.734375q0.375 0.4375 0.515625 1.109375q0.078125 0.421875 0.078125 1.515625l0 2.1875q0 2.28125 0.109375 2.890625q0.109375 0.59375 0.40625 1.15625l-1.703125 0q-0.265625 -0.515625 -0.328125 -1.1875zm-0.140625 -3.671875q-0.890625 0.375 -2.671875 0.625q-1.015625 0.140625 -1.4375 0.328125q-0.421875 0.1875 -0.65625 0.53125q-0.21875 0.34375 -0.21875 0.78125q0 0.65625 0.5 1.09375q0.5 0.4375 1.453125 0.4375q0.9375 0 1.671875 -0.40625q0.75 -0.421875 1.09375 -1.140625q0.265625 -0.5625 0.265625 -1.640625l0 -0.609375zm7.7819824 3.390625l0.234375 1.453125q-0.6875 0.140625 -1.234375 0.140625q-0.890625 0 -1.390625 -0.28125q-0.484375 -0.28125 -0.6875 -0.734375q-0.203125 -0.46875 -0.203125 -1.9375l0 -5.578125l-1.203125 0l0 -1.265625l1.203125 0l0 -2.390625l1.625 -0.9843788l0 3.3750038l1.65625 0l0 1.265625l-1.65625 0l0 5.671875q0 0.6875 0.078125 0.890625q0.09375 0.203125 0.28125 0.328125q0.203125 0.109375 0.578125 0.109375q0.265625 0 0.71875 -0.0625zm1.6051636 -10.0l0 -1.8906288l1.640625 0l0 1.8906288l-1.640625 0zm0 11.46875l0 -9.671875l1.640625 0l0 9.671875l-1.640625 0zm3.5354614 -4.84375q0 -2.6875 1.484375 -3.96875q1.25 -1.078125 3.046875 -1.078125q2.0 0 3.265625 1.3125q1.265625 1.296875 1.265625 3.609375q0 1.859375 -0.5625 2.9375q-0.5625 1.0625 -1.640625 1.65625q-1.0625 0.59375 -2.328125 0.59375q-2.03125 0 -3.28125 -1.296875q-1.25 -1.3125 -1.25 -3.765625zm1.6875 0q0 1.859375 0.796875 2.796875q0.8125 0.921875 2.046875 0.921875q1.21875 0 2.03125 -0.921875q0.8125 -0.9375 0.8125 -2.84375q0 -1.796875 -0.8125 -2.71875q-0.8125 -0.921875 -2.03125 -0.921875q-1.234375 0 -2.046875 0.921875q-0.796875 0.90625 -0.796875 2.765625zm9.297607 4.84375l0 -9.671875l1.46875 0l0 1.375q1.0625 -1.59375 3.078125 -1.59375q0.875 0 1.609375 0.3125q0.734375 0.3125 1.09375 0.828125q0.375 0.5 0.515625 1.203125q0.09375 0.453125 0.09375 1.59375l0 5.953125l-1.640625 0l0 -5.890625q0 -1.0 -0.203125 -1.484375q-0.1875 -0.5 -0.671875 -0.796875q-0.484375 -0.296875 -1.140625 -0.296875q-1.046875 0 -1.8125 0.671875q-0.75 0.65625 -0.75 2.515625l0 5.28125l-1.640625 0zm15.715271 0l0 -13.359379l2.65625 0l3.15625 9.453129q0.4375 1.328125 0.640625 1.984375q0.234375 -0.734375 0.703125 -2.140625l3.203125 -9.296879l2.375 0l0 13.359379l-1.703125 0l0 -11.171875l-3.875 11.171875l-1.59375 0l-3.859375 -11.375l0 11.375l-1.703125 0zm21.697021 -1.1875q-0.921875 0.765625 -1.765625 1.09375q-0.828125 0.3125 -1.796875 0.3125q-1.59375 0 -2.453125 -0.78125q-0.859375 -0.78125 -0.859375 -1.984375q0 -0.71875 0.328125 -1.296875q0.328125 -0.59375 0.84375 -0.9375q0.53125 -0.359375 1.1875 -0.546875q0.46875 -0.125 1.453125 -0.25q1.984375 -0.234375 2.921875 -0.5625q0.015625 -0.34375 0.015625 -0.421875q0 -1.0 -0.46875 -1.421875q-0.625 -0.546875 -1.875 -0.546875q-1.15625 0 -1.703125 0.40625q-0.546875 0.40625 -0.8125 1.421875l-1.609375 -0.21875q0.21875 -1.015625 0.71875 -1.640625q0.5 -0.640625 1.453125 -0.984375q0.953125 -0.34375 2.1875 -0.34375q1.25 0 2.015625 0.296875q0.78125 0.28125 1.140625 0.734375q0.375 0.4375 0.515625 1.109375q0.078125 0.421875 0.078125 1.515625l0 2.1875q0 2.28125 0.109375 2.890625q0.109375 0.59375 0.40625 1.15625l-1.703125 0q-0.265625 -0.515625 -0.328125 -1.1875zm-0.140625 -3.671875q-0.890625 0.375 -2.671875 0.625q-1.015625 0.140625 -1.4375 0.328125q-0.421875 0.1875 -0.65625 0.53125q-0.21875 0.34375 -0.21875 0.78125q0 0.65625 0.5 1.09375q0.5 0.4375 1.453125 0.4375q0.9375 0 1.671875 -0.40625q0.75 -0.421875 1.09375 -1.140625q0.265625 -0.5625 0.265625 -1.640625l0 -0.609375zm4.2038574 4.859375l0 -9.671875l1.46875 0l0 1.375q1.0625 -1.59375 3.078125 -1.59375q0.875 0 1.609375 0.3125q0.734375 0.3125 1.09375 0.828125q0.375 0.5 0.515625 1.203125q0.09375 0.453125 0.09375 1.59375l0 5.953125l-1.640625 0l0 -5.890625q0 -1.0 -0.203125 -1.484375q-0.1875 -0.5 -0.671875 -0.796875q-0.484375 -0.296875 -1.140625 -0.296875q-1.046875 0 -1.8125 0.671875q-0.75 0.65625 -0.75 2.515625l0 5.28125l-1.640625 0zm16.688232 -1.1875q-0.921875 0.765625 -1.765625 1.09375q-0.828125 0.3125 -1.796875 0.3125q-1.59375 0 -2.453125 -0.78125q-0.859375 -0.78125 -0.859375 -1.984375q0 -0.71875 0.328125 -1.296875q0.328125 -0.59375 0.84375 -0.9375q0.53125 -0.359375 1.1875 -0.546875q0.46875 -0.125 1.453125 -0.25q1.984375 -0.234375 2.921875 -0.5625q0.015625 -0.34375 0.015625 -0.421875q0 -1.0 -0.46875 -1.421875q-0.625 -0.546875 -1.875 -0.546875q-1.15625 0 -1.703125 0.40625q-0.546875 0.40625 -0.8125 1.421875l-1.609375 -0.21875q0.21875 -1.015625 0.71875 -1.640625q0.5 -0.640625 1.453125 -0.984375q0.953125 -0.34375 2.1875 -0.34375q1.25 0 2.015625 0.296875q0.78125 0.28125 1.140625 0.734375q0.375 0.4375 0.515625 1.109375q0.078125 0.421875 0.078125 1.515625l0 2.1875q0 2.28125 0.109375 2.890625q0.109375 0.59375 0.40625 1.15625l-1.703125 0q-0.265625 -0.515625 -0.328125 -1.1875zm-0.140625 -3.671875q-0.890625 0.375 -2.671875 0.625q-1.015625 0.140625 -1.4375 0.328125q-0.421875 0.1875 -0.65625 0.53125q-0.21875 0.34375 -0.21875 0.78125q0 0.65625 0.5 1.09375q0.5 0.4375 1.453125 0.4375q0.9375 0 1.671875 -0.40625q0.75 -0.421875 1.09375 -1.140625q0.265625 -0.5625 0.265625 -1.640625l0 -0.609375zm3.8912964 5.65625l1.59375 0.234375q0.109375 0.75 0.5625 1.078125q0.609375 0.453125 1.671875 0.453125q1.140625 0 1.75 -0.453125q0.625 -0.453125 0.84375 -1.265625q0.125 -0.5 0.109375 -2.109375q-1.0625 1.265625 -2.671875 1.265625q-2.0 0 -3.09375 -1.4375q-1.09375 -1.4375 -1.09375 -3.453125q0 -1.390625 0.5 -2.5625q0.515625 -1.171875 1.453125 -1.796875q0.953125 -0.640625 2.25 -0.640625q1.703125 0 2.8125 1.375l0 -1.15625l1.515625 0l0 8.359375q0 2.265625 -0.46875 3.203125q-0.453125 0.9375 -1.453125 1.484375q-0.984375 0.546875 -2.453125 0.546875q-1.71875 0 -2.796875 -0.78125q-1.0625 -0.765625 -1.03125 -2.34375zm1.359375 -5.8125q0 1.90625 0.75 2.78125q0.765625 0.875 1.90625 0.875q1.125 0 1.890625 -0.859375q0.765625 -0.875 0.765625 -2.734375q0 -1.78125 -0.796875 -2.671875q-0.78125 -0.90625 -1.890625 -0.90625q-1.09375 0 -1.859375 0.890625q-0.765625 0.875 -0.765625 2.625zm15.953857 1.90625l1.6875 0.203125q-0.40625 1.484375 -1.484375 2.3125q-1.078125 0.8125 -2.765625 0.8125q-2.125 0 -3.375 -1.296875q-1.234375 -1.3125 -1.234375 -3.671875q0 -2.453125 1.25 -3.796875q1.265625 -1.34375 3.265625 -1.34375q1.9375 0 3.15625 1.328125q1.234375 1.3125 1.234375 3.703125q0 0.15625 0 0.4375l-7.21875 0q0.09375 1.59375 0.90625 2.453125q0.8125 0.84375 2.015625 0.84375q0.90625 0 1.546875 -0.46875q0.640625 -0.484375 1.015625 -1.515625zm-5.390625 -2.65625l5.40625 0q-0.109375 -1.21875 -0.625 -1.828125q-0.78125 -0.953125 -2.03125 -0.953125q-1.125 0 -1.90625 0.765625q-0.765625 0.75 -0.84375 2.015625zm9.141357 5.765625l0 -9.671875l1.46875 0l0 1.359375q0.453125 -0.71875 1.203125 -1.140625q0.765625 -0.4375 1.71875 -0.4375q1.078125 0 1.765625 0.453125q0.6875 0.4375 0.96875 1.234375q1.15625 -1.6875 2.984375 -1.6875q1.453125 0 2.21875 0.796875q0.78125 0.796875 0.78125 2.453125l0 6.640625l-1.640625 0l0 -6.09375q0 -0.984375 -0.15625 -1.40625q-0.15625 -0.4375 -0.578125 -0.703125q-0.421875 -0.265625 -0.984375 -0.265625q-1.015625 0 -1.6875 0.6875q-0.671875 0.671875 -0.671875 2.15625l0 5.625l-1.640625 0l0 -6.28125q0 -1.09375 -0.40625 -1.640625q-0.40625 -0.546875 -1.3125 -0.546875q-0.6875 0 -1.28125 0.359375q-0.59375 0.359375 -0.859375 1.0625q-0.25 0.703125 -0.25 2.03125l0 5.015625l-1.640625 0zm22.165771 -3.109375l1.6875 0.203125q-0.40625 1.484375 -1.484375 2.3125q-1.078125 0.8125 -2.765625 0.8125q-2.125 0 -3.375 -1.296875q-1.234375 -1.3125 -1.234375 -3.671875q0 -2.453125 1.25 -3.796875q1.265625 -1.34375 3.265625 -1.34375q1.9375 0 3.15625 1.328125q1.234375 1.3125 1.234375 3.703125q0 0.15625 0 0.4375l-7.21875 0q0.09375 1.59375 0.90625 2.453125q0.8125 0.84375 2.015625 0.84375q0.90625 0 1.546875 -0.46875q0.640625 -0.484375 1.015625 -1.515625zm-5.390625 -2.65625l5.40625 0q-0.109375 -1.21875 -0.625 -1.828125q-0.78125 -0.953125 -2.03125 -0.953125q-1.125 0 -1.90625 0.765625q-0.765625 0.75 -0.84375 2.015625zm9.141357 5.765625l0 -9.671875l1.46875 0l0 1.375q1.0625 -1.59375 3.078125 -1.59375q0.875 0 1.609375 0.3125q0.734375 0.3125 1.09375 0.828125q0.375 0.5 0.515625 1.203125q0.09375 0.453125 0.09375 1.59375l0 5.953125l-1.640625 0l0 -5.890625q0 -1.0 -0.203125 -1.484375q-0.1875 -0.5 -0.671875 -0.796875q-0.484375 -0.296875 -1.140625 -0.296875q-1.046875 0 -1.8125 0.671875q-0.75 0.65625 -0.75 2.515625l0 5.28125l-1.640625 0zm13.953857 -1.46875l0.234375 1.453125q-0.6875 0.140625 -1.234375 0.140625q-0.890625 0 -1.390625 -0.28125q-0.484375 -0.28125 -0.6875 -0.734375q-0.203125 -0.46875 -0.203125 -1.9375l0 -5.578125l-1.203125 0l0 -1.265625l1.203125 0l0 -2.390625l1.625 -0.9843788l0 3.3750038l1.65625 0l0 1.265625l-1.65625 0l0 5.671875q0 0.6875 0.078125 0.890625q0.09375 0.203125 0.28125 0.328125q0.203125 0.109375 0.578125 0.109375q0.265625 0 0.71875 -0.0625z" fill-rule="nonzero"/><g filter="url(#shadowFilter-p.5)"><use xlink:href="#p.5" transform="matrix(1.0 0.0 0.0 1.0 0.0 2.0)"/></g><defs><filter id="shadowFilter-p.5" filterUnits="userSpaceOnUse"><feGaussianBlur in="SourceAlpha" stdDeviation="2.0" result="blur"/><feComponentTransfer in="blur" color-interpolation-filters="sRGB"><feFuncR type="linear" slope="0" intercept="0.0"/><feFuncG type="linear" slope="0" intercept="0.0"/><feFuncB type="linear" slope="0" intercept="0.0"/><feFuncA type="linear" slope="0.5" intercept="0"/></feComponentTransfer></filter></defs><g id="p.5"><path fill="#cfe2f3" d="m68.58748 449.46063l0 0c0 -14.315918 11.605339 -25.921265 25.921257 -25.921265l0 0c6.874748 0 13.467918 2.7309875 18.329102 7.592163c4.8611755 4.8611755 7.5921555 11.454346 7.5921555 18.329102l0 0c0 14.315918 -11.605339 25.921265 -25.921257 25.921265l0 0c-14.315918 0 -25.921257 -11.605347 -25.921257 -25.921265z" fill-rule="evenodd"/><path stroke="#000000" stroke-width="1.0" stroke-linejoin="round" stroke-linecap="butt" d="m68.58748 449.46063l0 0c0 -14.315918 11.605339 -25.921265 25.921257 -25.921265l0 0c6.874748 0 13.467918 2.7309875 18.329102 7.592163c4.8611755 4.8611755 7.5921555 11.454346 7.5921555 18.329102l0 0c0 14.315918 -11.605339 25.921265 -25.921257 25.921265l0 0c-14.315918 0 -25.921257 -11.605347 -25.921257 -25.921265z" fill-rule="evenodd"/></g><g filter="url(#shadowFilter-p.6)"><use xlink:href="#p.6" transform="matrix(1.0 0.0 0.0 1.0 0.0 2.0)"/></g><defs><filter id="shadowFilter-p.6" filterUnits="userSpaceOnUse"><feGaussianBlur in="SourceAlpha" stdDeviation="2.0" result="blur"/><feComponentTransfer in="blur" color-interpolation-filters="sRGB"><feFuncR type="linear" slope="0" intercept="0.0"/><feFuncG type="linear" slope="0" intercept="0.0"/><feFuncB type="linear" slope="0" intercept="0.0"/><feFuncA type="linear" slope="0.5" intercept="0"/></feComponentTransfer></filter></defs><g id="p.6"><path fill="#cfe2f3" d="m211.44574 449.46063l0 0c0 -14.315918 11.605331 -25.921265 25.92125 -25.921265l0 0c6.874756 0 13.467926 2.7309875 18.329102 7.592163c4.861191 4.8611755 7.5921783 11.454346 7.5921783 18.329102l0 0c0 14.315918 -11.605362 25.921265 -25.92128 25.921265l0 0c-14.315918 0 -25.92125 -11.605347 -25.92125 -25.921265z" fill-rule="evenodd"/><path stroke="#000000" stroke-width="1.0" stroke-linejoin="round" stroke-linecap="butt" d="m211.44574 449.46063l0 0c0 -14.315918 11.605331 -25.921265 25.92125 -25.921265l0 0c6.874756 0 13.467926 2.7309875 18.329102 7.592163c4.861191 4.8611755 7.5921783 11.454346 7.5921783 18.329102l0 0c0 14.315918 -11.605362 25.921265 -25.92128 25.921265l0 0c-14.315918 0 -25.92125 -11.605347 -25.92125 -25.921265z" fill-rule="evenodd"/></g><g filter="url(#shadowFilter-p.7)"><use xlink:href="#p.7" transform="matrix(1.0 0.0 0.0 1.0 0.0 2.0)"/></g><defs><filter id="shadowFilter-p.7" filterUnits="userSpaceOnUse"><feGaussianBlur in="SourceAlpha" stdDeviation="2.0" result="blur"/><feComponentTransfer in="blur" color-interpolation-filters="sRGB"><feFuncR type="linear" slope="0" intercept="0.0"/><feFuncG type="linear" slope="0" intercept="0.0"/><feFuncB type="linear" slope="0" intercept="0.0"/><feFuncA type="linear" slope="0.5" intercept="0"/></feComponentTransfer></filter></defs><g id="p.7"><path fill="#cfe2f3" d="m354.304 451.1378l0 0c0 -14.315918 11.605347 -25.921265 25.921265 -25.921265l0 0c6.874756 0 13.467926 2.7309875 18.329102 7.592163c4.8611755 4.8611755 7.592163 11.454376 7.592163 18.329102l0 0c0 14.315918 -11.605347 25.921265 -25.921265 25.921265l0 0c-14.315918 0 -25.921265 -11.605347 -25.921265 -25.921265z" fill-rule="evenodd"/><path stroke="#000000" stroke-width="1.0" stroke-linejoin="round" stroke-linecap="butt" d="m354.304 451.1378l0 0c0 -14.315918 11.605347 -25.921265 25.921265 -25.921265l0 0c6.874756 0 13.467926 2.7309875 18.329102 7.592163c4.8611755 4.8611755 7.592163 11.454376 7.592163 18.329102l0 0c0 14.315918 -11.605347 25.921265 -25.921265 25.921265l0 0c-14.315918 0 -25.921265 -11.605347 -25.921265 -25.921265z" fill-rule="evenodd"/></g><path fill="#000000" fill-opacity="0.0" d="m120.42999 449.46063c22.75409 0 34.13022 0.01574707 45.50818 0.03149414c11.377945 0.01574707 22.75772 0.03149414 45.51544 0.03149414" fill-rule="evenodd"/><path stroke="#000000" stroke-width="1.0" stroke-linejoin="round" stroke-linecap="butt" d="m120.42999 449.46063c22.75409 0 34.13022 0.01574707 45.50818 0.03149414c5.688965 0.007873535 11.378387 0.01574707 18.49031 0.02166748c3.5559387 0.0029296875 7.467514 0.0054016113 11.91246 0.0071105957l11.685593 0.002105713" fill-rule="evenodd"/><path fill="#000000" stroke="#000000" stroke-width="1.0" stroke-linecap="butt" d="m208.02654 449.523l-1.1247864 1.1243896l3.0899658 -1.124054l-3.089569 -1.1251221z" fill-rule="evenodd"/><path fill="#000000" fill-opacity="0.0" d="m263.28827 449.46063c22.754059 0 34.130188 0.41732788 45.50815 0.83465576c11.37796 0.41729736 22.75772 0.83462524 45.515472 0.83462524" fill-rule="evenodd"/><path stroke="#000000" stroke-width="1.0" stroke-linejoin="round" stroke-linecap="butt" d="m263.28827 449.46063c22.75409 0 34.130188 0.41732788 45.50815 0.83465576c5.6889954 0.20864868 11.378418 0.41729736 18.490326 0.5737915c3.5559387 0.07827759 7.4675293 0.14346313 11.912476 0.18911743c2.2224426 0.022827148 4.578247 0.040771484 7.0896606 0.052978516c1.2556458 0.0061035156 2.550232 0.010803223 3.8864746 0.013946533l0.70944214 8.239746E-4" fill-rule="evenodd"/><path fill="#000000" stroke="#000000" stroke-width="1.0" stroke-linecap="butt" d="m350.8848 451.12595l-1.125885 1.123291l3.0910645 -1.1210022l-3.0884705 -1.1281738z" fill-rule="evenodd"/><g filter="url(#shadowFilter-p.8)"><use xlink:href="#p.8" transform="matrix(1.0 0.0 0.0 1.0 0.0 2.0)"/></g><defs><filter id="shadowFilter-p.8" filterUnits="userSpaceOnUse"><feGaussianBlur in="SourceAlpha" stdDeviation="2.0" result="blur"/><feComponentTransfer in="blur" color-interpolation-filters="sRGB"><feFuncR type="linear" slope="0" intercept="0.0"/><feFuncG type="linear" slope="0" intercept="0.0"/><feFuncB type="linear" slope="0" intercept="0.0"/><feFuncA type="linear" slope="0.5" intercept="0"/></feComponentTransfer></filter></defs><g id="p.8"><path fill="#cfe2f3" d="m144.9339 523.30316l0 0c0 -14.315918 11.605331 -25.921265 25.92125 -25.921265l0 0c6.874756 0 13.467926 2.7309875 18.329102 7.592163c4.8611755 4.8611755 7.592163 11.454346 7.592163 18.329102l0 0c0 14.315918 -11.605347 25.921265 -25.921265 25.921265l0 0c-14.315918 0 -25.92125 -11.605347 -25.92125 -25.921265z" fill-rule="evenodd"/><path stroke="#000000" stroke-width="1.0" stroke-linejoin="round" stroke-linecap="butt" d="m144.9339 523.30316l0 0c0 -14.315918 11.605331 -25.921265 25.92125 -25.921265l0 0c6.874756 0 13.467926 2.7309875 18.329102 7.592163c4.8611755 4.8611755 7.592163 11.454346 7.592163 18.329102l0 0c0 14.315918 -11.605347 25.921265 -25.921265 25.921265l0 0c-14.315918 0 -25.92125 -11.605347 -25.92125 -25.921265z" fill-rule="evenodd"/></g><path fill="#000000" fill-opacity="0.0" d="m112.83784 467.78973c0 27.763763 16.047249 55.527527 32.09449 55.527527" fill-rule="evenodd"/><path stroke="#000000" stroke-width="1.0" stroke-linejoin="round" stroke-linecap="butt" d="m112.83784 467.78973c0 13.881897 4.0118103 27.763794 10.029526 38.1752c3.0088577 5.205719 6.519188 9.543793 10.280266 12.580475c1.880539 1.5183105 3.823761 2.7113037 5.7983246 3.5246582c0.49363708 0.20336914 0.98924255 0.3829956 1.4863129 0.5380249c0.24853516 0.07757568 0.49743652 0.14892578 0.7466278 0.21411133l0.350708 0.0871582" fill-rule="evenodd"/><path fill="#000000" stroke="#000000" stroke-width="1.0" stroke-linecap="butt" d="m141.5296 522.90936l-1.2504578 0.98272705l3.2016754 -0.7487793l-2.9339447 -1.484375z" fill-rule="evenodd"/><g filter="url(#shadowFilter-p.9)"><use xlink:href="#p.9" transform="matrix(1.0 0.0 0.0 1.0 0.0 2.0)"/></g><defs><filter id="shadowFilter-p.9" filterUnits="userSpaceOnUse"><feGaussianBlur in="SourceAlpha" stdDeviation="2.0" result="blur"/><feComponentTransfer in="blur" color-interpolation-filters="sRGB"><feFuncR type="linear" slope="0" intercept="0.0"/><feFuncG type="linear" slope="0" intercept="0.0"/><feFuncB type="linear" slope="0" intercept="0.0"/><feFuncA type="linear" slope="0.5" intercept="0"/></feComponentTransfer></filter></defs><g id="p.9"><path fill="#cfe2f3" d="m354.30136 523.304l0 0c0 -14.315918 11.605347 -25.921265 25.921265 -25.921265l0 0c6.874756 0 13.467926 2.7309875 18.329102 7.592163c4.8611755 4.8611755 7.592163 11.454346 7.592163 18.329102l0 0c0 14.315918 -11.605347 25.921265 -25.921265 25.921265l0 0c-14.315918 0 -25.921265 -11.605347 -25.921265 -25.921265z" fill-rule="evenodd"/><path stroke="#000000" stroke-width="1.0" stroke-linejoin="round" stroke-linecap="butt" d="m354.30136 523.304l0 0c0 -14.315918 11.605347 -25.921265 25.921265 -25.921265l0 0c6.874756 0 13.467926 2.7309875 18.329102 7.592163c4.8611755 4.8611755 7.592163 11.454346 7.592163 18.329102l0 0c0 14.315918 -11.605347 25.921265 -25.921265 25.921265l0 0c-14.315918 0 -25.921265 -11.605347 -25.921265 -25.921265z" fill-rule="evenodd"/></g><path fill="#000000" fill-opacity="0.0" d="m196.77641 523.30316c39.381104 0 59.073227 0.01574707 78.76219 0.03149414c19.688995 0.01574707 39.374817 0.03149414 78.74963 0.03149414" fill-rule="evenodd"/><path stroke="#000000" stroke-width="1.0" stroke-linejoin="round" stroke-linecap="butt" d="m196.77641 523.30316c39.381104 0 59.073227 0.01574707 78.76219 0.03149414c9.844482 0.007873535 19.688202 0.01574707 31.992615 0.02166748c6.1522217 0.0029296875 12.919617 0.0053710938 20.609894 0.0071411133l22.720032 0.002319336" fill-rule="evenodd"/><path fill="#000000" stroke="#000000" stroke-width="1.0" stroke-linecap="butt" d="m350.86115 523.3658l-1.1246948 1.1244507l3.0898743 -1.1242676l-3.0896606 -1.1248779z" fill-rule="evenodd"/><g filter="url(#shadowFilter-p.10)"><use xlink:href="#p.10" transform="matrix(1.0 0.0 0.0 1.0 0.0 2.0)"/></g><defs><filter id="shadowFilter-p.10" filterUnits="userSpaceOnUse"><feGaussianBlur in="SourceAlpha" stdDeviation="2.0" result="blur"/><feComponentTransfer in="blur" color-interpolation-filters="sRGB"><feFuncR type="linear" slope="0" intercept="0.0"/><feFuncG type="linear" slope="0" intercept="0.0"/><feFuncB type="linear" slope="0" intercept="0.0"/><feFuncA type="linear" slope="0.5" intercept="0"/></feComponentTransfer></filter></defs><g id="p.10"><path fill="#cfe2f3" d="m354.30136 667.6365l0 0c0 -14.315918 11.605347 -25.921265 25.921265 -25.921265l0 0c6.874756 0 13.467926 2.731018 18.329102 7.592163c4.8611755 4.861206 7.592163 11.454346 7.592163 18.329102l0 0c0 14.315918 -11.605347 25.921265 -25.921265 25.921265l0 0c-14.315918 0 -25.921265 -11.605347 -25.921265 -25.921265z" fill-rule="evenodd"/><path stroke="#000000" stroke-width="1.0" stroke-linejoin="round" stroke-linecap="butt" d="m354.30136 667.6365l0 0c0 -14.315918 11.605347 -25.921265 25.921265 -25.921265l0 0c6.874756 0 13.467926 2.731018 18.329102 7.592163c4.8611755 4.861206 7.592163 11.454346 7.592163 18.329102l0 0c0 14.315918 -11.605347 25.921265 -25.921265 25.921265l0 0c-14.315918 0 -25.921265 -11.605347 -25.921265 -25.921265z" fill-rule="evenodd"/></g><path fill="#000000" fill-opacity="0.0" d="m274.53333 613.80023c0 26.913391 39.88977 53.826782 79.77954 53.826782" fill-rule="evenodd"/><path stroke="#000000" stroke-width="1.0" stroke-linejoin="round" stroke-linecap="butt" d="m274.53336 613.80023c0 13.456726 9.972412 26.913391 24.931091 37.00592c7.4793396 5.0462646 16.2052 9.251465 25.554382 12.195129c4.674591 1.4718018 9.504974 2.6282349 14.4133 3.416748c2.4541626 0.39422607 4.927765 0.69647217 7.411133 0.9001465c1.2416992 0.101867676 2.4858093 0.17907715 3.7311707 0.23077393l0.31201172 0.011352539" fill-rule="evenodd"/><path fill="#000000" stroke="#000000" stroke-width="1.0" stroke-linecap="butt" d="m350.88644 667.56036l-1.1462708 1.102478l3.111084 -1.06427l-3.0673218 -1.1844482z" fill-rule="evenodd"/><g filter="url(#shadowFilter-p.11)"><use xlink:href="#p.11" transform="matrix(1.0 0.0 0.0 1.0 0.0 2.0)"/></g><defs><filter id="shadowFilter-p.11" filterUnits="userSpaceOnUse"><feGaussianBlur in="SourceAlpha" stdDeviation="2.0" result="blur"/><feComponentTransfer in="blur" color-interpolation-filters="sRGB"><feFuncR type="linear" slope="0" intercept="0.0"/><feFuncG type="linear" slope="0" intercept="0.0"/><feFuncB type="linear" slope="0" intercept="0.0"/><feFuncA type="linear" slope="0.5" intercept="0"/></feComponentTransfer></filter></defs><g id="p.11"><path fill="#cfe2f3" d="m230.28297 595.4711l0 0c0 -14.315918 11.605347 -25.921265 25.92125 -25.921265l0 0c6.874756 0 13.467926 2.730957 18.329102 7.592163c4.8611755 4.861206 7.592163 11.454346 7.592163 18.329102l0 0c0 14.315918 -11.605347 25.921265 -25.921265 25.921265l0 0c-14.315903 0 -25.92125 -11.605347 -25.92125 -25.921265z" fill-rule="evenodd"/><path stroke="#000000" stroke-width="1.0" stroke-linejoin="round" stroke-linecap="butt" d="m230.28297 595.4711l0 0c0 -14.315918 11.605347 -25.921265 25.92125 -25.921265l0 0c6.874756 0 13.467926 2.730957 18.329102 7.592163c4.8611755 4.861206 7.592163 11.454346 7.592163 18.329102l0 0c0 14.315918 -11.605347 25.921265 -25.921265 25.921265l0 0c-14.315903 0 -25.92125 -11.605347 -25.92125 -25.921265z" fill-rule="evenodd"/></g><path fill="#000000" fill-opacity="0.0" d="m189.18425 541.63226c0 26.913391 20.551178 53.826782 41.10237 53.826782" fill-rule="evenodd"/><path stroke="#000000" stroke-width="1.0" stroke-linejoin="round" stroke-linecap="butt" d="m189.18427 541.63226c0 13.456665 5.137787 26.913391 12.844482 37.00592c3.8533478 5.0462646 8.348923 9.251465 13.165604 12.195129c2.4083405 1.4718018 4.8969574 2.6282349 7.42572 3.416748c1.264389 0.39422607 2.5387878 0.69647217 3.818222 0.9001465l0.42997742 0.06427002" fill-rule="evenodd"/><path fill="#000000" stroke="#000000" stroke-width="1.0" stroke-linecap="butt" d="m226.86827 595.2145l-1.2019653 1.0415039l3.16214 -0.9012451l-3.001648 -1.3422241z" fill-rule="evenodd"/><g filter="url(#shadowFilter-p.12)"><use xlink:href="#p.12" transform="matrix(1.0 0.0 0.0 1.0 0.0 2.0)"/></g><defs><filter id="shadowFilter-p.12" filterUnits="userSpaceOnUse"><feGaussianBlur in="SourceAlpha" stdDeviation="2.0" result="blur"/><feComponentTransfer in="blur" color-interpolation-filters="sRGB"><feFuncR type="linear" slope="0" intercept="0.0"/><feFuncG type="linear" slope="0" intercept="0.0"/><feFuncB type="linear" slope="0" intercept="0.0"/><feFuncA type="linear" slope="0.5" intercept="0"/></feComponentTransfer></filter></defs><g id="p.12"><path fill="#cfe2f3" d="m354.30136 595.4703l0 0c0 -14.315918 11.605347 -25.921265 25.921265 -25.921265l0 0c6.874756 0 13.467926 2.730957 18.329102 7.592163c4.8611755 4.861145 7.592163 11.454346 7.592163 18.329102l0 0c0 14.315918 -11.605347 25.921265 -25.921265 25.921265l0 0c-14.315918 0 -25.921265 -11.605347 -25.921265 -25.921265z" fill-rule="evenodd"/><path stroke="#000000" stroke-width="1.0" stroke-linejoin="round" stroke-linecap="butt" d="m354.30136 595.4703l0 0c0 -14.315918 11.605347 -25.921265 25.921265 -25.921265l0 0c6.874756 0 13.467926 2.730957 18.329102 7.592163c4.8611755 4.861145 7.592163 11.454346 7.592163 18.329102l0 0c0 14.315918 -11.605347 25.921265 -25.921265 25.921265l0 0c-14.315918 0 -25.921265 -11.605347 -25.921265 -25.921265z" fill-rule="evenodd"/></g><path fill="#000000" fill-opacity="0.0" d="m282.1255 595.4711c18.044006 0 27.064362 0.01574707 36.087982 0.03149414c9.023651 0.01574707 18.050507 0.03149414 36.101013 0.03149414" fill-rule="evenodd"/><path stroke="#000000" stroke-width="1.0" stroke-linejoin="round" stroke-linecap="butt" d="m282.1255 595.4711c18.044006 0 27.064362 0.01574707 36.087982 0.03149414c4.5118103 0.007873535 9.024445 0.01574707 14.665436 0.02166748c2.8204956 0.0029296875 5.923065 0.0053710938 9.4487 0.0071411133l8.559784 0.0018920898" fill-rule="evenodd"/><path fill="#000000" stroke="#000000" stroke-width="1.0" stroke-linecap="butt" d="m350.8874 595.5333l-1.1248474 1.1243286l3.0900269 -1.1238403l-3.089508 -1.1253052z" fill-rule="evenodd"/><g filter="url(#shadowFilter-p.13)"><use xlink:href="#p.13" transform="matrix(1.0 0.0 0.0 1.0 0.0 2.0)"/></g><defs><filter id="shadowFilter-p.13" filterUnits="userSpaceOnUse"><feGaussianBlur in="SourceAlpha" stdDeviation="2.0" result="blur"/><feComponentTransfer in="blur" color-interpolation-filters="sRGB"><feFuncR type="linear" slope="0" intercept="0.0"/><feFuncG type="linear" slope="0" intercept="0.0"/><feFuncB type="linear" slope="0" intercept="0.0"/><feFuncA type="linear" slope="0.5" intercept="0"/></feComponentTransfer></filter></defs><g id="p.13"><path fill="#cfe2f3" d="m580.5927 441.14172l0 0c0 -14.315918 11.605347 -25.921265 25.921265 -25.921265l0 0c6.874756 0 13.4678955 2.7309875 18.329102 7.592163c4.861145 4.861206 7.592163 11.454376 7.592163 18.329102l0 0c0 14.315918 -11.605347 25.921265 -25.921265 25.921265l0 0c-14.315918 0 -25.921265 -11.605347 -25.921265 -25.921265z" fill-rule="evenodd"/><path stroke="#000000" stroke-width="1.0" stroke-linejoin="round" stroke-linecap="butt" d="m580.5927 441.14172l0 0c0 -14.315918 11.605347 -25.921265 25.921265 -25.921265l0 0c6.874756 0 13.4678955 2.7309875 18.329102 7.592163c4.861145 4.861206 7.592163 11.454376 7.592163 18.329102l0 0c0 14.315918 -11.605347 25.921265 -25.921265 25.921265l0 0c-14.315918 0 -25.921265 -11.605347 -25.921265 -25.921265z" fill-rule="evenodd"/></g><g filter="url(#shadowFilter-p.14)"><use xlink:href="#p.14" transform="matrix(1.0 0.0 0.0 1.0 0.0 2.0)"/></g><defs><filter id="shadowFilter-p.14" filterUnits="userSpaceOnUse"><feGaussianBlur in="SourceAlpha" stdDeviation="2.0" result="blur"/><feComponentTransfer in="blur" color-interpolation-filters="sRGB"><feFuncR type="linear" slope="0" intercept="0.0"/><feFuncG type="linear" slope="0" intercept="0.0"/><feFuncB type="linear" slope="0" intercept="0.0"/><feFuncA type="linear" slope="0.5" intercept="0"/></feComponentTransfer></filter></defs><g id="p.14"><path fill="#cfe2f3" d="m740.2568 444.54068l0 0c0 -14.315918 11.605347 -25.921265 25.921265 -25.921265l0 0c6.874695 0 13.4678955 2.7309875 18.32904 7.592163c4.861206 4.8611755 7.592163 11.454346 7.592163 18.329102l0 0c0 14.315918 -11.605347 25.921265 -25.921204 25.921265l0 0c-14.315918 0 -25.921265 -11.605347 -25.921265 -25.921265z" fill-rule="evenodd"/><path stroke="#000000" stroke-width="1.0" stroke-linejoin="round" stroke-linecap="butt" d="m740.2568 444.54068l0 0c0 -14.315918 11.605347 -25.921265 25.921265 -25.921265l0 0c6.874695 0 13.4678955 2.7309875 18.32904 7.592163c4.861206 4.8611755 7.592163 11.454346 7.592163 18.329102l0 0c0 14.315918 -11.605347 25.921265 -25.921204 25.921265l0 0c-14.315918 0 -25.921265 -11.605347 -25.921265 -25.921265z" fill-rule="evenodd"/></g><g filter="url(#shadowFilter-p.15)"><use xlink:href="#p.15" transform="matrix(1.0 0.0 0.0 1.0 0.0 2.0)"/></g><defs><filter id="shadowFilter-p.15" filterUnits="userSpaceOnUse"><feGaussianBlur in="SourceAlpha" stdDeviation="2.0" result="blur"/><feComponentTransfer in="blur" color-interpolation-filters="sRGB"><feFuncR type="linear" slope="0" intercept="0.0"/><feFuncG type="linear" slope="0" intercept="0.0"/><feFuncB type="linear" slope="0" intercept="0.0"/><feFuncA type="linear" slope="0.5" intercept="0"/></feComponentTransfer></filter></defs><g id="p.15"><path fill="#cfe2f3" d="m538.66095 558.5486l0 0c0 -14.315918 11.605347 -25.921265 25.921265 -25.921265l0 0c6.874756 0 13.4678955 2.730957 18.329102 7.592163c4.861145 4.861145 7.592163 11.454346 7.592163 18.329102l0 0c0 14.315918 -11.605347 25.921204 -25.921265 25.921204l0 0c-14.315918 0 -25.921265 -11.605286 -25.921265 -25.921204z" fill-rule="evenodd"/><path stroke="#000000" stroke-width="1.0" stroke-linejoin="round" stroke-linecap="butt" d="m538.66095 558.5486l0 0c0 -14.315918 11.605347 -25.921265 25.921265 -25.921265l0 0c6.874756 0 13.4678955 2.730957 18.329102 7.592163c4.861145 4.861145 7.592163 11.454346 7.592163 18.329102l0 0c0 14.315918 -11.605347 25.921204 -25.921265 25.921204l0 0c-14.315918 0 -25.921265 -11.605286 -25.921265 -25.921204z" fill-rule="evenodd"/></g><g filter="url(#shadowFilter-p.16)"><use xlink:href="#p.16" transform="matrix(1.0 0.0 0.0 1.0 0.0 2.0)"/></g><defs><filter id="shadowFilter-p.16" filterUnits="userSpaceOnUse"><feGaussianBlur in="SourceAlpha" stdDeviation="2.0" result="blur"/><feComponentTransfer in="blur" color-interpolation-filters="sRGB"><feFuncR type="linear" slope="0" intercept="0.0"/><feFuncG type="linear" slope="0" intercept="0.0"/><feFuncB type="linear" slope="0" intercept="0.0"/><feFuncA type="linear" slope="0.5" intercept="0"/></feComponentTransfer></filter></defs><g id="p.16"><path fill="#cfe2f3" d="m657.0074 529.3097l0 0c0 -14.315918 11.605347 -25.921234 25.921265 -25.921234l0 0c6.874756 0 13.467957 2.7309875 18.329102 7.592163c4.861206 4.8611755 7.592163 11.454315 7.592163 18.329071l0 0c0 14.315918 -11.605347 25.921265 -25.921265 25.921265l0 0c-14.315918 0 -25.921265 -11.605347 -25.921265 -25.921265z" fill-rule="evenodd"/><path stroke="#000000" stroke-width="1.0" stroke-linejoin="round" stroke-linecap="butt" d="m657.0074 529.3097l0 0c0 -14.315918 11.605347 -25.921234 25.921265 -25.921234l0 0c6.874756 0 13.467957 2.7309875 18.329102 7.592163c4.861206 4.8611755 7.592163 11.454315 7.592163 18.329071l0 0c0 14.315918 -11.605347 25.921265 -25.921265 25.921265l0 0c-14.315918 0 -25.921265 -11.605347 -25.921265 -25.921265z" fill-rule="evenodd"/></g><g filter="url(#shadowFilter-p.17)"><use xlink:href="#p.17" transform="matrix(1.0 0.0 0.0 1.0 0.0 2.0)"/></g><defs><filter id="shadowFilter-p.17" filterUnits="userSpaceOnUse"><feGaussianBlur in="SourceAlpha" stdDeviation="2.0" result="blur"/><feComponentTransfer in="blur" color-interpolation-filters="sRGB"><feFuncR type="linear" slope="0" intercept="0.0"/><feFuncG type="linear" slope="0" intercept="0.0"/><feFuncB type="linear" slope="0" intercept="0.0"/><feFuncA type="linear" slope="0.5" intercept="0"/></feComponentTransfer></filter></defs><g id="p.17"><path fill="#cfe2f3" d="m765.5717 558.5486l0 0c0 -14.315918 11.605347 -25.921265 25.921265 -25.921265l0 0c6.874756 0 13.4678955 2.730957 18.329102 7.592163c4.861145 4.861145 7.592163 11.454346 7.592163 18.329102l0 0c0 14.315918 -11.605347 25.921204 -25.921265 25.921204l0 0c-14.315918 0 -25.921265 -11.605286 -25.921265 -25.921204z" fill-rule="evenodd"/><path stroke="#000000" stroke-width="1.0" stroke-linejoin="round" stroke-linecap="butt" d="m765.5717 558.5486l0 0c0 -14.315918 11.605347 -25.921265 25.921265 -25.921265l0 0c6.874756 0 13.4678955 2.730957 18.329102 7.592163c4.861145 4.861145 7.592163 11.454346 7.592163 18.329102l0 0c0 14.315918 -11.605347 25.921204 -25.921265 25.921204l0 0c-14.315918 0 -25.921265 -11.605286 -25.921265 -25.921204z" fill-rule="evenodd"/></g><g filter="url(#shadowFilter-p.18)"><use xlink:href="#p.18" transform="matrix(1.0 0.0 0.0 1.0 0.0 2.0)"/></g><defs><filter id="shadowFilter-p.18" filterUnits="userSpaceOnUse"><feGaussianBlur in="SourceAlpha" stdDeviation="2.0" result="blur"/><feComponentTransfer in="blur" color-interpolation-filters="sRGB"><feFuncR type="linear" slope="0" intercept="0.0"/><feFuncG type="linear" slope="0" intercept="0.0"/><feFuncB type="linear" slope="0" intercept="0.0"/><feFuncA type="linear" slope="0.5" intercept="0"/></feComponentTransfer></filter></defs><g id="p.18"><path fill="#cfe2f3" d="m574.0599 657.64044l0 0c0 -14.315918 11.605347 -25.921265 25.921265 -25.921265l0 0c6.874756 0 13.467957 2.730957 18.329102 7.592163c4.861206 4.861145 7.592163 11.454346 7.592163 18.329102l0 0c0 14.315918 -11.605347 25.921265 -25.921265 25.921265l0 0c-14.315918 0 -25.921265 -11.605347 -25.921265 -25.921265z" fill-rule="evenodd"/><path stroke="#000000" stroke-width="1.0" stroke-linejoin="round" stroke-linecap="butt" d="m574.0599 657.64044l0 0c0 -14.315918 11.605347 -25.921265 25.921265 -25.921265l0 0c6.874756 0 13.467957 2.730957 18.329102 7.592163c4.861206 4.861145 7.592163 11.454346 7.592163 18.329102l0 0c0 14.315918 -11.605347 25.921265 -25.921265 25.921265l0 0c-14.315918 0 -25.921265 -11.605347 -25.921265 -25.921265z" fill-rule="evenodd"/></g><g filter="url(#shadowFilter-p.19)"><use xlink:href="#p.19" transform="matrix(1.0 0.0 0.0 1.0 0.0 2.0)"/></g><defs><filter id="shadowFilter-p.19" filterUnits="userSpaceOnUse"><feGaussianBlur in="SourceAlpha" stdDeviation="2.0" result="blur"/><feComponentTransfer in="blur" color-interpolation-filters="sRGB"><feFuncR type="linear" slope="0" intercept="0.0"/><feFuncG type="linear" slope="0" intercept="0.0"/><feFuncB type="linear" slope="0" intercept="0.0"/><feFuncA type="linear" slope="0.5" intercept="0"/></feComponentTransfer></filter></defs><g id="p.19"><path fill="#cfe2f3" d="m713.7292 657.64044l0 0c0 -14.315918 11.605347 -25.921265 25.921265 -25.921265l0 0c6.874756 0 13.4678955 2.730957 18.329102 7.592163c4.861145 4.861145 7.592163 11.454346 7.592163 18.329102l0 0c0 14.315918 -11.605347 25.921265 -25.921265 25.921265l0 0c-14.315918 0 -25.921265 -11.605347 -25.921265 -25.921265z" fill-rule="evenodd"/><path stroke="#000000" stroke-width="1.0" stroke-linejoin="round" stroke-linecap="butt" d="m713.7292 657.64044l0 0c0 -14.315918 11.605347 -25.921265 25.921265 -25.921265l0 0c6.874756 0 13.4678955 2.730957 18.329102 7.592163c4.861145 4.861145 7.592163 11.454346 7.592163 18.329102l0 0c0 14.315918 -11.605347 25.921265 -25.921265 25.921265l0 0c-14.315918 0 -25.921265 -11.605347 -25.921265 -25.921265z" fill-rule="evenodd"/></g><g filter="url(#shadowFilter-p.20)"><use xlink:href="#p.20" transform="matrix(1.0 0.0 0.0 1.0 0.0 2.0)"/></g><defs><filter id="shadowFilter-p.20" filterUnits="userSpaceOnUse"><feGaussianBlur in="SourceAlpha" stdDeviation="2.0" result="blur"/><feComponentTransfer in="blur" color-interpolation-filters="sRGB"><feFuncR type="linear" slope="0" intercept="0.0"/><feFuncG type="linear" slope="0" intercept="0.0"/><feFuncB type="linear" slope="0" intercept="0.0"/><feFuncA type="linear" slope="0.5" intercept="0"/></feComponentTransfer></filter></defs><g id="p.20"><path fill="#cfe2f3" d="m815.25415 646.3989l0 0c0 -14.315918 11.605347 -25.921265 25.921265 -25.921265l0 0c6.874695 0 13.4678955 2.731018 18.32904 7.592163c4.861206 4.861206 7.592163 11.454407 7.592163 18.329102l0 0c0 14.315918 -11.605347 25.921265 -25.921204 25.921265l0 0c-14.315918 0 -25.921265 -11.605347 -25.921265 -25.921265z" fill-rule="evenodd"/><path stroke="#000000" stroke-width="1.0" stroke-linejoin="round" stroke-linecap="butt" d="m815.25415 646.3989l0 0c0 -14.315918 11.605347 -25.921265 25.921265 -25.921265l0 0c6.874695 0 13.4678955 2.731018 18.32904 7.592163c4.861206 4.861206 7.592163 11.454407 7.592163 18.329102l0 0c0 14.315918 -11.605347 25.921265 -25.921204 25.921265l0 0c-14.315918 0 -25.921265 -11.605347 -25.921265 -25.921265z" fill-rule="evenodd"/></g><path fill="#000000" fill-opacity="0.0" d="m624.8431 459.47083c0 12.87738 9.937012 19.317719 19.874023 25.75473c9.937012 6.4370117 19.874023 12.8706665 19.874023 25.741333" fill-rule="evenodd"/><path stroke="#000000" stroke-width="1.0" stroke-linejoin="round" stroke-linecap="butt" d="m624.8431 459.47086c0 12.877319 9.937012 19.317688 19.873962 25.7547c4.968506 3.2185059 9.937012 6.4361877 13.663391 10.458038c1.8632202 2.0109558 3.4158936 4.222931 4.5027466 6.736603c0.543396 1.2568359 0.97039795 2.5891113 1.2615356 4.0093384c0.072753906 0.35507202 0.13708496 0.7156372 0.19256592 1.0819092l0.005126953 0.03741455" fill-rule="evenodd"/><path fill="#000000" stroke="#000000" stroke-width="1.0" stroke-linecap="butt" d="m664.3424 507.54886l-1.203186 -1.0400391l1.3458252 3.0000305l0.8973999 -3.163208z" fill-rule="evenodd"/><path fill="#000000" fill-opacity="0.0" d="m747.84894 462.86978c0 12.027649 -11.645691 18.03955 -23.291382 24.055298c-11.64563 6.015747 -23.29132 12.035339 -23.29132 24.070679" fill-rule="evenodd"/><path stroke="#000000" stroke-width="1.0" stroke-linejoin="round" stroke-linecap="butt" d="m747.84894 462.86978c0 12.027649 -11.645691 18.03955 -23.291382 24.055298c-5.822815 3.0078735 -11.64563 6.016693 -16.012756 9.778015c-2.1835938 1.8806152 -4.003235 3.9493713 -5.2769165 6.3002014c-0.63690186 1.1753845 -1.1373291 2.4212952 -1.4785156 3.7494507c-0.042663574 0.16604614 -0.08276367 0.3333435 -0.12042236 0.50198364c-0.018859863 0.08428955 -0.036987305 0.1689148 -0.054504395 0.25387573l-0.015136719 0.076293945" fill-rule="evenodd"/><path fill="#000000" stroke="#000000" stroke-width="1.0" stroke-linecap="butt" d="m701.5993 507.5849l-1.0100098 -1.2285461l0.81903076 3.1844482l1.4194946 -2.9658508z" fill-rule="evenodd"/><path fill="#000000" fill-opacity="0.0" d="m784.5071 462.86978c0 19.337433 6.3307495 29.005554 12.661438 38.674835c6.3306885 9.669312 12.661438 19.339722 12.661438 38.679504" fill-rule="evenodd"/><path stroke="#000000" stroke-width="1.0" stroke-linejoin="round" stroke-linecap="butt" d="m784.50714 462.86978c0 19.337402 6.3306885 29.005554 12.661438 38.674835c3.1653442 4.834656 6.3306885 9.669586 8.704712 15.713318c1.1870117 3.0218506 2.1761475 6.3459473 2.8685913 10.123291c0.3461914 1.8886719 0.61816406 3.890686 0.80371094 6.0248413c0.0927124 1.0671387 0.16381836 2.1672363 0.21173096 3.3027954l0.0032348633 0.08886719" fill-rule="evenodd"/><path fill="#000000" stroke="#000000" stroke-width="1.0" stroke-linecap="butt" d="m809.7606 536.7977l-1.1471558 -1.1015625l1.1868896 3.0663452l1.0618286 -3.1118774z" fill-rule="evenodd"/><path fill="#000000" fill-opacity="0.0" d="m809.8221 576.8777c0 12.798035 3.2598267 19.198486 6.5196533 25.59613c3.2598877 6.397644 6.5197144 12.79248 6.5197144 25.58496" fill-rule="evenodd"/><path stroke="#000000" stroke-width="1.0" stroke-linejoin="round" stroke-linecap="butt" d="m809.8221 576.8777c0 12.798035 3.2598267 19.198486 6.5197144 25.59613c1.6298828 3.1988525 3.2598267 6.3969727 4.482239 10.394409c0.6112671 1.9987183 1.1206055 4.1973267 1.4771729 6.6957397c0.17828369 1.2492065 0.31829834 2.5733643 0.4138794 3.9849854c0.023864746 0.3529663 0.044921875 0.7113037 0.06311035 1.0753784l3.6621094E-4 0.008361816" fill-rule="evenodd"/><path fill="#000000" stroke="#000000" stroke-width="1.0" stroke-linecap="butt" d="m822.77856 624.6327l-1.1514282 -1.0970459l1.1989746 3.0616455l1.0494995 -3.1160889z" fill-rule="evenodd"/><path fill="#000000" fill-opacity="0.0" d="m773.1639 576.8777c0 15.608459 -3.795288 23.413818 -7.590576 31.216919c-3.795288 7.8031616 -7.590515 15.604126 -7.590515 31.208252" fill-rule="evenodd"/><path stroke="#000000" stroke-width="1.0" stroke-linejoin="round" stroke-linecap="butt" d="m773.1639 576.8777c0 15.608459 -3.795288 23.413757 -7.590576 31.216919c-1.897644 3.9016113 -3.795227 7.8026123 -5.218506 12.678772c-0.7116089 2.4380493 -1.3046265 5.119934 -1.7197266 8.1675415c-0.20758057 1.5237427 -0.37060547 3.139038 -0.4817505 4.860901c-0.027832031 0.43048096 -0.0524292 0.86761475 -0.0736084 1.3117065c-0.010559082 0.2220459 -0.020324707 0.44580078 -0.029296875 0.67126465l-0.0031738281 0.09161377" fill-rule="evenodd"/><path fill="#000000" stroke="#000000" stroke-width="1.0" stroke-linecap="butt" d="m758.04724 635.8764l-1.1032715 -1.1455688l1.0662842 3.1104126l1.1824951 -3.0681152z" fill-rule="evenodd"/><path fill="#000000" fill-opacity="0.0" d="m682.92865 555.23096c0 19.122253 -16.15747 27.732666 -32.31494 38.244507c-16.15747 10.51178 -32.31494 22.924988 -32.31494 45.849976" fill-rule="evenodd"/><path stroke="#000000" stroke-width="1.0" stroke-linejoin="round" stroke-linecap="butt" d="m682.9287 555.23096c0 19.122253 -16.157532 27.732727 -32.315002 38.244507c-8.078735 5.2559204 -16.15747 10.987183 -22.216492 18.27008c-3.029541 3.6414185 -5.554138 7.6707764 -7.321411 12.222595c-0.88360596 2.27594 -1.5778809 4.682434 -2.0512085 7.236389c-0.23669434 1.2769775 -0.41815186 2.5907593 -0.5404053 3.9435425c-0.015319824 0.16912842 -0.029663086 0.3388672 -0.043151855 0.5091553l-0.017700195 0.2434082" fill-rule="evenodd"/><path fill="#000000" stroke="#000000" stroke-width="1.0" stroke-linecap="butt" d="m618.4233 635.90063l-1.0829468 -1.1647339l1.0115356 3.128601l1.236145 -3.046814z" fill-rule="evenodd"/><path fill="#000000" fill-opacity="0.0" d="m581.65204 639.31134c0 -15.6085205 -8.850342 -23.413818 -17.700745 -31.21698c-8.850403 -7.8031616 -17.700806 -15.604126 -17.700806 -31.208252" fill-rule="evenodd"/><path stroke="#000000" stroke-width="1.0" stroke-linejoin="round" stroke-linecap="butt" d="m581.65204 639.31134c0 -15.6085205 -8.850342 -23.413818 -17.700745 -31.21698c-4.425232 -3.9015503 -8.850403 -7.8026123 -12.169312 -12.678772c-1.6594238 -2.4380493 -3.0422974 -5.119873 -4.010315 -8.1675415c-0.4840088 -1.5237427 -0.86431885 -3.138977 -1.1235962 -4.860901c-0.064819336 -0.43048096 -0.12207031 -0.86761475 -0.17150879 -1.3117065c-0.024719238 -0.22198486 -0.04748535 -0.44573975 -0.068237305 -0.67126465l-0.007751465 -0.09423828" fill-rule="evenodd"/><path fill="#000000" stroke="#000000" stroke-width="1.0" stroke-linecap="butt" d="m546.4006 580.30994l1.1727295 1.0742188l-1.2587891 -3.0375366l-0.9882202 3.1360474z" fill-rule="evenodd"/><path fill="#000000" fill-opacity="0.0" d="m657.0074 529.3097c-37.055115 0 -74.11023 5.4488525 -74.11023 10.897644" fill-rule="evenodd"/><path stroke="#000000" stroke-width="1.0" stroke-linejoin="round" stroke-linecap="butt" d="m657.00745 529.3097c-18.527588 0 -37.055115 1.3622437 -50.950806 3.4055176c-6.947815 1.0216675 -12.737732 2.213623 -16.790588 3.4906616c-1.0132446 0.3192749 -1.9179077 0.64385986 -2.705017 0.9724121c-0.39349365 0.16430664 -0.75756836 0.32958984 -1.0912476 0.49572754l-0.17181396 0.087646484" fill-rule="evenodd"/><path fill="#000000" stroke="#000000" stroke-width="1.0" stroke-linecap="butt" d="m585.298 537.7617l-0.014709473 -1.590332l-1.3619995 2.9927368l2.967041 -1.4171753z" fill-rule="evenodd"/><path fill="#000000" fill-opacity="0.0" d="m721.32135 639.31134c0 -15.6085205 -34.606323 -23.413818 -69.212585 -31.21698c-34.606323 -7.8031616 -69.212585 -15.604126 -69.212585 -31.208252" fill-rule="evenodd"/><path stroke="#000000" stroke-width="1.0" stroke-linejoin="round" stroke-linecap="butt" d="m721.32135 639.31134c0 -15.6085205 -34.606262 -23.413818 -69.212585 -31.21698c-17.303162 -3.9015503 -34.606323 -7.8026123 -47.58368 -12.678772c-6.4886475 -2.4380493 -11.895874 -5.119873 -15.680969 -8.1675415c-1.8925171 -1.5237427 -3.3795166 -3.138977 -4.3933716 -4.860901c-0.253479 -0.43048096 -0.47735596 -0.86761475 -0.6706543 -1.3117065c-0.09661865 -0.22198486 -0.18560791 -0.44573975 -0.26678467 -0.67126465l-0.04736328 -0.13867188" fill-rule="evenodd"/><path fill="#000000" stroke="#000000" stroke-width="1.0" stroke-linecap="butt" d="m583.466 580.2655l1.2958984 0.92193604l-1.6226807 -2.8598022l-0.59521484 3.2337646z" fill-rule="evenodd"/><path fill="#000000" fill-opacity="0.0" d="m588.1849 459.47083c0 20.18695 -10.480347 30.279419 -20.960632 40.37393c-10.480347 10.094482 -20.960632 20.19101 -20.960632 40.38199" fill-rule="evenodd"/><path stroke="#000000" stroke-width="1.0" stroke-linejoin="round" stroke-linecap="butt" d="m588.1849 459.47086c0 20.18695 -10.480286 30.279388 -20.960632 40.37387c-5.2401733 5.047241 -10.480286 10.095001 -14.4104 16.404846c-1.9650879 3.1548462 -3.6026611 6.625305 -4.7489014 10.56897c-0.5731201 1.9718018 -1.0234985 4.0618896 -1.3305054 6.290039c-0.15356445 1.1140747 -0.27124023 2.2626343 -0.35058594 3.4481812l-0.014221191 0.24456787" fill-rule="evenodd"/><path fill="#000000" stroke="#000000" stroke-width="1.0" stroke-linecap="butt" d="m546.3696 536.80133l-1.0892944 -1.1588745l1.0285034 3.123108l1.2196045 -3.0535278z" fill-rule="evenodd"/><path fill="#000000" fill-opacity="0.0" d="m480.0 373.18896l425.51184 0l0 42.015747l-425.51184 0z" fill-rule="evenodd"/><path fill="#000000" d="m646.5106 394.8746l0 -1.578125l5.65625 0l0 4.953125q-1.296875 1.046875 -2.6875 1.578125q-1.375 0.515625 -2.84375 0.515625q-1.96875 0 -3.578125 -0.84375q-1.609375 -0.84375 -2.421875 -2.4375q-0.8125 -1.59375 -0.8125 -3.5625q0 -1.953125 0.8125 -3.640625q0.8125 -1.6875 2.34375 -2.5q1.53125 -0.828125 3.515625 -0.828125q1.453125 0 2.625 0.46875q1.171875 0.46875 1.828125 1.3125q0.671875 0.828125 1.015625 2.171875l-1.59375 0.4375q-0.296875 -1.015625 -0.75 -1.59375q-0.4375 -0.59375 -1.265625 -0.9375q-0.828125 -0.34375 -1.84375 -0.34375q-1.203125 0 -2.09375 0.375q-0.890625 0.359375 -1.4375 0.96875q-0.53125 0.59375 -0.828125 1.3125q-0.515625 1.234375 -0.515625 2.6875q0 1.78125 0.609375 2.984375q0.625 1.203125 1.796875 1.796875q1.171875 0.578125 2.5 0.578125q1.140625 0 2.234375 -0.4375q1.09375 -0.453125 1.65625 -0.953125l0 -2.484375l-3.921875 0zm8.042664 5.234375l0 -9.671875l1.46875 0l0 1.46875q0.5625 -1.03125 1.03125 -1.359375q0.484375 -0.328125 1.0625 -0.328125q0.828125 0 1.6875 0.53125l-0.5625 1.515625q-0.609375 -0.359375 -1.203125 -0.359375q-0.546875 0 -0.96875 0.328125q-0.421875 0.328125 -0.609375 0.890625q-0.28125 0.875 -0.28125 1.921875l0 5.0625l-1.625 0zm12.5408325 -1.1875q-0.921875 0.765625 -1.765625 1.09375q-0.828125 0.3125 -1.796875 0.3125q-1.59375 0 -2.453125 -0.78125q-0.859375 -0.78125 -0.859375 -1.984375q0 -0.71875 0.328125 -1.296875q0.328125 -0.59375 0.84375 -0.9375q0.53125 -0.359375 1.1875 -0.546875q0.46875 -0.125 1.453125 -0.25q1.984375 -0.234375 2.921875 -0.5625q0.015625 -0.34375 0.015625 -0.421875q0 -1.0 -0.46875 -1.421875q-0.625 -0.546875 -1.875 -0.546875q-1.15625 0 -1.703125 0.40625q-0.546875 0.40625 -0.8125 1.421875l-1.609375 -0.21875q0.21875 -1.015625 0.71875 -1.640625q0.5 -0.640625 1.453125 -0.984375q0.953125 -0.34375 2.1875 -0.34375q1.25 0 2.015625 0.296875q0.78125 0.28125 1.140625 0.734375q0.375 0.4375 0.515625 1.109375q0.078125 0.421875 0.078125 1.515625l0 2.1875q0 2.28125 0.109375 2.890625q0.109375 0.59375 0.40625 1.15625l-1.703125 0q-0.265625 -0.515625 -0.328125 -1.1875zm-0.140625 -3.671875q-0.890625 0.375 -2.671875 0.625q-1.015625 0.140625 -1.4375 0.328125q-0.421875 0.1875 -0.65625 0.53125q-0.21875 0.34375 -0.21875 0.78125q0 0.65625 0.5 1.09375q0.5 0.4375 1.453125 0.4375q0.9375 0 1.671875 -0.40625q0.75 -0.421875 1.09375 -1.140625q0.265625 -0.5625 0.265625 -1.640625l0 -0.609375zm4.2038574 8.5625l0 -13.375l1.484375 0l0 1.25q0.53125 -0.734375 1.1875 -1.09375q0.671875 -0.375 1.625 -0.375q1.234375 0 2.171875 0.640625q0.953125 0.625 1.4375 1.796875q0.484375 1.15625 0.484375 2.546875q0 1.484375 -0.53125 2.671875q-0.53125 1.1875 -1.546875 1.828125q-1.015625 0.625 -2.140625 0.625q-0.8125 0 -1.46875 -0.34375q-0.65625 -0.34375 -1.0625 -0.875l0 4.703125l-1.640625 0zm1.484375 -8.484375q0 1.859375 0.75 2.765625q0.765625 0.890625 1.828125 0.890625q1.09375 0 1.875 -0.921875q0.78125 -0.9375 0.78125 -2.875q0 -1.84375 -0.765625 -2.765625q-0.75 -0.921875 -1.8125 -0.921875q-1.046875 0 -1.859375 0.984375q-0.796875 0.96875 -0.796875 2.84375zm8.891296 4.78125l0 -13.359375l1.640625 0l0 4.796875q1.140625 -1.328125 2.890625 -1.328125q1.078125 0 1.859375 0.421875q0.796875 0.421875 1.140625 1.171875q0.34375 0.75 0.34375 2.171875l0 6.125l-1.640625 0l0 -6.125q0 -1.234375 -0.53125 -1.796875q-0.53125 -0.5625 -1.515625 -0.5625q-0.71875 0 -1.359375 0.390625q-0.640625 0.375 -0.921875 1.015625q-0.265625 0.640625 -0.265625 1.78125l0 5.296875l-1.640625 0zm17.059021 0l-1.515625 0l0 -13.359375l1.640625 0l0 4.765625q1.046875 -1.296875 2.65625 -1.296875q0.890625 0 1.6875 0.359375q0.796875 0.359375 1.3125 1.015625q0.515625 0.640625 0.796875 1.5625q0.296875 0.921875 0.296875 1.96875q0 2.484375 -1.234375 3.84375q-1.21875 1.359375 -2.953125 1.359375q-1.703125 0 -2.6875 -1.4375l0 1.21875zm-0.015625 -4.90625q0 1.734375 0.484375 2.515625q0.765625 1.265625 2.09375 1.265625q1.078125 0 1.859375 -0.9375q0.78125 -0.9375 0.78125 -2.78125q0 -1.890625 -0.75 -2.796875q-0.75 -0.90625 -1.828125 -0.90625q-1.0625 0 -1.859375 0.9375q-0.78125 0.9375 -0.78125 2.703125zm15.203857 3.71875q-0.921875 0.765625 -1.765625 1.09375q-0.828125 0.3125 -1.796875 0.3125q-1.59375 0 -2.453125 -0.78125q-0.859375 -0.78125 -0.859375 -1.984375q0 -0.71875 0.328125 -1.296875q0.328125 -0.59375 0.84375 -0.9375q0.53125 -0.359375 1.1875 -0.546875q0.46875 -0.125 1.453125 -0.25q1.984375 -0.234375 2.921875 -0.5625q0.015625 -0.34375 0.015625 -0.421875q0 -1.0 -0.46875 -1.421875q-0.625 -0.546875 -1.875 -0.546875q-1.15625 0 -1.703125 0.40625q-0.546875 0.40625 -0.8125 1.421875l-1.609375 -0.21875q0.21875 -1.015625 0.71875 -1.640625q0.5 -0.640625 1.453125 -0.984375q0.953125 -0.34375 2.1875 -0.34375q1.25 0 2.015625 0.296875q0.78125 0.28125 1.140625 0.734375q0.375 0.4375 0.515625 1.109375q0.078125 0.421875 0.078125 1.515625l0 2.1875q0 2.28125 0.109375 2.890625q0.109375 0.59375 0.40625 1.15625l-1.703125 0q-0.265625 -0.515625 -0.328125 -1.1875zm-0.140625 -3.671875q-0.890625 0.375 -2.671875 0.625q-1.015625 0.140625 -1.4375 0.328125q-0.421875 0.1875 -0.65625 0.53125q-0.21875 0.34375 -0.21875 0.78125q0 0.65625 0.5 1.09375q0.5 0.4375 1.453125 0.4375q0.9375 0 1.671875 -0.40625q0.75 -0.421875 1.09375 -1.140625q0.265625 -0.5625 0.265625 -1.640625l0 -0.609375zm3.5476074 1.96875l1.625 -0.25q0.125 0.96875 0.75 1.5q0.625 0.515625 1.75 0.515625q1.125 0 1.671875 -0.453125q0.546875 -0.46875 0.546875 -1.09375q0 -0.546875 -0.484375 -0.875q-0.328125 -0.21875 -1.671875 -0.546875q-1.8125 -0.46875 -2.515625 -0.796875q-0.6875 -0.328125 -1.046875 -0.90625q-0.359375 -0.59375 -0.359375 -1.3125q0 -0.640625 0.296875 -1.1875q0.296875 -0.5625 0.8125 -0.921875q0.375 -0.28125 1.03125 -0.46875q0.671875 -0.203125 1.421875 -0.203125q1.140625 0 2.0 0.328125q0.859375 0.328125 1.265625 0.890625q0.421875 0.5625 0.578125 1.5l-1.609375 0.21875q-0.109375 -0.75 -0.640625 -1.171875q-0.515625 -0.421875 -1.46875 -0.421875q-1.140625 0 -1.625 0.375q-0.46875 0.375 -0.46875 0.875q0 0.3125 0.1875 0.578125q0.203125 0.265625 0.640625 0.4375q0.234375 0.09375 1.4375 0.421875q1.75 0.453125 2.4375 0.75q0.6875 0.296875 1.078125 0.859375q0.390625 0.5625 0.390625 1.40625q0 0.828125 -0.484375 1.546875q-0.46875 0.71875 -1.375 1.125q-0.90625 0.390625 -2.046875 0.390625q-1.875 0 -2.875 -0.78125q-0.984375 -0.78125 -1.25 -2.328125zm16.609375 -0.21875l1.6875 0.203125q-0.40625 1.484375 -1.484375 2.3125q-1.078125 0.8125 -2.765625 0.8125q-2.125 0 -3.375 -1.296875q-1.234375 -1.3125 -1.234375 -3.671875q0 -2.453125 1.25 -3.796875q1.265625 -1.34375 3.265625 -1.34375q1.9375 0 3.15625 1.328125q1.234375 1.3125 1.234375 3.703125q0 0.15625 0 0.4375l-7.21875 0q0.09375 1.59375 0.90625 2.453125q0.8125 0.84375 2.015625 0.84375q0.90625 0 1.546875 -0.46875q0.640625 -0.484375 1.015625 -1.515625zm-5.390625 -2.65625l5.40625 0q-0.109375 -1.21875 -0.625 -1.828125q-0.78125 -0.953125 -2.03125 -0.953125q-1.125 0 -1.90625 0.765625q-0.765625 0.75 -0.84375 2.015625zm15.406982 5.765625l0 -1.21875q-0.90625 1.4375 -2.703125 1.4375q-1.15625 0 -2.125 -0.640625q-0.96875 -0.640625 -1.5 -1.78125q-0.53125 -1.140625 -0.53125 -2.625q0 -1.453125 0.484375 -2.625q0.484375 -1.1875 1.4375 -1.8125q0.96875 -0.625 2.171875 -0.625q0.875 0 1.546875 0.375q0.6875 0.359375 1.109375 0.953125l0 -4.796875l1.640625 0l0 13.359375l-1.53125 0zm-5.171875 -4.828125q0 1.859375 0.78125 2.78125q0.78125 0.921875 1.84375 0.921875q1.078125 0 1.828125 -0.875q0.75 -0.890625 0.75 -2.6875q0 -1.984375 -0.765625 -2.90625q-0.765625 -0.9375 -1.890625 -0.9375q-1.078125 0 -1.8125 0.890625q-0.734375 0.890625 -0.734375 2.8125z" fill-rule="nonzero"/><path fill="#000000" fill-opacity="0.0" d="m54.472443 373.18896l425.5118 0l0 42.015747l-425.5118 0z" fill-rule="evenodd"/><path fill="#000000" d="m240.58969 400.10898l0 -13.359375l1.78125 0l0 11.78125l6.5625 0l0 1.578125l-8.34375 0zm16.563202 -1.1875q-0.921875 0.765625 -1.7656097 1.09375q-0.828125 0.3125 -1.796875 0.3125q-1.59375 0 -2.453125 -0.78125q-0.859375 -0.78125 -0.859375 -1.984375q0 -0.71875 0.328125 -1.296875q0.328125 -0.59375 0.84375 -0.9375q0.53125 -0.359375 1.1875 -0.546875q0.46875 -0.125 1.453125 -0.25q1.9843597 -0.234375 2.9218597 -0.5625q0.015625 -0.34375 0.015625 -0.421875q0 -1.0 -0.46875 -1.421875q-0.62498474 -0.546875 -1.8749847 -0.546875q-1.15625 0 -1.703125 0.40625q-0.546875 0.40625 -0.8125 1.421875l-1.609375 -0.21875q0.21875 -1.015625 0.71875 -1.640625q0.5 -0.640625 1.453125 -0.984375q0.953125 -0.34375 2.1875 -0.34375q1.2499847 0 2.0156097 0.296875q0.78125 0.28125 1.140625 0.734375q0.375 0.4375 0.515625 1.109375q0.078125 0.421875 0.078125 1.515625l0 2.1875q0 2.28125 0.109375 2.890625q0.109375 0.59375 0.40625 1.15625l-1.703125 0q-0.265625 -0.515625 -0.328125 -1.1875zm-0.140625 -3.671875q-0.890625 0.375 -2.6718597 0.625q-1.015625 0.140625 -1.4375 0.328125q-0.421875 0.1875 -0.65625 0.53125q-0.21875 0.34375 -0.21875 0.78125q0 0.65625 0.5 1.09375q0.5 0.4375 1.453125 0.4375q0.9375 0 1.671875 -0.40625q0.74998474 -0.421875 1.0937347 -1.140625q0.265625 -0.5625 0.265625 -1.640625l0 -0.609375zm4.1257324 8.578125l-0.1875 -1.53125q0.546875 0.140625 0.9375 0.140625q0.546875 0 0.875 -0.1875q0.328125 -0.171875 0.546875 -0.5q0.15625 -0.25 0.5 -1.21875q0.046875 -0.140625 0.140625 -0.40625l-3.671875 -9.6875l1.765625 0l2.015625 5.59375q0.390625 1.078125 0.703125 2.25q0.28125 -1.125 0.671875 -2.203125l2.078125 -5.640625l1.640625 0l-3.6875 9.828125q-0.59375 1.609375 -0.921875 2.203125q-0.4375 0.8125 -1.0 1.1875q-0.5625 0.375 -1.34375 0.375q-0.484375 0 -1.0625 -0.203125zm16.03125 -6.828125l1.6875 0.203125q-0.40625 1.484375 -1.484375 2.3125q-1.078125 0.8125 -2.765625 0.8125q-2.125 0 -3.375 -1.296875q-1.234375 -1.3125 -1.234375 -3.671875q0 -2.453125 1.25 -3.796875q1.265625 -1.34375 3.265625 -1.34375q1.9375 0 3.15625 1.328125q1.234375 1.3125 1.234375 3.703125q0 0.15625 0 0.4375l-7.21875 0q0.09375 1.59375 0.90625 2.453125q0.8125 0.84375 2.015625 0.84375q0.90625 0 1.546875 -0.46875q0.640625 -0.484375 1.015625 -1.515625zm-5.390625 -2.65625l5.40625 0q-0.109375 -1.21875 -0.625 -1.828125q-0.78125 -0.953125 -2.03125 -0.953125q-1.125 0 -1.90625 0.765625q-0.765625 0.75 -0.84375 2.015625zm9.125702 5.765625l0 -9.671875l1.46875 0l0 1.46875q0.5625 -1.03125 1.03125 -1.359375q0.484375 -0.328125 1.0625 -0.328125q0.828125 0 1.6875 0.53125l-0.5625 1.515625q-0.609375 -0.359375 -1.203125 -0.359375q-0.546875 0 -0.96875 0.328125q-0.421875 0.328125 -0.609375 0.890625q-0.28125 0.875 -0.28125 1.921875l0 5.0625l-1.625 0zm5.572052 -2.890625l1.625 -0.25q0.125 0.96875 0.75 1.5q0.625 0.515625 1.75 0.515625q1.125 0 1.671875 -0.453125q0.546875 -0.46875 0.546875 -1.09375q0 -0.546875 -0.484375 -0.875q-0.328125 -0.21875 -1.671875 -0.546875q-1.8125 -0.46875 -2.515625 -0.796875q-0.6875 -0.328125 -1.046875 -0.90625q-0.359375 -0.59375 -0.359375 -1.3125q0 -0.640625 0.296875 -1.1875q0.296875 -0.5625 0.8125 -0.921875q0.375 -0.28125 1.03125 -0.46875q0.671875 -0.203125 1.421875 -0.203125q1.140625 0 2.0 0.328125q0.859375 0.328125 1.265625 0.890625q0.421875 0.5625 0.578125 1.5l-1.609375 0.21875q-0.109375 -0.75 -0.640625 -1.171875q-0.515625 -0.421875 -1.46875 -0.421875q-1.140625 0 -1.625 0.375q-0.46875 0.375 -0.46875 0.875q0 0.3125 0.1875 0.578125q0.203125 0.265625 0.640625 0.4375q0.234375 0.09375 1.4375 0.421875q1.75 0.453125 2.4375 0.75q0.6875 0.296875 1.078125 0.859375q0.390625 0.5625 0.390625 1.40625q0 0.828125 -0.484375 1.546875q-0.46875 0.71875 -1.375 1.125q-0.90625 0.390625 -2.046875 0.390625q-1.875 0 -2.875 -0.78125q-0.984375 -0.78125 -1.25 -2.328125z" fill-rule="nonzero"/></g></svg>