<svg version="1.1" viewBox="0.0 0.0 960.0 720.0" fill="none" stroke="none" stroke-linecap="square" stroke-miterlimit="10" xmlns:xlink="http://www.w3.org/1999/xlink" xmlns="http://www.w3.org/2000/svg"><clipPath id="p.0"><path d="m0 0l960.0 0l0 720.0l-960.0 0l0 -720.0z" clip-rule="nonzero"/></clipPath><g clip-path="url(#p.0)"><path fill="#000000" fill-opacity="0.0" d="m0 0l960.0 0l0 720.0l-960.0 0z" fill-rule="evenodd"/><path fill="#cfe2f3" d="m138.89764 360.0l0 0c0 -130.61752 152.71674 -236.50394 341.10236 -236.50394l0 0c188.38562 0 341.10236 105.88641 341.10236 236.50394l0 0c0 130.61752 -152.71674 236.50397 -341.10236 236.50397l0 0c-188.38562 0 -341.10236 -105.886444 -341.10236 -236.50397z" fill-rule="evenodd"/><path stroke="#000000" stroke-width="1.0" stroke-linejoin="round" stroke-linecap="butt" d="m138.89764 360.0l0 0c0 -130.61752 152.71674 -236.50394 341.10236 -236.50394l0 0c188.38562 0 341.10236 105.88641 341.10236 236.50394l0 0c0 130.61752 -152.71674 236.50397 -341.10236 236.50397l0 0c-188.38562 0 -341.10236 -105.886444 -341.10236 -236.50397z" fill-rule="evenodd"/><g filter="url(#shadowFilter-p.1)"><use xlink:href="#p.1" transform="matrix(1.0 0.0 0.0 1.0 0.0 2.0)"/></g><defs><filter id="shadowFilter-p.1" filterUnits="userSpaceOnUse"><feGaussianBlur in="SourceAlpha" stdDeviation="2.0" result="blur"/><feComponentTransfer in="blur" color-interpolation-filters="sRGB"><feFuncR type="linear" slope="0" intercept="0.0"/><feFuncG type="linear" slope="0" intercept="0.0"/><feFuncB type="linear" slope="0" intercept="0.0"/><feFuncA type="linear" slope="0.5" intercept="0"/></feComponentTransfer></filter></defs><g id="p.1"><path fill="#e06666" d="m408.5853 262.2257l61.748047 -106.80313l61.748016 106.80313z" fill-rule="evenodd"/><path stroke="#000000" stroke-width="1.0" stroke-linejoin="round" stroke-linecap="butt" d="m408.5853 262.2257l61.748047 -106.80313l61.748016 106.80313z" fill-rule="evenodd"/></g><g filter="url(#shadowFilter-p.2)"><use xlink:href="#p.2" transform="matrix(1.0 0.0 0.0 1.0 0.0 2.0)"/></g><defs><filter id="shadowFilter-p.2" filterUnits="userSpaceOnUse"><feGaussianBlur in="SourceAlpha" stdDeviation="2.0" result="blur"/><feComponentTransfer in="blur" color-interpolation-filters="sRGB"><feFuncR type="linear" slope="0" intercept="0.0"/><feFuncG type="linear" slope="0" intercept="0.0"/><feFuncB type="linear" slope="0" intercept="0.0"/><feFuncA type="linear" slope="0.5" intercept="0"/></feComponentTransfer></filter></defs><g id="p.2"><path fill="#6fa8dc" d="m360.69815 400.3937l0 0c0 -29.49289 23.965118 -53.40158 53.527557 -53.40158l0 0c14.196411 0 27.81134 5.6262207 37.8497 15.640961c10.038391 10.01474 15.677887 23.597626 15.677887 37.76062l0 0c0 29.492859 -23.965118 53.40158 -53.527588 53.40158l0 0c-29.562439 0 -53.527557 -23.908722 -53.527557 -53.40158z" fill-rule="evenodd"/><path stroke="#000000" stroke-width="1.0" stroke-linejoin="round" stroke-linecap="butt" d="m360.69815 400.3937l0 0c0 -29.49289 23.965118 -53.40158 53.527557 -53.40158l0 0c14.196411 0 27.81134 5.6262207 37.8497 15.640961c10.038391 10.01474 15.677887 23.597626 15.677887 37.76062l0 0c0 29.492859 -23.965118 53.40158 -53.527588 53.40158l0 0c-29.562439 0 -53.527557 -23.908722 -53.527557 -53.40158z" fill-rule="evenodd"/></g><g filter="url(#shadowFilter-p.3)"><use xlink:href="#p.3" transform="matrix(1.0 0.0 0.0 1.0 0.0 2.0)"/></g><defs><filter id="shadowFilter-p.3" filterUnits="userSpaceOnUse"><feGaussianBlur in="SourceAlpha" stdDeviation="2.0" result="blur"/><feComponentTransfer in="blur" color-interpolation-filters="sRGB"><feFuncR type="linear" slope="0" intercept="0.0"/><feFuncG type="linear" slope="0" intercept="0.0"/><feFuncB type="linear" slope="0" intercept="0.0"/><feFuncA type="linear" slope="0.5" intercept="0"/></feComponentTransfer></filter></defs><g id="p.3"><path fill="#93c47d" d="m561.48816 329.937l107.055176 0l0 107.055115l-107.055176 0z" fill-rule="evenodd"/><path stroke="#000000" stroke-width="1.0" stroke-linejoin="round" stroke-linecap="butt" d="m561.48816 329.937l107.055176 0l0 107.055115l-107.055176 0z" fill-rule="evenodd"/></g><path fill="#000000" fill-opacity="0.0" d="m237.19423 351.24408l59.65355 0l0 98.299225l-59.65355 0z" fill-rule="evenodd"/><path fill="#000000" d="m264.6317 422.93472q-0.03125 -1.40625 -0.03125 -2.109375q0 -4.140625 1.171875 -7.140625q0.859375 -2.265625 2.765625 -4.578125q1.40625 -1.671875 5.0625 -4.890625q3.65625 -3.234375 4.75 -5.140625q1.09375 -1.921875 1.09375 -4.1875q0 -4.09375 -3.203125 -7.203125q-3.203125 -3.109375 -7.859375 -3.109375q-4.484375 0 -7.5 2.8125q-3.0 2.8125 -3.9375 8.796875l-7.2343597 -0.859375q0.984375 -8.015625 5.796875 -12.265625q4.8281097 -4.265625 12.76561 -4.265625q8.390625 0 13.390625 4.578125q5.0 4.5625 5.0 11.046875q0 3.75 -1.765625 6.921875q-1.75 3.15625 -6.859375 7.6875q-3.4375 3.046875 -4.5 4.5q-1.046875 1.4375 -1.5625 3.3125q-0.5 1.875 -0.578125 6.09375l-6.765625 0zm-0.421875 14.109375l0 -8.015625l8.0 0l0 8.015625l-8.0 0z" fill-rule="nonzero"/><path fill="#000000" fill-opacity="0.0" d="m301.04462 231.6378l59.653534 0l0 98.29921l-59.653534 0z" fill-rule="evenodd"/><path fill="#000000" d="m328.48212 303.32843q-0.03125 -1.40625 -0.03125 -2.109375q0 -4.140625 1.171875 -7.140625q0.859375 -2.265625 2.765625 -4.578125q1.40625 -1.671875 5.0625 -4.890625q3.65625 -3.234375 4.75 -5.140625q1.09375 -1.921875 1.09375 -4.1875q0 -4.09375 -3.203125 -7.203125q-3.203125 -3.109375 -7.859375 -3.109375q-4.484375 0 -7.5 2.8125q-3.0 2.8125 -3.9375 8.796875l-7.234375 -0.859375q0.984375 -8.015625 5.796875 -12.265625q4.828125 -4.265625 12.765625 -4.265625q8.390625 0 13.390625 4.578125q5.0 4.5625 5.0 11.046875q0 3.75 -1.765625 6.921875q-1.75 3.15625 -6.859375 7.6875q-3.4375 3.046875 -4.5 4.5q-1.046875 1.4375 -1.5625 3.3125q-0.5 1.875 -0.578125 6.09375l-6.765625 0zm-0.421875 14.109375l0 -8.015625l8.0 0l0 8.015625l-8.0 0z" fill-rule="nonzero"/><path fill="#000000" fill-opacity="0.0" d="m479.23096 436.99213l59.653564 0l0 98.299194l-59.653564 0z" fill-rule="evenodd"/><path fill="#000000" d="m506.66846 508.68274q-0.03125 -1.40625 -0.03125 -2.109375q0 -4.140625 1.171875 -7.140625q0.859375 -2.265625 2.765625 -4.578125q1.40625 -1.671875 5.0625 -4.890625q3.65625 -3.234375 4.75 -5.140625q1.09375 -1.921875 1.09375 -4.1875q0 -4.09375 -3.203125 -7.203125q-3.203125 -3.109375 -7.859375 -3.109375q-4.484375 0 -7.5 2.8125q-3.0 2.8125 -3.9375 8.796875l-7.234375 -0.859375q0.984375 -8.015625 5.796875 -12.265625q4.828125 -4.265625 12.765625 -4.265625q8.390625 0 13.390625 4.578125q5.0 4.5625 5.0 11.046875q0 3.75 -1.765625 6.921875q-1.75 3.15625 -6.859375 7.6875q-3.4375 3.046875 -4.5 4.5q-1.046875 1.4375 -1.5625 3.3125q-0.5 1.875 -0.578125 6.09375l-6.765625 0zm-0.421875 14.109375l0 -8.015625l8.0 0l0 8.015625l-8.0 0z" fill-rule="nonzero"/><path fill="#000000" fill-opacity="0.0" d="m-0.9422572 1.0839895l960.0 0l0 107.055115l-960.0 0z" fill-rule="evenodd"/><path fill="#000000" d="m297.24524 77.55155l0 -45.8125l15.78125 0q5.34375 0 8.15625 0.6562481q3.9375 0.90625 6.71875 3.28125q3.625 3.0625 5.421875 7.828125q1.796875 4.765625 1.796875 10.890625q0 5.21875 -1.21875 9.25q-1.21875 4.031254 -3.125 6.671879q-1.90625 2.640625 -4.171875 4.15625q-2.265625 1.515625 -5.46875 2.296875q-3.203125 0.78125 -7.359375 0.78125l-16.53125 0zm6.0625 -5.40625l9.78125 0q4.53125 0 7.109375 -0.84375q2.578125 -0.84375 4.109375 -2.375q2.15625 -2.15625 3.359375 -5.796879q1.203125 -3.640625 1.203125 -8.828125q0 -7.1875 -2.359375 -11.046875q-2.359375 -3.859375 -5.734375 -5.171875q-2.4375 -0.9375 -7.84375 -0.9375l-9.625 0l0 35.000004zm62.15625 -5.28125l5.8125 0.71875q-1.375 5.09375 -5.09375 7.90625q-3.71875 2.8125 -9.5 2.8125q-7.28125 0 -11.546875 -4.484375q-4.265625 -4.484375 -4.265625 -12.578129q0 -8.375 4.3125 -13.0q4.3125 -4.625 11.1875 -4.625q6.65625 0 10.875 4.53125q4.21875 4.53125 4.21875 12.75q0 0.5 -0.03125 1.5l-24.75 0q0.3125 5.468754 3.09375 8.375004q2.78125 2.90625 6.9375 2.90625q3.09375 0 5.28125 -1.625q2.1875 -1.625 3.46875 -5.1875zm-18.46875 -9.093754l18.53125 0q-0.375 -4.1875 -2.125 -6.28125q-2.6875 -3.25 -6.96875 -3.25q-3.875 0 -6.515625 2.59375q-2.640625 2.59375 -2.921875 6.9375zm31.34375 32.500004l0 -45.906254l5.125 0l0 4.3125q1.8125 -2.53125 4.09375 -3.796875q2.28125 -1.265625 5.53125 -1.265625q4.25 0 7.5 2.1875q3.25 2.1875 4.90625 6.171875q1.65625 3.984375 1.65625 8.734375q0 5.093754 -1.828125 9.171879q-1.828125 4.078125 -5.3125 6.25q-3.484375 2.171875 -7.328125 2.171875q-2.8125 0 -5.046875 -1.1875q-2.234375 -1.1875 -3.671875 -3.0l0 16.15625l-5.625 0zm5.09375 -29.125004q0 6.406254 2.59375 9.468754q2.59375 3.0625 6.28125 3.0625q3.75 0 6.421875 -3.171875q2.671875 -3.171875 2.671875 -9.828129q0 -6.34375 -2.609375 -9.5q-2.609375 -3.15625 -6.234375 -3.15625q-3.59375 0 -6.359375 3.359375q-2.765625 3.359375 -2.765625 9.765625zm30.375 16.406254l0 -45.8125l5.625 0l0 45.8125l-5.625 0zm12.25 -16.593754q0 -9.21875 5.125 -13.65625q4.28125 -3.6875 10.4375 -3.6875q6.84375 0 11.1875 4.484375q4.34375 4.484375 4.34375 12.390625q0 6.406254 -1.921875 10.078129q-1.921875 3.671875 -5.59375 5.703125q-3.671875 2.03125 -8.015625 2.03125q-6.96875 0 -11.265625 -4.46875q-4.296875 -4.46875 -4.296875 -12.875004zm5.78125 0q0 6.375004 2.78125 9.546879q2.78125 3.171875 7.0 3.171875q4.1875 0 6.96875 -3.1875q2.78125 -3.1875 2.78125 -9.718754q0 -6.15625 -2.796875 -9.328125q-2.796875 -3.171875 -6.953125 -3.171875q-4.21875 0 -7.0 3.15625q-2.78125 3.15625 -2.78125 9.53125zm31.65625 29.375004l-0.625 -5.28125q1.84375 0.5 3.21875 0.5q1.875 0 3.0 -0.625q1.125 -0.625 1.84375 -1.75q0.53125 -0.84375 1.71875 -4.1875q0.15625 -0.46875 0.5 -1.375l-12.59375 -33.250004l6.0625 0l6.90625 19.21875q1.34375 3.6562538 2.40625 7.687504q0.96875 -3.875 2.3125 -7.562504l7.09375 -19.34375l5.625 0l-12.625 33.750004q-2.03125 5.46875 -3.15625 7.53125q-1.5 2.78125 -3.4375 4.078125q-1.9375 1.296875 -4.625 1.296875q-1.625 0 -3.625 -0.6875zm32.25 -12.78125l0 -33.187504l5.03125 0l0 4.65625q1.5625 -2.4375 4.15625 -3.921875q2.59375 -1.484375 5.90625 -1.484375q3.6875 0 6.046875 1.53125q2.359375 1.53125 3.328125 4.28125q3.9375 -5.8125 10.25 -5.8125q4.9375 0 7.59375 2.734375q2.65625 2.734375 2.65625 8.421875l0 22.781254l-5.59375 0l0 -20.906254q0 -3.375 -0.546875 -4.859375q-0.546875 -1.484375 -1.984375 -2.390625q-1.4375 -0.90625 -3.375 -0.90625q-3.5 0 -5.8125 2.328125q-2.3125 2.328125 -2.3125 7.453125l0 19.281254l-5.625 0l0 -21.562504q0 -3.75 -1.375 -5.625q-1.375 -1.875 -4.5 -1.875q-2.375 0 -4.390625 1.25q-2.015625 1.25 -2.921875 3.65625q-0.90625 2.40625 -0.90625 6.9375l0 17.218754l-5.625 0zm76.03125 -10.6875l5.8125 0.71875q-1.375 5.09375 -5.09375 7.90625q-3.71875 2.8125 -9.5 2.8125q-7.28125 0 -11.546875 -4.484375q-4.265625 -4.484375 -4.265625 -12.578129q0 -8.375 4.3125 -13.0q4.3125 -4.625 11.1875 -4.625q6.65625 0 10.875 4.53125q4.21875 4.53125 4.21875 12.75q0 0.5 -0.03125 1.5l-24.75 0q0.3125 5.468754 3.09375 8.375004q2.78125 2.90625 6.9375 2.90625q3.09375 0 5.28125 -1.625q2.1875 -1.625 3.46875 -5.1875zm-18.46875 -9.093754l18.53125 0q-0.375 -4.1875 -2.125 -6.28125q-2.6875 -3.25 -6.96875 -3.25q-3.875 0 -6.515625 2.59375q-2.640625 2.59375 -2.921875 6.9375zm31.34375 19.781254l0 -33.187504l5.0625 0l0 4.71875q3.65625 -5.46875 10.5625 -5.46875q3.0 0 5.515625 1.078125q2.515625 1.078125 3.765625 2.828125q1.25 1.75 1.75 4.15625q0.3125 1.5625 0.3125 5.46875l0 20.406254l-5.625 0l0 -20.187504q0 -3.4375 -0.65625 -5.140625q-0.65625 -1.703125 -2.328125 -2.71875q-1.671875 -1.015625 -3.921875 -1.015625q-3.59375 0 -6.203125 2.28125q-2.609375 2.28125 -2.609375 8.65625l0 18.125004l-5.625 0zm47.875 -5.03125l0.8125 4.96875q-2.375 0.5 -4.25 0.5q-3.0625 0 -4.75 -0.96875q-1.6875 -0.96875 -2.375 -2.546875q-0.6875 -1.578125 -0.6875 -6.640625l0 -19.093754l-4.125 0l0 -4.375l4.125 0l0 -8.21875l5.59375 -3.375l0 11.59375l5.65625 0l0 4.375l-5.65625 0l0 19.406254q0 2.40625 0.296875 3.09375q0.296875 0.6875 0.96875 1.09375q0.671875 0.40625 1.921875 0.40625q0.9375 0 2.46875 -0.21875zm3.25 -4.875l5.5625 -0.875q0.46875 3.34375 2.609375 5.125q2.140625 1.78125 5.984375 1.78125q3.875 0 5.75 -1.578125q1.875 -1.578125 1.875 -3.703125q0 -1.90625 -1.65625 -3.0q-1.15625 -0.75 -5.75 -1.9062538q-6.1875 -1.5625 -8.578125 -2.703125q-2.390625 -1.140625 -3.625 -3.15625q-1.234375 -2.015625 -1.234375 -4.453125q0 -2.21875 1.015625 -4.109375q1.015625 -1.890625 2.765625 -3.140625q1.3125 -0.96875 3.578125 -1.640625q2.265625 -0.671875 4.859375 -0.671875q3.90625 0 6.859375 1.125q2.953125 1.125 4.359375 3.046875q1.40625 1.921875 1.9375 5.140625l-5.5 0.75q-0.375 -2.5625 -2.171875 -4.0q-1.796875 -1.4375 -5.078125 -1.4375q-3.875 0 -5.53125 1.28125q-1.65625 1.28125 -1.65625 3.0q0 1.09375 0.6875 1.96875q0.6875 0.90625 2.15625 1.5q0.84375 0.3125 4.96875 1.4375q5.96875 1.59375 8.328125 2.609375q2.359375 1.015625 3.703125 2.953125q1.34375 1.9375038 1.34375 4.812504q0 2.8125 -1.640625 5.296875q-1.640625 2.484375 -4.734375 3.84375q-3.09375 1.359375 -7.0 1.359375q-6.46875 0 -9.859375 -2.6875q-3.390625 -2.6875 -4.328125 -7.96875z" fill-rule="nonzero"/></g></svg>